SplineFontDB: 3.0
FontName: Mikhak-KThin
FullName: Mikhak KThin
FamilyName: Mikhak KThin
Weight: Thin
Copyright: Copyright (c) 2019, Amin Abedi (www.fontamin.com|aminabedi68@gmail.com),\nwith Reserved Font Name Mikhak.\n\nThis Font Software is licensed under the SIL Open Font License, Version 1.1.\nThis license is available with a FAQ at: http://scripts.sil.org/OFL
Version: 2.2
ItalicAngle: 0
UnderlinePosition: -450
UnderlineWidth: 100
Ascent: 1638
Descent: 410
InvalidEm: 0
sfntRevision: 0x00023cac
LayerCount: 2
Layer: 0 0 "Back" 1
Layer: 1 0 "Fore" 0
PreferredKerning: 4
StyleMap: 0x0040
FSType: 0
OS2Version: 4
OS2_WeightWidthSlopeOnly: 0
OS2_UseTypoMetrics: 1
CreationTime: 1497005464
ModificationTime: 1569492851
PfmFamily: 33
TTFWeight: 100
TTFWidth: 5
LineGap: 0
VLineGap: 0
OS2TypoAscent: 2200
OS2TypoAOffset: 0
OS2TypoDescent: -1200
OS2TypoDOffset: 0
OS2TypoLinegap: 0
OS2WinAscent: 2200
OS2WinAOffset: 0
OS2WinDescent: 1200
OS2WinDOffset: 0
HheadAscent: 2200
HheadAOffset: 0
HheadDescent: -1200
HheadDOffset: 0
OS2SubXSize: 1277
OS2SubYSize: 1185
OS2SubXOff: 0
OS2SubYOff: 256
OS2SupXSize: 1277
OS2SupYSize: 1185
OS2SupXOff: 0
OS2SupYOff: 870
OS2StrikeYSize: 91
OS2StrikeYPos: 766
OS2CapHeight: 1400
OS2XHeight: 1012
OS2Vendor: 'AA68'
Lookup: 4 1 0 "'ccmp' Glyph Composition/Decomposition in Arabic lookup 0" { "'ccmp' Glyph Composition/Decomposition in Arabic lookup 0 subtable 0"  } ['ccmp' ('arab' <'FAR ' 'dflt' > ) ]
Lookup: 1 9 0 "Single Substitution 1" { "Single Substitution 1 subtable"  } []
Lookup: 2 9 0 "Multiple Substitution 2" { "Multiple Substitution 2 subtable"  } []
Lookup: 2 9 0 "Multiple Substitution 3" { "Multiple Substitution 3 subtable"  } []
Lookup: 1 9 0 "'fina' Terminal Forms in Arabic lookup 4" { "'fina' Terminal Forms in Arabic lookup 4 subtable"  } ['fina' ('arab' <'FAR ' 'dflt' > ) ]
Lookup: 1 9 0 "'medi' Medial Forms in Arabic lookup 5" { "'medi' Medial Forms in Arabic lookup 5 subtable"  } ['medi' ('arab' <'FAR ' 'dflt' > ) ]

StartChar: a
Encoding: 97 97 0
GlifName: a
Width: 1269
Flags: HMW
LayerCount: 2
Fore
SplineSet
521 32 m 0
 790 32 898 277 932 521 c 2
 996 988 l 2
 997 997 1006 1004 1015 1003 c 0
 1024 1002 1031 993 1030 984 c 2
 966 517 l 2
 932 271 818 -2 521 -2 c 0
 270 -2 142 198 142 419 c 0
 142 683 329 1018 650 1018 c 0
 742 1018 812 985 854 957 c 0
 862 952 864 940 859 932 c 0
 854 924 842 922 834 927 c 0
 796 953 734 984 650 984 c 0
 357 984 178 671 178 419 c 0
 178 210 294 32 521 32 c 0
1015 1003 m 0
 1024 1002 1031 993 1030 984 c 2
 958 461 l 2
 951 407 946 353 946 293 c 0
 946 167 970 62 1109 62 c 0
 1119 62 1127 55 1127 45 c 0
 1127 35 1119 28 1109 28 c 0
 940 28 912 167 912 293 c 0
 912 355 917 409 924 465 c 2
 996 988 l 2
 997 997 1006 1004 1015 1003 c 0
EndSplineSet
EndChar

StartChar: c
Encoding: 99 99 1
GlifName: c
Width: 1031
Flags: HMW
LayerCount: 2
Fore
SplineSet
868 896 m 0
 862 889 851 888 844 894 c 0
 780 950 703 984 611 984 c 0
 346 984 178 665 178 411 c 0
 178 220 267 32 528 32 c 0
 665 32 768 71 862 128 c 0
 870 133 881 130 886 122 c 0
 891 114 888 103 880 98 c 0
 782 39 671 -2 528 -2 c 0
 243 -2 142 210 142 411 c 0
 142 673 316 1018 611 1018 c 0
 713 1018 796 980 866 920 c 0
 873 914 874 903 868 896 c 0
EndSplineSet
EndChar

StartChar: e
Encoding: 101 101 2
GlifName: e
Width: 1131
Flags: HMW
LayerCount: 2
Fore
SplineSet
703 984 m 0
 430 984 232 716 232 440 c 0
 232 137 397 32 620 32 c 0
 747 32 878 61 969 144 c 0
 976 150 988 150 994 143 c 0
 1000 136 1000 124 993 118 c 0
 892 27 751 -2 620 -2 c 0
 383 -2 198 119 198 440 c 0
 198 730 404 1018 703 1018 c 0
 830 1018 956 940 956 805 c 0
 956 683 851 609 777 565 c 0
 588 453 371 385 151 370 c 0
 141 369 134 376 133 386 c 0
 132 396 139 403 149 404 c 0
 363 419 574 485 759 595 c 0
 833 639 922 705 922 805 c 0
 922 914 818 984 703 984 c 0
EndSplineSet
EndChar

StartChar: f
Encoding: 102 102 3
GlifName: f
Width: 773
Flags: HMW
LayerCount: 2
Fore
SplineSet
519 1626 m 0
 554 1626 590 1606 625 1566 c 0
 631 1559 631 1547 624 1541 c 0
 617 1535 605 1535 599 1542 c 0
 566 1578 540 1592 519 1592 c 0
 455 1592 393 1466 380 1307 c 0
 349 962 341 348 341 -4 c 0
 341 -14 333 -21 323 -21 c 0
 313 -21 306 -14 306 -4 c 0
 306 348 315 964 346 1311 c 0
 359 1464 415 1626 519 1626 c 0
143 828 m 0
 142 838 149 845 159 846 c 0
 213 850 262 852 312 852 c 0
 415 852 512 845 615 833 c 0
 624 832 631 823 630 814 c 0
 629 805 620 798 611 799 c 0
 510 811 413 816 312 816 c 0
 262 816 213 816 161 812 c 0
 151 811 144 818 143 828 c 0
EndSplineSet
EndChar

StartChar: g
Encoding: 103 103 4
GlifName: g
Width: 1177
Flags: HMW
LayerCount: 2
Fore
SplineSet
789 945 m 0
 784 937 773 934 765 939 c 0
 718 968 650 984 593 984 c 0
 340 984 186 681 186 420 c 0
 186 155 338 32 524 32 c 0
 791 32 911 275 954 481 c 0
 956 490 966 496 975 494 c 0
 984 492 990 482 988 473 c 0
 945 263 817 -2 524 -2 c 0
 318 -2 152 139 152 420 c 0
 152 687 308 1018 593 1018 c 0
 656 1018 728 1002 783 969 c 0
 791 964 794 953 789 945 c 0
973 988 m 0
 983 988 991 982 991 972 c 0
 993 924 994 841 994 764 c 0
 994 337 992 10 912 -199 c 0
 847 -370 674 -458 503 -458 c 0
 370 -458 235 -405 147 -297 c 0
 141 -290 142 -278 149 -272 c 0
 156 -266 168 -268 174 -275 c 0
 254 -373 378 -422 503 -422 c 0
 664 -422 821 -342 880 -187 c 0
 956 12 960 337 960 764 c 0
 960 841 959 924 957 970 c 0
 957 980 963 988 973 988 c 0
EndSplineSet
EndChar

StartChar: o
Encoding: 111 111 5
GlifName: o
Width: 1109
Flags: HMW
LayerCount: 2
Fore
SplineSet
567 984 m 0
 314 984 178 742 178 486 c 0
 178 244 323 32 540 32 c 0
 776 32 932 285 932 538 c 0
 932 763 798 984 567 984 c 0
567 1018 m 0
 826 1018 966 773 966 538 c 0
 966 275 804 -2 540 -2 c 0
 297 -2 142 232 142 486 c 0
 142 750 286 1018 567 1018 c 0
EndSplineSet
EndChar

StartChar: s
Encoding: 115 115 6
GlifName: s
Width: 980
Flags: HMW
LayerCount: 2
Fore
SplineSet
813 798 m 0
 804 795 794 801 791 810 c 0
 759 912 647 984 507 984 c 0
 357 984 225 873 225 759 c 1
 226 593 389 545 530 509 c 0
 662 476 838 416 838 239 c 0
 838 85 658 -2 488 -2 c 0
 345 -2 197 54 146 131 c 0
 141 139 142 151 150 156 c 0
 158 161 170 159 175 151 c 0
 215 90 351 32 488 32 c 0
 652 32 802 117 802 239 c 0
 802 386 656 442 522 475 c 0
 384 509 190 563 190 761 c 0
 190 901 343 1020 507 1020 c 0
 659 1020 787 940 825 820 c 0
 828 811 822 801 813 798 c 0
EndSplineSet
EndChar

StartChar: t
Encoding: 116 116 7
GlifName: t
Width: 775
Flags: HMW
LayerCount: 2
Fore
SplineSet
632 818 m 0
 631 809 622 802 613 803 c 0
 542 812 466 816 388 816 c 0
 313 816 236 812 162 803 c 0
 153 802 144 809 143 818 c 0
 142 827 149 836 158 837 c 0
 234 846 311 850 388 850 c 0
 468 850 544 846 617 837 c 0
 626 836 633 827 632 818 c 0
404 1233 m 0
 413 1232 420 1223 419 1214 c 0
 386 929 360 646 360 355 c 0
 360 203 369 32 538 32 c 0
 559 32 583 34 609 39 c 0
 618 41 627 34 629 25 c 0
 631 16 624 7 615 5 c 0
 587 0 561 -2 538 -2 c 0
 331 -2 326 211 326 355 c 0
 326 648 352 933 385 1218 c 0
 386 1227 395 1234 404 1233 c 0
EndSplineSet
EndChar

StartChar: v
Encoding: 118 118 8
GlifName: v
Width: 1084
Flags: HMW
LayerCount: 2
Fore
SplineSet
153 987 m 0
 162 991 172 987 176 978 c 0
 296 722 442 401 510 92 c 1
 669 356 815 659 907 976 c 0
 910 985 920 991 929 988 c 0
 938 985 944 975 941 966 c 0
 843 630 686 309 517 36 c 0
 515 32 511 29 507 28 c 0
 497 25 487 32 485 42 c 0
 423 359 270 696 144 964 c 0
 140 973 144 983 153 987 c 0
EndSplineSet
EndChar

StartChar: w
Encoding: 119 119 9
GlifName: w
Width: 1501
Flags: HMW
LayerCount: 2
Fore
SplineSet
311 969 m 0
 319 964 322 953 317 945 c 0
 261 846 178 585 178 374 c 0
 178 195 237 32 406 32 c 0
 633 32 762 473 762 681 c 0
 762 691 770 699 780 698 c 0
 789 697 796 690 796 681 c 0
 800 424 815 32 1038 32 c 0
 1243 32 1324 266 1324 513 c 0
 1324 672 1287 838 1235 943 c 0
 1231 952 1234 963 1243 967 c 0
 1252 971 1263 968 1267 959 c 0
 1323 848 1358 678 1358 513 c 0
 1358 266 1279 -2 1038 -2 c 0
 835 -2 785 252 769 470 c 1
 721 259 605 -2 406 -2 c 0
 205 -2 142 193 142 374 c 0
 142 593 227 856 287 963 c 0
 292 971 303 974 311 969 c 0
EndSplineSet
EndChar

StartChar: x
Encoding: 120 120 10
GlifName: x
Width: 1137
Flags: HMW
LayerCount: 2
Fore
SplineSet
149 -14 m 0
 142 -8 140 4 146 11 c 2
 941 982 l 2
 947 989 959 991 966 985 c 0
 973 979 975 967 969 960 c 2
 174 -11 l 2
 168 -18 156 -20 149 -14 c 0
227 973 m 0
 236 977 247 974 251 965 c 0
 413 637 734 267 989 12 c 0
 996 5 996 -5 989 -12 c 0
 982 -19 972 -19 965 -12 c 0
 708 245 385 615 219 949 c 0
 215 958 218 969 227 973 c 0
EndSplineSet
EndChar

StartChar: y
Encoding: 121 121 11
GlifName: y
Width: 1127
Flags: HMW
LayerCount: 2
Fore
SplineSet
228 988 m 0
 237 987 244 978 243 969 c 0
 229 844 222 714 222 589 c 0
 222 310 259 32 526 32 c 0
 728 32 842 174 899 369 c 0
 902 378 912 384 921 381 c 0
 930 378 936 368 933 359 c 0
 874 158 750 -2 526 -2 c 0
 221 -2 188 316 188 589 c 0
 188 716 195 846 209 973 c 0
 210 982 219 989 228 988 c 0
921 981 m 0
 931 981 939 974 939 964 c 0
 943 864 944 697 944 546 c 0
 944 89 944 -452 462 -452 c 0
 316 -452 209 -396 146 -304 c 0
 141 -296 142 -285 150 -280 c 0
 158 -275 170 -276 175 -284 c 0
 231 -366 325 -416 462 -416 c 0
 904 -416 910 76 910 546 c 0
 910 697 908 864 904 963 c 0
 904 973 911 981 921 981 c 0
EndSplineSet
EndChar

StartChar: z
Encoding: 122 122 12
GlifName: z
Width: 1054
Flags: HMW
LayerCount: 2
Fore
SplineSet
143 879 m 0
 141 888 148 897 157 899 c 0
 242 913 384 932 538 932 c 0
 692 932 801 894 856 860 c 0
 866 854 867 839 858 832 c 0
 683 685 343 285 197 22 c 1
 395 38 695 46 894 46 c 0
 904 46 912 39 912 29 c 0
 912 19 904 12 894 12 c 0
 685 12 360 2 168 -15 c 0
 153 -16 143 -2 150 10 c 0
 286 271 625 672 817 842 c 1
 763 869 667 896 538 896 c 0
 386 896 246 879 163 865 c 0
 154 863 145 870 143 879 c 0
EndSplineSet
EndChar

StartChar: A
Encoding: 65 65 13
GlifName: A_
Width: 1416
Flags: HMW
LayerCount: 2
Fore
SplineSet
153 16 m 0
 144 20 140 30 144 39 c 2
 722 1323 l 2
 726 1332 737 1336 746 1331 c 0
 750 1329 753 1325 754 1322 c 2
 1272 6 l 2
 1275 -3 1271 -13 1262 -16 c 0
 1253 -19 1243 -15 1240 -6 c 2
 737 1271 l 1
 176 25 l 2
 172 16 162 12 153 16 c 0
1105 450 m 0
 1104 441 1095 434 1086 435 c 2
 336 503 l 2
 327 504 320 513 321 522 c 0
 322 531 331 538 340 537 c 2
 1090 469 l 2
 1099 468 1106 459 1105 450 c 0
EndSplineSet
EndChar

StartChar: B
Encoding: 66 66 14
GlifName: B_
Width: 1138
Flags: HMW
LayerCount: 2
Fore
SplineSet
225 725 m 0
 224 735 231 742 241 743 c 0
 309 747 466 756 536 756 c 0
 817 756 996 633 996 376 c 0
 996 94 747 -2 501 -2 c 0
 396 -2 289 13 198 42 c 0
 189 45 183 55 186 64 c 0
 189 73 199 79 208 76 c 0
 295 49 400 32 501 32 c 0
 741 32 960 124 960 376 c 0
 960 609 807 722 536 722 c 0
 468 722 311 713 243 709 c 0
 233 708 226 715 225 725 c 0
202 42 m 0
 192 43 185 50 186 60 c 0
 201 258 208 515 208 706 c 0
 208 943 198 1095 183 1279 c 0
 182 1289 189 1296 199 1297 c 0
 209 1298 217 1291 218 1281 c 0
 233 1097 242 943 242 706 c 0
 242 515 235 258 220 58 c 0
 219 48 212 41 202 42 c 0
184 1274 m 0
 181 1283 185 1293 194 1296 c 0
 299 1337 420 1364 533 1364 c 0
 735 1364 914 1246 914 1028 c 0
 914 733 390 716 243 709 c 0
 233 709 225 715 225 725 c 0
 225 735 231 743 241 743 c 0
 404 750 880 779 880 1028 c 0
 880 1222 723 1328 533 1328 c 0
 426 1328 307 1303 206 1264 c 0
 197 1261 187 1265 184 1274 c 0
EndSplineSet
EndChar

StartChar: C
Encoding: 67 67 15
GlifName: C_
Width: 1271
Flags: HMW
LayerCount: 2
Fore
SplineSet
1092 1285 m 0
 1088 1276 1078 1272 1069 1276 c 0
 988 1312 902 1328 814 1328 c 0
 445 1328 178 1029 178 662 c 0
 178 300 443 32 810 32 c 0
 911 32 1012 56 1103 104 c 0
 1111 108 1123 105 1127 97 c 0
 1131 89 1127 78 1119 74 c 0
 1023 24 917 -2 810 -2 c 0
 425 -2 142 282 142 662 c 0
 142 1047 425 1364 814 1364 c 0
 906 1364 998 1346 1083 1308 c 0
 1092 1304 1096 1294 1092 1285 c 0
EndSplineSet
EndChar

StartChar: D
Encoding: 68 68 16
GlifName: D_
Width: 1279
Flags: HMW
LayerCount: 2
Fore
SplineSet
236 1311 m 1
 255 1128 262 1004 262 811 c 0
 262 567 247 300 219 74 c 1
 293 47 373 32 452 32 c 0
 823 32 1102 325 1102 701 c 0
 1102 1120 826 1328 406 1328 c 0
 349 1328 293 1323 236 1311 c 1
213 1342 m 0
 275 1356 342 1364 406 1364 c 0
 840 1364 1136 1142 1136 701 c 0
 1136 307 843 -2 452 -2 c 0
 364 -2 276 14 194 46 c 0
 186 49 182 57 183 64 c 0
 212 289 228 564 228 811 c 0
 228 1009 220 1130 200 1323 c 0
 199 1332 206 1340 213 1342 c 0
EndSplineSet
EndChar

StartChar: E
Encoding: 69 69 17
GlifName: E_
Width: 1098
Flags: HMW
LayerCount: 2
Fore
SplineSet
143 733 m 0
 142 742 149 751 158 752 c 0
 275 766 382 772 500 772 c 0
 623 772 742 764 861 750 c 0
 870 749 877 740 876 731 c 0
 875 722 866 715 857 716 c 0
 740 730 621 736 500 736 c 0
 382 736 277 732 162 718 c 0
 153 717 144 724 143 733 c 0
955 1363 m 0
 957 1354 951 1344 942 1342 c 0
 806 1310 631 1298 472 1298 c 0
 394 1298 315 1302 238 1306 c 1
 253 1182 260 1098 260 960 c 0
 260 747 244 532 218 345 c 0
 215 327 214 311 214 295 c 0
 214 68 467 62 768 62 c 0
 821 62 872 62 922 63 c 0
 932 63 940 56 940 46 c 0
 940 36 932 29 922 29 c 0
 872 28 821 28 768 28 c 0
 481 28 180 26 180 295 c 0
 180 313 181 331 184 351 c 0
 210 536 224 749 224 960 c 0
 224 1104 218 1189 201 1323 c 0
 200 1330 206 1343 219 1342 c 0
 303 1337 388 1334 472 1334 c 0
 629 1334 802 1346 934 1376 c 0
 943 1378 953 1372 955 1363 c 0
EndSplineSet
EndChar

StartChar: F
Encoding: 70 70 18
GlifName: F_
Width: 1092
Flags: HMW
LayerCount: 2
Fore
SplineSet
143 719 m 0
 142 728 149 737 158 738 c 0
 268 751 378 758 489 758 c 0
 608 758 727 750 845 736 c 0
 854 735 861 726 860 717 c 0
 859 708 850 701 841 702 c 0
 725 716 606 724 489 724 c 0
 380 724 270 717 162 704 c 0
 153 703 144 710 143 719 c 0
949 1342 m 0
 951 1333 945 1323 936 1321 c 0
 800 1289 625 1278 466 1278 c 0
 388 1278 309 1281 233 1285 c 1
 260 1051 266 846 266 583 c 0
 266 377 254 177 234 -2 c 0
 233 -11 224 -18 215 -17 c 0
 206 -16 199 -7 200 2 c 0
 220 179 230 379 230 583 c 0
 230 853 225 1062 196 1302 c 0
 195 1309 201 1322 214 1321 c 0
 297 1316 381 1314 466 1314 c 0
 623 1314 796 1325 928 1355 c 0
 937 1357 947 1351 949 1342 c 0
EndSplineSet
EndChar

StartChar: G
Encoding: 71 71 19
GlifName: G_
Width: 1349
Flags: HMW
LayerCount: 2
Fore
SplineSet
630 649 m 0
 630 659 638 666 648 666 c 2
 1184 666 l 2
 1194 666 1200 658 1201 650 c 0
 1204 611 1206 574 1206 537 c 0
 1206 228 1091 -2 716 -2 c 0
 398 -2 142 204 142 639 c 0
 142 1033 338 1364 763 1364 c 0
 865 1364 967 1330 1048 1270 c 0
 1056 1264 1057 1254 1051 1246 c 0
 1045 1238 1035 1236 1027 1242 c 0
 952 1298 857 1328 763 1328 c 0
 363 1328 178 1023 178 639 c 0
 178 220 416 32 716 32 c 0
 1105 32 1189 281 1168 632 c 1
 648 632 l 2
 638 632 630 639 630 649 c 0
EndSplineSet
EndChar

StartChar: H
Encoding: 72 72 20
GlifName: H_
Width: 1319
Flags: HMW
LayerCount: 2
Fore
SplineSet
1006 1333 m 0
 1016 1333 1024 1327 1024 1317 c 2
 1083 -20 l 2
 1083 -30 1077 -38 1067 -38 c 0
 1057 -38 1049 -32 1049 -22 c 2
 990 1315 l 2
 990 1325 996 1333 1006 1333 c 0
1136 653 m 0
 1136 643 1128 637 1118 637 c 0
 853 649 429 658 200 658 c 0
 190 658 183 666 183 676 c 0
 183 686 190 694 200 694 c 0
 430 694 855 683 1120 671 c 0
 1130 671 1136 663 1136 653 c 0
272 1333 m 0
 282 1333 289 1326 289 1316 c 0
 285 873 269 425 226 -2 c 0
 225 -11 215 -18 206 -17 c 0
 197 -16 190 -7 191 2 c 0
 234 427 251 873 255 1316 c 0
 255 1326 262 1333 272 1333 c 0
EndSplineSet
EndChar

StartChar: I
Encoding: 73 73 21
GlifName: I_
Width: 435
Flags: HMW
LayerCount: 2
Fore
SplineSet
200 -17 m 0
 190 -17 183 -10 183 0 c 2
 218 1361 l 2
 218 1371 225 1378 235 1378 c 0
 245 1378 252 1371 252 1361 c 2
 217 -0 l 2
 217 -10 210 -17 200 -17 c 0
EndSplineSet
EndChar

StartChar: J
Encoding: 74 74 22
GlifName: J_
Width: 680
Flags: HMW
LayerCount: 2
Fore
SplineSet
156 1317 m 0
 156 1327 163 1334 173 1334 c 2
 550 1334 l 2
 560 1334 568 1327 568 1317 c 0
 568 1307 560 1300 550 1300 c 2
 173 1300 l 2
 163 1300 156 1307 156 1317 c 0
408 1332 m 0
 417 1333 426 1326 427 1317 c 0
 472 975 492 667 492 300 c 0
 492 118 428 -2 233 -2 c 0
 209 -2 183 -1 159 1 c 0
 150 2 142 10 143 19 c 0
 144 28 153 36 162 35 c 0
 185 33 209 32 233 32 c 0
 406 32 458 126 458 300 c 0
 458 665 438 973 393 1313 c 0
 392 1322 399 1331 408 1332 c 0
EndSplineSet
EndChar

StartChar: K
Encoding: 75 75 23
GlifName: K_
Width: 1217
Flags: HMW
LayerCount: 2
Fore
SplineSet
200 -17 m 0
 190 -17 183 -10 183 0 c 2
 218 1360 l 2
 218 1370 225 1377 235 1377 c 0
 245 1377 252 1370 252 1360 c 2
 217 -0 l 2
 217 -10 210 -17 200 -17 c 0
996 1375 m 0
 1004 1369 1006 1359 1000 1351 c 0
 799 1080 504 872 230 715 c 1
 445 454 778 202 1067 15 c 0
 1075 10 1077 -1 1072 -9 c 0
 1067 -17 1056 -20 1048 -15 c 0
 751 177 407 438 189 709 c 0
 184 716 184 729 194 735 c 0
 471 892 771 1100 972 1371 c 0
 978 1379 988 1381 996 1375 c 0
EndSplineSet
EndChar

StartChar: L
Encoding: 76 76 24
GlifName: L_
Width: 1166
Flags: HMW
LayerCount: 2
Fore
SplineSet
217 1333 m 0
 227 1334 234 1327 235 1317 c 0
 246 1150 252 988 252 830 c 0
 252 572 238 320 219 62 c 1
 1006 39 l 2
 1016 39 1023 32 1023 22 c 0
 1023 12 1016 5 1006 5 c 2
 200 28 l 2
 191 28 182 36 183 46 c 0
 203 310 216 567 216 830 c 0
 216 988 212 1148 201 1315 c 0
 200 1325 207 1332 217 1333 c 0
EndSplineSet
EndChar

StartChar: M
Encoding: 77 77 25
GlifName: M_
Width: 1599
Flags: HMW
LayerCount: 2
Fore
SplineSet
188 -17 m 0
 179 -16 172 -7 173 2 c 2
 310 1302 l 2
 311 1312 320 1319 330 1317 c 0
 337 1316 343 1310 344 1305 c 0
 408 1070 549 766 653 586 c 0
 709 490 753 446 787 446 c 0
 818 446 859 480 912 570 c 0
 1033 773 1175 1128 1213 1319 c 0
 1215 1329 1225 1336 1235 1333 c 0
 1243 1331 1247 1323 1247 1317 c 0
 1265 803 1322 460 1426 16 c 0
 1428 7 1422 -3 1413 -5 c 0
 1404 -7 1394 -1 1392 8 c 0
 1296 418 1240 743 1218 1196 c 1
 1159 996 1044 723 942 552 c 0
 889 462 842 412 787 412 c 0
 727 412 677 474 623 568 c 0
 529 730 407 988 335 1212 c 1
 207 -2 l 2
 206 -11 197 -18 188 -17 c 0
EndSplineSet
EndChar

StartChar: N
Encoding: 78 78 26
GlifName: N_
Width: 1307
Flags: HMW
LayerCount: 2
Fore
SplineSet
199 -17 m 0
 189 -17 183 -9 183 1 c 0
 205 446 222 863 228 1316 c 0
 228 1326 237 1334 247 1333 c 0
 252 1333 257 1330 259 1327 c 0
 563 928 837 494 1075 70 c 1
 1090 1361 l 2
 1090 1371 1097 1378 1107 1378 c 0
 1117 1378 1124 1371 1124 1361 c 2
 1109 4 l 2
 1109 -1 1107 -8 1102 -11 c 0
 1094 -17 1082 -13 1077 -4 c 0
 839 424 566 861 262 1265 c 1
 255 832 238 427 217 -1 c 0
 217 -11 209 -17 199 -17 c 0
EndSplineSet
EndChar

StartChar: O
Encoding: 79 79 27
GlifName: O_
Width: 1485
Flags: HMW
LayerCount: 2
Fore
SplineSet
713 32 m 0
 1051 32 1308 304 1308 684 c 0
 1308 1023 1111 1328 799 1328 c 0
 440 1328 178 992 178 613 c 0
 178 267 403 32 713 32 c 0
713 -2 m 0
 383 -2 142 251 142 613 c 0
 142 1006 416 1364 799 1364 c 0
 1139 1364 1342 1033 1342 684 c 0
 1342 288 1073 -2 713 -2 c 0
EndSplineSet
EndChar

StartChar: P
Encoding: 80 80 28
GlifName: P_
Width: 1269
Flags: HMW
LayerCount: 2
Fore
SplineSet
148 1154 m 0
 141 1160 141 1172 147 1179 c 0
 245 1291 458 1364 636 1364 c 0
 915 1364 1126 1140 1126 862 c 0
 1126 577 832 392 560 392 c 0
 488 392 342 403 271 431 c 0
 262 434 258 444 261 453 c 0
 264 462 275 466 284 463 c 0
 345 439 492 426 560 426 c 0
 820 426 1092 605 1092 862 c 0
 1092 1122 895 1328 636 1328 c 0
 466 1328 261 1255 173 1155 c 0
 167 1148 155 1148 148 1154 c 0
348 1256 m 0
 358 1255 365 1248 364 1238 c 2
 275 -1 l 2
 274 -11 267 -18 257 -17 c 0
 247 -16 240 -9 241 1 c 2
 330 1240 l 2
 331 1250 338 1257 348 1256 c 0
EndSplineSet
EndChar

StartChar: Q
Encoding: 81 81 29
GlifName: Q_
Width: 1485
Flags: HMW
LayerCount: 2
Fore
SplineSet
873 453 m 0
 881 459 891 457 897 449 c 0
 1030 266 1150 127 1320 -22 c 0
 1327 -28 1327 -40 1321 -47 c 0
 1315 -54 1304 -54 1297 -48 c 0
 1125 103 1002 244 869 429 c 0
 863 437 865 447 873 453 c 0
EndSplineSet
Refer: 27 79 N 1 0 0 1 0 0 2
EndChar

StartChar: R
Encoding: 82 82 30
GlifName: R_
Width: 1270
Flags: HMW
LayerCount: 2
Fore
SplineSet
148 1154 m 0
 141 1160 141 1172 147 1179 c 0
 245 1290 444 1364 622 1364 c 0
 902 1364 1094 1139 1094 862 c 0
 1094 597 847 390 560 390 c 0
 463 390 361 414 262 468 c 0
 254 473 250 483 255 491 c 0
 260 499 271 503 279 498 c 0
 372 446 469 424 560 424 c 0
 831 424 1060 621 1060 862 c 0
 1060 1123 880 1328 622 1328 c 0
 452 1328 261 1256 173 1155 c 0
 167 1148 155 1148 148 1154 c 0
255 492 m 0
 260 500 271 503 279 498 c 2
 1119 15 l 2
 1127 10 1130 -1 1125 -9 c 0
 1120 -17 1109 -20 1101 -15 c 2
 261 468 l 2
 253 473 250 484 255 492 c 0
354 1261 m 0
 364 1260 371 1253 370 1243 c 2
 299 -1 l 2
 298 -11 291 -18 281 -17 c 0
 271 -16 264 -9 265 1 c 2
 336 1245 l 2
 337 1255 344 1262 354 1261 c 0
EndSplineSet
EndChar

StartChar: S
Encoding: 83 83 31
GlifName: S_
Width: 1182
Flags: HMW
LayerCount: 2
Fore
SplineSet
976 1251 m 0
 971 1243 960 1240 952 1245 c 0
 853 1300 737 1328 619 1328 c 0
 389 1328 182 1201 182 996 c 0
 182 810 374 748 587 683 c 0
 801 618 1040 547 1040 343 c 0
 1040 109 808 -2 578 -2 c 0
 419 -2 257 35 152 93 c 0
 144 98 140 108 145 116 c 0
 150 124 161 128 169 123 c 0
 266 69 425 32 578 32 c 0
 802 32 1004 139 1004 343 c 0
 1004 513 799 582 577 649 c 0
 371 711 148 778 148 996 c 0
 148 1229 379 1364 619 1364 c 0
 743 1364 865 1334 970 1275 c 0
 978 1270 981 1259 976 1251 c 0
EndSplineSet
EndChar

StartChar: T
Encoding: 84 84 32
GlifName: T_
Width: 1423
Flags: HMW
LayerCount: 2
Fore
SplineSet
709 -14 m 0
 699 -14 691 -8 691 2 c 0
 685 185 680 368 680 551 c 0
 680 803 687 1048 699 1296 c 0
 699 1306 707 1312 717 1312 c 0
 727 1312 734 1304 734 1294 c 0
 722 1046 716 803 716 551 c 0
 716 368 719 187 725 4 c 0
 725 -6 719 -14 709 -14 c 0
143 1316 m 0
 143 1326 150 1333 160 1333 c 2
 1263 1314 l 2
 1273 1314 1280 1307 1280 1297 c 0
 1280 1287 1273 1280 1263 1280 c 2
 160 1299 l 2
 150 1299 143 1306 143 1316 c 0
EndSplineSet
EndChar

StartChar: U
Encoding: 85 85 33
GlifName: U_
Width: 1310
Flags: HMW
LayerCount: 2
Fore
SplineSet
278 1351 m 0
 287 1349 293 1339 291 1330 c 0
 249 1138 218 949 218 734 c 0
 218 368 290 32 631 32 c 0
 1058 32 1092 661 1092 1095 c 0
 1092 1183 1089 1273 1085 1360 c 0
 1085 1370 1091 1378 1101 1378 c 0
 1111 1378 1120 1372 1120 1362 c 0
 1124 1275 1128 1185 1128 1095 c 0
 1128 675 1102 -2 631 -2 c 0
 254 -2 182 372 182 734 c 0
 182 953 215 1144 257 1338 c 0
 259 1347 269 1353 278 1351 c 0
EndSplineSet
EndChar

StartChar: V
Encoding: 86 86 34
GlifName: V_
Width: 1368
Flags: HMW
LayerCount: 2
Fore
SplineSet
154 1333 m 0
 163 1336 174 1331 177 1322 c 2
 603 91 l 1
 1192 1324 l 2
 1196 1333 1207 1336 1216 1332 c 0
 1225 1328 1228 1317 1224 1308 c 2
 616 37 l 2
 615 34 611 31 607 29 c 0
 598 25 586 29 583 39 c 2
 143 1310 l 2
 140 1319 145 1330 154 1333 c 0
EndSplineSet
EndChar

StartChar: W
Encoding: 87 87 35
GlifName: W_
Width: 2006
Flags: HMW
LayerCount: 2
Fore
SplineSet
155 1366 m 0
 164 1369 174 1363 177 1354 c 2
 556 97 l 1
 1014 1186 l 2
 1018 1195 1029 1200 1038 1195 c 0
 1042 1193 1046 1189 1047 1185 c 2
 1415 99 l 1
 1829 1322 l 2
 1832 1331 1843 1336 1852 1333 c 0
 1861 1330 1866 1319 1863 1310 c 2
 1432 39 l 2
 1431 35 1427 31 1422 29 c 0
 1413 25 1401 29 1398 39 c 2
 1028 1130 l 1
 569 38 l 2
 567 34 563 31 559 29 c 0
 550 25 539 30 536 40 c 2
 143 1344 l 2
 140 1353 146 1363 155 1366 c 0
EndSplineSet
EndChar

StartChar: X
Encoding: 88 88 36
GlifName: X_
Width: 1267
Flags: HMW
LayerCount: 2
Fore
SplineSet
150 -14 m 0
 142 -9 141 2 146 10 c 2
 1056 1348 l 2
 1061 1356 1072 1357 1080 1352 c 0
 1088 1347 1089 1336 1084 1328 c 2
 174 -10 l 2
 169 -18 158 -19 150 -14 c 0
193 1291 m 0
 201 1296 212 1295 217 1287 c 2
 1121 6 l 2
 1126 -2 1125 -13 1117 -18 c 0
 1109 -23 1098 -22 1093 -14 c 2
 189 1267 l 2
 184 1275 185 1286 193 1291 c 0
EndSplineSet
EndChar

StartChar: Y
Encoding: 89 89 37
GlifName: Y_
Width: 1267
Flags: HMW
LayerCount: 2
Fore
SplineSet
150 1301 m 0
 158 1307 168 1305 174 1297 c 2
 625 664 l 1
 1093 1348 l 2
 1098 1356 1109 1357 1117 1352 c 0
 1125 1347 1126 1336 1121 1328 c 2
 639 623 l 2
 638 622 637 621 636 620 c 0
 628 614 617 615 611 623 c 2
 146 1277 l 2
 140 1285 142 1295 150 1301 c 0
636 -17 m 0
 626 -17 619 -10 619 -0 c 2
 608 633 l 2
 608 643 615 650 625 650 c 0
 635 650 642 643 642 633 c 2
 653 0 l 2
 653 -10 646 -17 636 -17 c 0
EndSplineSet
EndChar

StartChar: Z
Encoding: 90 90 38
GlifName: Z_
Width: 1422
Flags: HMW
LayerCount: 2
Fore
SplineSet
143 1266 m 0
 141 1275 147 1285 156 1287 c 0
 456 1362 932 1373 1178 1311 c 0
 1193 1308 1195 1291 1186 1282 c 0
 812 907 491 476 240 68 c 1
 572 104 902 122 1262 122 c 0
 1272 122 1280 114 1280 104 c 0
 1280 94 1272 86 1262 86 c 0
 891 86 550 68 208 30 c 0
 193 28 184 43 191 56 c 0
 442 468 762 901 1139 1284 c 1
 895 1336 445 1323 164 1253 c 0
 155 1251 145 1257 143 1266 c 0
EndSplineSet
EndChar

StartChar: zero
Encoding: 48 48 39
GlifName: zero
Width: 1141
Flags: HMW
LayerCount: 2
Fore
SplineSet
178 486 m 0
 178 243 269 32 510 32 c 0
 874 32 964 470 964 843 c 0
 964 1094 821 1328 580 1328 c 0
 257 1328 178 820 178 486 c 0
142 486 m 0
 142 810 215 1364 580 1364 c 0
 849 1364 998 1104 998 843 c 0
 998 474 912 -2 510 -2 c 0
 239 -2 142 239 142 486 c 0
EndSplineSet
EndChar

StartChar: one
Encoding: 49 49 40
GlifName: one
Width: 715
Flags: HMW
LayerCount: 2
Fore
SplineSet
506 -17 m 0
 496 -17 489 -10 489 0 c 2
 498 1316 l 2
 498 1326 505 1333 515 1333 c 0
 525 1333 532 1326 532 1316 c 2
 523 -0 l 2
 523 -10 516 -17 506 -17 c 0
527 1329 m 0
 534 1323 534 1311 528 1304 c 0
 424 1191 305 1099 168 1032 c 0
 159 1028 148 1031 144 1040 c 0
 140 1049 143 1060 152 1064 c 0
 285 1129 401 1218 502 1328 c 0
 508 1335 520 1335 527 1329 c 0
EndSplineSet
EndChar

StartChar: two
Encoding: 50 50 41
GlifName: two
Width: 1171
Flags: HMW
LayerCount: 2
Fore
SplineSet
208 886 m 0
 198 886 190 894 190 904 c 0
 190 1144 354 1364 609 1364 c 0
 834 1364 970 1193 970 1021 c 0
 970 797 780 587 549 376 c 2
 211 67 l 1
 350 79 485 84 626 84 c 0
 752 84 882 79 1012 73 c 0
 1022 73 1029 65 1029 55 c 0
 1029 45 1020 39 1010 39 c 0
 880 45 752 50 626 50 c 0
 468 50 316 44 162 28 c 0
 157 28 152 29 148 32 c 0
 141 39 141 51 148 58 c 2
 525 402 l 2
 756 613 936 817 936 1021 c 0
 936 1175 814 1328 609 1328 c 0
 378 1328 226 1130 226 904 c 0
 226 894 218 886 208 886 c 0
EndSplineSet
EndChar

StartChar: three
Encoding: 51 51 42
GlifName: three
Width: 1078
Flags: HMW
LayerCount: 2
Fore
SplineSet
221 1050 m 0
 212 1052 206 1062 208 1071 c 0
 249 1253 396 1364 581 1364 c 0
 740 1364 888 1254 888 1008 c 0
 888 760 592 686 363 654 c 0
 354 653 345 660 344 669 c 0
 343 678 350 687 359 688 c 0
 594 720 852 796 852 1008 c 0
 852 1238 722 1328 581 1328 c 0
 410 1328 279 1229 242 1063 c 0
 240 1054 230 1048 221 1050 c 0
147 137 m 0
 153 144 164 146 171 140 c 0
 257 69 372 32 484 32 c 0
 712 32 900 200 901 412 c 1
 894 608 737 672 531 672 c 0
 473 672 415 663 364 654 c 0
 355 652 346 659 344 668 c 0
 342 677 349 686 358 688 c 0
 409 697 469 708 531 708 c 0
 741 708 929 638 936 412 c 1
 936 178 729 -2 484 -2 c 0
 364 -2 242 35 149 112 c 0
 142 118 141 130 147 137 c 0
EndSplineSet
EndChar

StartChar: four
Encoding: 52 52 43
GlifName: four
Width: 1268
Flags: HMW
LayerCount: 2
Fore
SplineSet
729 1332 m 0
 738 1328 742 1318 738 1309 c 0
 626 1031 345 561 191 345 c 1
 469 311 850 336 1104 398 c 0
 1113 400 1123 394 1125 385 c 0
 1127 376 1121 366 1112 364 c 0
 843 299 444 274 158 315 c 0
 156 315 153 316 151 317 c 0
 142 322 140 334 146 342 c 0
 295 543 591 1039 706 1323 c 0
 710 1332 720 1336 729 1332 c 0
806 698 m 0
 815 697 822 688 821 679 c 2
 745 -2 l 2
 744 -11 735 -18 726 -17 c 0
 717 -16 710 -7 711 2 c 2
 787 683 l 2
 788 692 797 699 806 698 c 0
EndSplineSet
EndChar

StartChar: five
Encoding: 53 53 44
GlifName: five
Width: 1113
Flags: HMW
LayerCount: 2
Fore
SplineSet
960 1341 m 0
 962 1332 956 1322 947 1320 c 0
 879 1305 771 1298 637 1298 c 0
 501 1298 360 1305 271 1320 c 1
 221 814 l 1
 312 882 417 914 518 914 c 0
 748 914 970 798 970 470 c 0
 970 169 748 -2 496 -2 c 0
 374 -2 250 37 149 118 c 0
 142 124 140 136 146 143 c 0
 152 150 164 152 171 146 c 0
 266 71 382 32 496 32 c 0
 732 32 936 189 936 470 c 0
 936 776 736 878 518 878 c 0
 412 878 301 841 211 761 c 0
 208 759 204 757 199 757 c 0
 189 757 181 766 182 776 c 2
 238 1343 l 2
 239 1352 247 1360 258 1358 c 0
 340 1342 493 1334 637 1334 c 0
 769 1334 875 1341 939 1354 c 0
 948 1356 958 1350 960 1341 c 0
EndSplineSet
EndChar

StartChar: six
Encoding: 54 54 45
GlifName: six
Width: 1099
Flags: HMW
LayerCount: 2
Fore
SplineSet
548 32 m 0
 766 32 926 204 922 417 c 0
 917 677 752 794 576 794 c 0
 400 794 230 671 185 597 c 0
 180 589 169 586 161 591 c 0
 153 596 150 607 155 615 c 0
 208 701 386 828 576 828 c 0
 770 828 951 695 956 417 c 0
 960 186 786 -2 548 -2 c 0
 268 -2 142 213 142 475 c 0
 142 913 236 1334 619 1334 c 0
 687 1334 764 1323 849 1298 c 0
 858 1295 864 1285 861 1276 c 0
 858 1267 848 1261 839 1264 c 0
 756 1289 683 1300 619 1300 c 0
 274 1300 178 917 178 475 c 0
 178 223 292 32 548 32 c 0
EndSplineSet
EndChar

StartChar: eight
Encoding: 56 56 46
GlifName: eight
Width: 1079
Flags: HMW
LayerCount: 2
Fore
SplineSet
459 670 m 0
 624 604 824 480 824 295 c 0
 824 128 676 -2 488 -2 c 0
 296 -2 146 130 146 324 c 0
 146 645 629 1028 912 1151 c 0
 921 1155 931 1151 935 1142 c 0
 939 1133 935 1123 926 1119 c 0
 647 998 182 617 182 324 c 0
 182 150 312 32 488 32 c 0
 660 32 788 150 788 295 c 0
 788 452 612 572 447 638 c 0
 316 690 142 838 142 1024 c 0
 142 1213 288 1364 523 1364 c 0
 713 1364 835 1237 912 1035 c 0
 915 1026 911 1016 902 1013 c 0
 893 1010 883 1014 880 1023 c 0
 805 1219 693 1328 523 1328 c 0
 304 1328 178 1193 178 1024 c 0
 178 860 336 719 459 670 c 0
EndSplineSet
EndChar

StartChar: period
Encoding: 46 46 47
GlifName: period
Width: 478
Flags: HMW
LayerCount: 2
Fore
SplineSet
152 87 m 0
 152 114 172 138 206 138 c 0
 235 138 248 111 248 94 c 0
 248 60 229 36 201 36 c 0
 167 36 152 69 152 87 c 0
EndSplineSet
EndChar

StartChar: comma
Encoding: 44 44 49
GlifName: comma
Width: 478
Flags: HMW
LayerCount: 2
Fore
SplineSet
103 -222 m 0
 95 -217 92 -206 97 -198 c 2
 327 198 l 2
 332 206 343 209 351 204 c 0
 359 199 362 188 357 180 c 2
 127 -216 l 2
 122 -224 111 -227 103 -222 c 0
EndSplineSet
EndChar

StartChar: bracketleft
Encoding: 91 91 51
GlifName: bracketleft
Width: 715
Flags: HMW
LayerCount: 2
Fore
SplineSet
532 1322 m 0
 533 1312 526 1305 516 1304 c 0
 465 1300 414 1298 361 1298 c 0
 315 1298 269 1299 224 1302 c 1
 236 1191 242 1082 242 972 c 0
 242 828 233 686 225 548 c 0
 217 417 218 389 218 266 c 0
 218 94 311 71 511 62 c 0
 521 62 528 54 528 44 c 0
 528 34 519 28 509 28 c 0
 310 37 182 66 182 266 c 0
 182 389 183 419 191 550 c 0
 199 688 206 830 206 972 c 0
 206 1087 201 1203 187 1319 c 0
 186 1327 192 1339 205 1338 c 0
 257 1334 308 1334 361 1334 c 0
 414 1334 465 1334 514 1338 c 0
 524 1339 531 1332 532 1322 c 0
EndSplineSet
EndChar

StartChar: bracketright
Encoding: 93 93 52
GlifName: bracketright
Width: 726
Flags: HMW
LayerCount: 2
Fore
SplineSet
183 1346 m 0
 184 1355 194 1361 203 1360 c 0
 297 1345 404 1335 510 1333 c 0
 521 1333 529 1322 527 1312 c 0
 491 1148 490 1063 490 875 c 0
 490 778 501 681 516 582 c 0
 531 483 544 382 544 285 c 0
 544 72 390 28 207 28 c 0
 197 28 190 35 190 45 c 0
 190 55 197 62 207 62 c 0
 388 62 508 100 508 285 c 0
 508 380 497 477 482 576 c 0
 467 675 454 776 454 875 c 0
 454 1055 456 1145 488 1299 c 1
 388 1302 286 1312 197 1326 c 0
 188 1327 182 1337 183 1346 c 0
EndSplineSet
PairPos2: "'kern' Horizontal Kerning in Arabic lookup 2 per glyph data 0" uni0622 dx=300 dy=0 dh=300 dv=0 dx=0 dy=0 dh=0 dv=0
EndChar

StartChar: braceleft
Encoding: 123 123 53
GlifName: braceleft
Width: 695
Flags: HMW
LayerCount: 2
Fore
SplineSet
82 752 m 0
 82 762 90 770 100 770 c 0
 439 770 74 1428 495 1428 c 0
 505 1428 513 1421 513 1411 c 0
 513 1401 505 1394 495 1394 c 0
 125 1394 492 734 100 734 c 0
 90 734 82 742 82 752 c 0
512 93 m 0
 512 83 505 76 495 76 c 0
 78 76 436 734 100 734 c 0
 90 734 83 742 83 752 c 0
 83 762 90 770 100 770 c 0
 489 770 128 110 495 110 c 0
 505 110 512 103 512 93 c 0
EndSplineSet
EndChar

StartChar: braceright
Encoding: 125 125 54
GlifName: braceright
Width: 695
Flags: HMW
LayerCount: 2
Fore
SplineSet
182 1411 m 0
 182 1421 190 1428 200 1428 c 0
 617 1428 259 770 595 770 c 0
 605 770 613 762 613 752 c 0
 613 742 605 734 595 734 c 0
 206 734 567 1394 200 1394 c 0
 190 1394 182 1401 182 1411 c 0
612 752 m 0
 612 742 605 734 595 734 c 0
 256 734 620 76 200 76 c 0
 190 76 183 83 183 93 c 0
 183 103 190 110 200 110 c 0
 570 110 203 770 595 770 c 0
 605 770 612 762 612 752 c 0
EndSplineSet
PairPos2: "'kern' Horizontal Kerning in Arabic lookup 2 per glyph data 0" uni0622 dx=300 dy=0 dh=300 dv=0 dx=0 dy=0 dh=0 dv=0
EndChar

StartChar: grave
Encoding: 96 96 55
GlifName: grave
Width: 539
Flags: HMW
LayerCount: 2
Fore
SplineSet
169 1496 m 0
 176 1502 188 1500 194 1493 c 0
 255 1416 328 1279 375 1176 c 0
 379 1167 375 1157 366 1153 c 0
 357 1149 347 1153 343 1162 c 0
 297 1263 223 1398 166 1471 c 0
 160 1478 162 1490 169 1496 c 0
EndSplineSet
EndChar

StartChar: bar
Encoding: 124 124 56
GlifName: bar
Width: 417
Flags: HMW
LayerCount: 2
Fore
SplineSet
217 1476 m 0
 227 1476 234 1469 234 1459 c 0
 234 1040 225 367 218 -0 c 0
 218 -10 210 -17 200 -17 c 0
 190 -17 183 -10 183 0 c 0
 190 367 200 1040 200 1459 c 0
 200 1469 207 1476 217 1476 c 0
EndSplineSet
EndChar

StartChar: asciicircum
Encoding: 94 94 57
GlifName: asciicircum
Width: 718
Flags: HMW
LayerCount: 2
Fore
SplineSet
171 1154 m 0
 163 1159 160 1170 165 1178 c 2
 331 1447 l 2
 338 1460 354 1457 360 1449 c 2
 552 1208 l 2
 558 1201 556 1189 549 1183 c 0
 542 1177 530 1179 524 1186 c 2
 348 1408 l 1
 195 1160 l 2
 190 1152 179 1149 171 1154 c 0
EndSplineSet
EndChar

StartChar: hyphen
Encoding: 45 45 58
GlifName: hyphen
Width: 1037
Flags: HMW
LayerCount: 2
Fore
SplineSet
143 435 m 0
 142 444 149 453 158 454 c 0
 412 476 632 478 877 478 c 0
 887 478 895 471 895 461 c 0
 895 451 887 444 877 444 c 0
 632 444 414 442 162 420 c 0
 153 419 144 426 143 435 c 0
EndSplineSet
EndChar

StartChar: plus
Encoding: 43 43 59
GlifName: plus
Width: 1033
Flags: HMW
LayerCount: 2
Fore
SplineSet
463 1070 m 0
 472 1072 482 1066 484 1057 c 0
 516 913 534 723 534 566 c 0
 534 449 525 348 504 287 c 0
 501 278 490 273 481 276 c 0
 472 279 468 290 471 299 c 0
 490 352 498 451 498 566 c 0
 498 721 482 909 450 1049 c 0
 448 1058 454 1068 463 1070 c 0
143 639 m 0
 142 648 149 657 158 658 c 0
 316 677 465 684 618 684 c 0
 702 684 788 682 874 678 c 0
 884 678 891 670 891 660 c 0
 891 650 882 644 872 644 c 0
 786 648 702 650 618 650 c 0
 467 650 318 643 162 624 c 0
 153 623 144 630 143 639 c 0
EndSplineSet
EndChar

StartChar: exclam
Encoding: 33 33 60
GlifName: exclam
Width: 583
Flags: HMW
LayerCount: 2
Fore
SplineSet
248 1378 m 0
 257 1379 266 1372 267 1363 c 0
 303 1098 312 836 312 547 c 0
 312 508 312 466 311 424 c 0
 311 414 303 407 293 407 c 0
 283 407 276 414 276 424 c 0
 277 466 278 508 278 547 c 0
 278 836 269 1096 233 1359 c 0
 232 1368 239 1377 248 1378 c 0
350 85 m 0
 350 55 334 28 298 28 c 0
 268 28 232 45 232 84 c 0
 232 118 259 146 294 146 c 0
 330 146 350 117 350 85 c 0
EndSplineSet
EndChar

StartChar: quotesingle
Encoding: 39 39 62
GlifName: quotesingle
Width: 331
Flags: HMW
LayerCount: 2
Fore
SplineSet
158 893 m 0
 149 894 142 903 143 912 c 0
 150 975 154 1050 154 1126 c 0
 154 1204 150 1286 143 1359 c 0
 142 1368 149 1377 158 1378 c 0
 167 1379 177 1372 178 1363 c 0
 185 1288 188 1206 188 1126 c 0
 188 1048 184 973 177 908 c 0
 176 899 167 892 158 893 c 0
EndSplineSet
EndChar

StartChar: parenleft
Encoding: 40 40 63
GlifName: parenleft
Width: 606
Flags: HMW
LayerCount: 2
Fore
SplineSet
368 1428 m 0
 377 1424 380 1413 376 1404 c 0
 249 1143 218 966 218 682 c 0
 218 401 294 225 422 -38 c 0
 426 -47 423 -58 414 -62 c 0
 405 -66 394 -63 390 -54 c 0
 262 209 182 393 182 682 c 0
 182 968 215 1155 344 1420 c 0
 348 1429 359 1432 368 1428 c 0
EndSplineSet
EndChar

StartChar: parenright
Encoding: 41 41 64
GlifName: parenright
Width: 606
Flags: HMW
LayerCount: 2
Fore
SplineSet
238 -62 m 0
 229 -58 226 -47 230 -38 c 0
 357 223 388 400 388 684 c 0
 388 965 312 1141 184 1404 c 0
 180 1413 183 1424 192 1428 c 0
 201 1432 212 1429 216 1420 c 0
 344 1157 424 973 424 684 c 0
 424 398 391 211 262 -54 c 0
 258 -63 247 -66 238 -62 c 0
EndSplineSet
PairPos2: "'kern' Horizontal Kerning in Arabic lookup 2 per glyph data 0" uni0622 dx=320 dy=0 dh=320 dv=0 dx=0 dy=0 dh=0 dv=0
EndChar

StartChar: less
Encoding: 60 60 65
GlifName: less
Width: 645
Flags: HMW
LayerCount: 2
Fore
SplineSet
494 398 m 0
 486 393 475 396 470 404 c 0
 397 524 309 628 208 716 c 0
 199 724 202 737 209 742 c 0
 310 826 398 928 470 1054 c 0
 475 1062 486 1065 494 1060 c 0
 502 1055 505 1044 500 1036 c 0
 429 913 345 814 247 729 c 1
 343 642 429 539 500 422 c 0
 505 414 502 403 494 398 c 0
EndSplineSet
EndChar

StartChar: backslash
Encoding: 92 92 66
GlifName: backslash
Width: 1105
Flags: HMW
LayerCount: 2
Fore
SplineSet
170 1330 m 0
 178 1336 188 1334 194 1326 c 0
 507 905 750 553 942 6 c 0
 945 -3 940 -14 931 -17 c 0
 922 -20 912 -15 909 -6 c 0
 719 537 479 885 166 1306 c 0
 160 1314 162 1324 170 1330 c 0
EndSplineSet
EndChar

StartChar: asterisk
Encoding: 42 42 67
GlifName: asterisk
Width: 1108
Flags: HMW
LayerCount: 2
Fore
SplineSet
921 659 m 0
 915 652 903 650 896 656 c 0
 783 749 665 830 545 900 c 0
 420 973 289 1034 154 1085 c 0
 145 1088 141 1098 144 1107 c 0
 147 1116 157 1120 166 1117 c 0
 303 1066 436 1005 563 930 c 0
 685 860 803 779 918 684 c 0
 925 678 927 666 921 659 c 0
186 659 m 0
 180 666 182 678 189 684 c 0
 304 779 423 860 545 930 c 0
 672 1005 805 1066 942 1117 c 0
 951 1120 961 1116 964 1107 c 0
 967 1098 963 1088 954 1085 c 0
 819 1034 688 973 563 900 c 0
 443 830 324 749 211 656 c 0
 204 650 192 652 186 659 c 0
514 1362 m 0
 523 1364 532 1357 534 1348 c 0
 560 1200 572 1056 572 915 c 0
 572 767 558 623 534 479 c 0
 532 470 523 463 514 465 c 0
 505 467 498 476 500 485 c 0
 524 627 536 769 536 915 c 0
 536 1054 526 1196 500 1342 c 0
 498 1351 505 1360 514 1362 c 0
EndSplineSet
EndChar

StartChar: numbersign
Encoding: 35 35 68
GlifName: numbersign
Width: 1734
Flags: HMW
LayerCount: 2
Fore
SplineSet
143 497 m 0
 143 507 151 513 161 513 c 2
 1511 462 l 2
 1521 462 1527 454 1527 444 c 0
 1527 434 1519 428 1509 428 c 2
 159 479 l 2
 149 479 143 487 143 497 c 0
235 921 m 0
 235 931 241 939 251 939 c 2
 1573 978 l 2
 1583 978 1591 972 1591 962 c 0
 1591 952 1585 944 1575 944 c 2
 253 905 l 2
 243 905 235 911 235 921 c 0
1050 -17 m 0
 1041 -15 1034 -6 1036 3 c 2
 1296 1364 l 2
 1298 1373 1307 1380 1316 1378 c 0
 1325 1376 1332 1367 1330 1358 c 2
 1070 -3 l 2
 1068 -12 1059 -19 1050 -17 c 0
383 -17 m 0
 374 -14 368 -4 371 5 c 2
 778 1366 l 2
 781 1375 791 1381 800 1378 c 0
 809 1375 815 1365 812 1356 c 2
 405 -5 l 2
 402 -14 392 -20 383 -17 c 0
EndSplineSet
EndChar

StartChar: slash
Encoding: 47 47 70
GlifName: slash
Width: 965
Flags: HMW
LayerCount: 2
Fore
SplineSet
191 -15 m 0
 183 -10 180 1 185 9 c 0
 455 458 650 897 748 1365 c 0
 750 1374 760 1380 769 1378 c 0
 778 1376 784 1366 782 1357 c 0
 683 885 487 442 215 -9 c 0
 210 -17 199 -20 191 -15 c 0
EndSplineSet
EndChar

StartChar: greater
Encoding: 62 62 71
GlifName: greater
Width: 645
Flags: HMW
LayerCount: 2
Fore
SplineSet
151 1061 m 0
 159 1066 170 1063 175 1055 c 0
 248 935 336 831 437 743 c 0
 446 735 443 722 436 717 c 0
 335 633 247 531 175 405 c 0
 170 397 159 394 151 399 c 0
 143 404 140 415 145 423 c 0
 215 546 301 646 398 730 c 1
 302 817 216 920 145 1037 c 0
 140 1045 143 1056 151 1061 c 0
EndSplineSet
EndChar

StartChar: equal
Encoding: 61 61 72
GlifName: equal
Width: 1037
Flags: HMW
LayerCount: 2
Fore
SplineSet
143 877 m 0
 144 886 153 893 162 892 c 0
 276 882 465 878 557 878 c 0
 667 878 783 884 876 892 c 0
 885 893 894 885 895 876 c 0
 896 867 888 859 879 858 c 0
 785 850 669 844 557 844 c 0
 465 844 274 848 158 858 c 0
 149 859 142 868 143 877 c 0
143 474 m 0
 145 483 154 490 163 488 c 0
 215 478 394 474 498 474 c 0
 604 474 746 478 876 488 c 0
 886 489 894 482 895 472 c 0
 896 462 888 455 878 454 c 0
 747 444 606 438 498 438 c 0
 392 438 217 442 157 454 c 0
 148 456 141 465 143 474 c 0
EndSplineSet
EndChar

StartChar: AE
Encoding: 198 198 75
GlifName: A_E_
Width: 1908
Flags: HMW
LayerCount: 2
Fore
SplineSet
1025 1333 m 0
 1035 1333 1042 1326 1042 1316 c 0
 1043 1259 1044 1191 1044 1119 c 0
 1044 828 1042 451 1000 214 c 0
 997 199 996 184 996 173 c 0
 996 72 1105 25 1247 17 c 0
 1373 9 1474 4 1602 4 c 0
 1644 4 1684 4 1726 5 c 0
 1736 5 1744 -2 1744 -12 c 0
 1744 -22 1737 -29 1727 -29 c 0
 1685 -30 1644 -30 1602 -30 c 0
 1474 -30 1371 -25 1245 -17 c 0
 1105 -9 960 38 960 173 c 0
 960 188 963 205 966 220 c 0
 1006 451 1010 828 1010 1119 c 0
 1010 1191 1009 1259 1008 1316 c 0
 1008 1326 1015 1333 1025 1333 c 0
1765 1378 m 0
 1767 1369 1761 1359 1752 1357 c 0
 1584 1318 1408 1300 1224 1300 c 0
 1156 1300 632 1303 509 1307 c 1
 507 873 443 309 173 -11 c 0
 167 -18 156 -19 149 -13 c 0
 142 -7 141 4 147 11 c 0
 411 323 474 891 474 1325 c 0
 474 1334 483 1343 493 1342 c 0
 567 1338 1153 1334 1224 1334 c 0
 1406 1334 1580 1352 1744 1391 c 0
 1753 1393 1763 1387 1765 1378 c 0
371 691 m 0
 370 701 377 708 387 709 c 0
 548 722 922 728 1119 728 c 0
 1319 728 1517 722 1665 710 c 0
 1675 709 1682 702 1681 692 c 0
 1680 682 1672 675 1662 676 c 0
 1516 688 1319 694 1119 694 c 0
 922 694 548 688 389 675 c 0
 379 674 372 681 371 691 c 0
EndSplineSet
EndChar

StartChar: cedilla
Encoding: 184 184 77
GlifName: cedilla
Width: 717
Flags: HMW
LayerCount: 2
Fore
SplineSet
313 11 m 0
 319 18 331 20 338 14 c 0
 429 -59 574 -228 574 -361 c 0
 574 -455 498 -518 319 -518 c 0
 256 -518 196 -510 155 -498 c 0
 146 -495 140 -485 143 -476 c 0
 146 -467 156 -461 165 -464 c 0
 202 -474 260 -484 319 -484 c 0
 492 -484 540 -427 540 -361 c 0
 540 -250 403 -85 316 -14 c 0
 309 -8 307 4 313 11 c 0
EndSplineSet
EndChar

StartChar: Oslash
Encoding: 216 216 78
GlifName: O_slash
Width: 1494
Flags: HMW
LayerCount: 2
Fore
SplineSet
160 -15 m 0
 152 -10 150 2 155 10 c 0
 506 536 881 929 1322 1329 c 0
 1329 1335 1341 1335 1347 1328 c 0
 1353 1321 1353 1309 1346 1303 c 0
 906 905 534 514 185 -10 c 0
 180 -18 168 -20 160 -15 c 0
EndSplineSet
Refer: 27 79 N 1 0 0 1 0 0 2
EndChar

StartChar: uniE000
Encoding: 57344 57344 223
GlifName: uniE_000
Width: 509
Flags: HMW
LayerCount: 2
Fore
SplineSet
162 141 m 0
 162 162 179 185 212 185 c 0
 241 185 258 167 258 141 c 0
 258 117 248 84 209 84 c 0
 172 84 162 117 162 141 c 0
EndSplineSet
EndChar

StartChar: uniE001
Encoding: 57345 57345 224
GlifName: uniE_001
Width: 660
Flags: HMW
LayerCount: 2
Fore
SplineSet
104 89 m 0
 98 97 100 107 108 113 c 0
 179 165 271 200 380 200 c 0
 477 200 574 173 555 80 c 0
 553 71 543 65 534 67 c 0
 525 69 520 79 521 88 c 0
 530 144 468 166 380 166 c 0
 279 166 193 133 128 85 c 0
 120 79 110 81 104 89 c 0
EndSplineSet
EndChar

StartChar: uniE002
Encoding: 57346 57346 225
GlifName: uniE_002
Width: 696
Flags: HMW
LayerCount: 2
Fore
SplineSet
402 482 m 0
 484 482 566 456 567 371 c 0
 567 265 425 134 326 101 c 0
 315 97 308 104 305 113 c 0
 303 121 305 132 316 135 c 0
 403 164 532 290 532 370 c 0
 532 423 483 446 402 446 c 0
 288 446 135 396 95 367 c 0
 86 360 76 364 71 371 c 0
 66 378 66 388 75 395 c 0
 125 432 280 482 402 482 c 0
EndSplineSet
EndChar

StartChar: uniE003
Encoding: 57347 57347 226
GlifName: uniE_003
Width: 696
Flags: HMW
LayerCount: 2
Fore
SplineSet
465 111 m 0
 457 116 455 128 460 136 c 0
 476 160 486 189 486 230 c 0
 486 326 410 388 308 388 c 0
 218 388 140 318 140 234 c 0
 140 147 188 101 245 49 c 0
 252 43 252 31 246 24 c 0
 240 17 228 17 221 23 c 0
 164 75 104 131 104 234 c 0
 104 340 202 424 308 424 c 0
 424 424 520 348 520 230 c 0
 520 183 510 146 490 116 c 0
 485 108 473 106 465 111 c 0
EndSplineSet
EndChar

StartChar: uniE007
Encoding: 57351 57351 251
GlifName: uniE_007
Width: 1067
Flags: HMW
LayerCount: 2
Fore
SplineSet
152 1405 m 0
 148 1413 151 1424 159 1428 c 2
 753 1745 l 2
 761 1749 772 1746 776 1738 c 0
 780 1730 777 1719 769 1715 c 2
 175 1398 l 2
 167 1394 156 1397 152 1405 c 0
EndSplineSet
EndChar

StartChar: uni0660
Encoding: 1632 1632 275
GlifName: uni0660
Width: 737
Flags: HMW
LayerCount: 2
Fore
SplineSet
178 395 m 0
 178 291 270 198 380 198 c 0
 478 198 560 293 560 404 c 0
 560 506 490 582 392 582 c 0
 274 582 178 497 178 395 c 0
142 395 m 0
 142 521 258 616 392 616 c 0
 510 616 594 522 594 404 c 0
 594 277 502 162 380 162 c 0
 250 162 142 271 142 395 c 0
EndSplineSet
EndChar

StartChar: uni0661
Encoding: 1633 1633 276
GlifName: uni0661
Width: 580
Flags: HMW
LayerCount: 2
Fore
SplineSet
174 1188 m 0
 183 1191 194 1186 197 1177 c 0
 342 754 418 486 418 0 c 0
 418 -10 410 -17 400 -17 c 0
 390 -17 383 -10 383 -0 c 0
 383 482 308 742 163 1165 c 0
 160 1174 165 1185 174 1188 c 0
EndSplineSet
EndChar

StartChar: uni0662
Encoding: 1634 1634 277
GlifName: uni0662
Width: 1014
Flags: HMW
LayerCount: 2
Fore
SplineSet
854 1214 m 0
 864 1214 872 1206 872 1196 c 0
 872 905 785 652 578 652 c 0
 351 652 231 979 164 1159 c 0
 161 1168 165 1178 174 1181 c 0
 183 1184 193 1180 196 1171 c 0
 266 983 385 686 578 686 c 0
 747 686 836 902 836 1196 c 0
 836 1206 844 1214 854 1214 c 0
173 1181 m 0
 182 1185 192 1181 196 1172 c 0
 341 824 469 452 469 0 c 0
 469 -10 461 -17 451 -17 c 0
 441 -17 434 -10 434 -0 c 0
 434 446 308 811 164 1158 c 0
 160 1167 164 1177 173 1181 c 0
EndSplineSet
EndChar

StartChar: uni0663
Encoding: 1635 1635 278
GlifName: uni0663
Width: 1285
Flags: HMW
LayerCount: 2
Fore
SplineSet
1112 1233 m 0
 1121 1234 1129 1226 1130 1217 c 0
 1135 1153 1139 1095 1139 1040 c 0
 1139 811 1088 650 940 650 c 0
 746 650 688 875 688 1166 c 0
 688 1176 695 1183 705 1183 c 0
 715 1183 723 1176 723 1166 c 0
 723 869 784 686 940 686 c 0
 1051 686 1104 807 1104 1040 c 0
 1104 1093 1101 1152 1096 1215 c 0
 1095 1224 1103 1232 1112 1233 c 0
705 1184 m 0
 715 1184 722 1176 722 1166 c 0
 722 877 706 650 509 650 c 0
 350 650 287 798 164 1154 c 0
 161 1163 165 1174 174 1177 c 0
 183 1180 194 1175 197 1166 c 0
 323 802 382 686 509 686 c 0
 664 686 688 865 688 1166 c 0
 688 1176 695 1184 705 1184 c 0
174 1177 m 0
 183 1180 194 1175 197 1166 c 0
 335 767 427 440 427 0 c 0
 427 -10 419 -17 409 -17 c 0
 399 -17 392 -10 392 -0 c 0
 392 434 301 756 163 1154 c 0
 160 1163 165 1174 174 1177 c 0
EndSplineSet
EndChar

StartChar: uni0664
Encoding: 1636 1636 279
GlifName: uni0664
Width: 1037
Flags: HMW
LayerCount: 2
Fore
SplineSet
668 1182 m 0
 668 1172 660 1164 650 1164 c 0
 462 1164 202 1080 202 905 c 0
 202 763 386 629 519 596 c 0
 528 594 534 584 532 575 c 0
 530 566 520 560 511 562 c 0
 372 597 166 735 166 905 c 0
 166 1118 464 1200 650 1200 c 0
 660 1200 668 1192 668 1182 c 0
531 585 m 0
 535 576 530 567 521 563 c 0
 365 502 178 354 178 211 c 0
 178 77 311 32 560 32 c 0
 675 32 791 52 870 86 c 0
 879 90 889 86 893 77 c 0
 897 68 893 58 884 54 c 0
 799 18 679 -2 560 -2 c 0
 317 -2 142 41 142 211 c 0
 142 382 351 532 509 595 c 0
 518 599 527 594 531 585 c 0
EndSplineSet
EndChar

StartChar: uni0665
Encoding: 1637 1637 280
GlifName: uni0665
Width: 1150
Flags: HMW
LayerCount: 2
Fore
SplineSet
583 -2 m 0
 328 -2 142 119 142 348 c 0
 142 638 436 913 603 1049 c 0
 610 1055 622 1053 628 1046 c 0
 634 1039 632 1027 625 1021 c 0
 458 885 178 616 178 348 c 0
 178 145 338 32 583 32 c 0
 813 32 972 129 972 332 c 0
 972 669 566 984 302 1172 c 0
 294 1178 292 1188 298 1196 c 0
 304 1204 314 1206 322 1200 c 0
 584 1014 1008 695 1008 332 c 0
 1008 103 821 -2 583 -2 c 0
EndSplineSet
EndChar

StartChar: uni0666
Encoding: 1638 1638 281
GlifName: uni0666
Width: 1136
Flags: HMW
LayerCount: 2
Fore
SplineSet
143 1153 m 0
 141 1162 148 1171 157 1173 c 0
 242 1187 327 1194 412 1194 c 0
 656 1194 820 1119 820 856 c 0
 820 416 841 289 972 7 c 0
 976 -2 972 -12 963 -16 c 0
 954 -20 944 -16 940 -7 c 0
 807 279 784 416 784 856 c 0
 784 1095 650 1158 412 1158 c 0
 329 1158 246 1153 163 1139 c 0
 154 1137 145 1144 143 1153 c 0
EndSplineSet
EndChar

StartChar: uni0667
Encoding: 1639 1639 282
GlifName: uni0667
Width: 1158
Flags: HMW
LayerCount: 2
Fore
SplineSet
151 1181 m 0
 159 1186 170 1183 175 1175 c 0
 385 842 532 574 597 142 c 1
 659 579 788 861 983 1206 c 0
 988 1214 999 1217 1007 1212 c 0
 1015 1207 1018 1196 1013 1188 c 0
 798 809 667 512 614 -2 c 0
 613 -10 608 -16 600 -17 c 0
 590 -19 581 -12 580 -2 c 0
 527 511 377 790 145 1157 c 0
 140 1165 143 1176 151 1181 c 0
EndSplineSet
EndChar

StartChar: uni0668
Encoding: 1640 1640 283
GlifName: uni0668
Width: 1168
Flags: HMW
LayerCount: 2
Fore
SplineSet
1017 -29 m 0
 1009 -34 998 -31 993 -23 c 0
 780 322 642 590 578 1023 c 1
 516 592 389 336 175 -9 c 0
 170 -17 159 -20 151 -15 c 0
 143 -10 140 1 145 9 c 0
 380 388 508 654 561 1168 c 0
 562 1176 567 1182 575 1183 c 0
 585 1185 594 1178 595 1168 c 0
 648 655 788 374 1023 -5 c 0
 1028 -13 1025 -24 1017 -29 c 0
EndSplineSet
EndChar

StartChar: uni0669
Encoding: 1641 1641 284
GlifName: uni0669
Width: 1022
Flags: HMW
LayerCount: 2
Fore
SplineSet
451 1216 m 0
 672 1216 733 1005 741 772 c 0
 753 435 771 175 858 8 c 0
 862 0 858 -12 850 -16 c 0
 842 -20 831 -16 827 -8 c 0
 734 169 718 434 706 771 c 0
 698 1006 640 1182 451 1182 c 0
 272 1182 178 992 178 823 c 0
 178 645 309 582 484 582 c 0
 532 582 585 587 601 589 c 0
 610 590 619 583 620 574 c 0
 621 565 614 556 605 555 c 0
 587 553 534 548 484 548 c 0
 303 548 142 619 142 823 c 0
 142 1000 242 1216 451 1216 c 0
EndSplineSet
EndChar

StartChar: uni06F4
Encoding: 1780 1780 290
GlifName: uni06F_4
Width: 1118
Flags: HMW
LayerCount: 2
Fore
SplineSet
839 1248 m 0
 842 1239 836 1229 827 1226 c 0
 576 1158 477 953 477 688 c 0
 477 678 469 671 459 671 c 0
 449 671 442 678 442 688 c 0
 442 961 546 1186 817 1260 c 0
 826 1263 836 1257 839 1248 c 0
955 605 m 0
 956 596 949 587 940 586 c 0
 899 582 860 580 824 580 c 0
 566 580 399 668 281 783 c 1
 393 543 426 289 426 0 c 0
 426 -10 418 -17 408 -17 c 0
 398 -17 391 -10 391 -0 c 0
 391 351 343 645 165 921 c 0
 161 927 162 937 169 943 c 0
 177 949 188 948 194 940 c 0
 314 771 481 616 824 616 c 0
 860 616 897 616 936 620 c 0
 945 621 954 614 955 605 c 0
EndSplineSet
EndChar

StartChar: uni06F5
Encoding: 1781 1781 291
GlifName: uni06F_5
Width: 1155
Flags: HMW
LayerCount: 2
Fore
SplineSet
351 1179 m 0
 356 1187 368 1189 376 1184 c 0
 562 1060 1012 712 1012 342 c 0
 1012 134 908 -6 772 -6 c 0
 698 -6 619 48 558 124 c 0
 552 131 554 143 561 149 c 0
 568 155 580 153 586 146 c 0
 644 74 716 28 772 28 c 0
 880 28 978 142 978 342 c 0
 978 686 542 1030 356 1154 c 0
 348 1159 346 1171 351 1179 c 0
581 150 m 0
 589 145 592 134 587 126 c 0
 532 40 454 -4 378 -4 c 0
 253 -4 142 104 142 317 c 0
 142 655 425 910 642 1030 c 0
 650 1035 660 1031 665 1023 c 0
 670 1015 667 1005 659 1000 c 0
 446 882 178 635 178 317 c 0
 178 116 277 30 378 30 c 0
 440 30 506 66 557 144 c 0
 562 152 573 155 581 150 c 0
EndSplineSet
EndChar

StartChar: uni06F6
Encoding: 1782 1782 292
GlifName: uni06F_6
Width: 976
Flags: HMW
LayerCount: 2
Fore
SplineSet
697 1126 m 0
 691 1118 681 1116 673 1122 c 0
 617 1164 557 1182 501 1182 c 0
 333 1182 178 1021 178 839 c 0
 178 657 343 572 528 572 c 0
 634 572 723 599 809 636 c 0
 818 640 828 636 832 627 c 0
 836 618 832 608 823 604 c 0
 735 567 640 538 528 538 c 0
 335 538 142 629 142 839 c 0
 142 1039 311 1216 501 1216 c 0
 565 1216 631 1196 693 1150 c 0
 701 1144 703 1134 697 1126 c 0
832 628 m 0
 836 619 833 608 824 604 c 0
 530 456 346 257 201 -8 c 0
 196 -16 186 -20 178 -15 c 0
 170 -10 166 0 171 8 c 0
 318 277 508 484 808 636 c 0
 817 640 828 637 832 628 c 0
EndSplineSet
EndChar

StartChar: uni066B
Encoding: 1643 1643 296
GlifName: uni066B_
Width: 454
Flags: HMW
LayerCount: 2
Fore
SplineSet
361 520 m 0
 370 516 374 506 370 497 c 2
 -12 -390 l 2
 -16 -399 -26 -403 -35 -399 c 0
 -44 -395 -48 -385 -44 -376 c 2
 338 511 l 2
 342 520 352 524 361 520 c 0
EndSplineSet
EndChar

StartChar: uni060C
Encoding: 1548 1548 298
GlifName: uni060C_
Width: 644
Flags: HMW
LayerCount: 2
Fore
SplineSet
335 -2 m 0
 232 -2 162 78 162 204 c 0
 162 363 235 516 339 617 c 0
 346 624 357 623 364 616 c 0
 371 609 370 598 363 591 c 0
 265 496 198 353 198 204 c 0
 198 90 254 32 335 32 c 0
 410 32 446 94 446 168 c 0
 446 241 401 310 335 310 c 0
 310 310 276 298 264 275 c 0
 259 267 249 263 241 268 c 0
 233 273 229 283 234 291 c 0
 256 330 302 344 335 344 c 0
 429 344 482 251 482 168 c 0
 482 84 436 -2 335 -2 c 0
EndSplineSet
EndChar

StartChar: quoteleft
Encoding: 8216 8216 300
GlifName: quoteleft
Width: 644
Flags: HMW
LayerCount: 2
Fore
SplineSet
335 1396 m 0
 254 1396 198 1339 198 1225 c 0
 198 1076 265 933 363 838 c 0
 370 831 371 820 364 813 c 0
 357 806 346 805 339 812 c 0
 235 913 162 1066 162 1225 c 0
 162 1351 232 1432 335 1432 c 0
 436 1432 482 1345 482 1261 c 0
 482 1178 429 1084 335 1084 c 0
 302 1084 256 1099 234 1138 c 0
 229 1146 233 1156 241 1161 c 0
 249 1166 259 1162 264 1154 c 0
 276 1131 310 1120 335 1120 c 0
 401 1120 446 1188 446 1261 c 0
 446 1335 410 1396 335 1396 c 0
EndSplineSet
EndChar

StartChar: uni061F
Encoding: 1567 1567 311
GlifName: uni061F_
Width: 1105
Flags: HMW
LayerCount: 2
Fore
SplineSet
809 893 m 0
 801 898 798 909 803 917 c 0
 821 947 838 1010 838 1066 c 0
 838 1200 743 1298 617 1298 c 0
 395 1298 268 1115 268 983 c 0
 268 903 348 828 434 756 c 0
 535 671 614 587 617 466 c 0
 617 456 610 449 600 449 c 0
 590 449 582 456 582 466 c 0
 579 571 513 646 412 730 c 0
 328 800 232 881 232 983 c 0
 232 1133 375 1334 617 1334 c 0
 763 1334 872 1218 872 1066 c 0
 872 1004 855 937 833 899 c 0
 828 891 817 888 809 893 c 0
526 89 m 0
 526 123 552 152 587 152 c 0
 622 152 650 124 650 89 c 0
 650 54 621 28 587 28 c 0
 553 28 526 54 526 89 c 0
EndSplineSet
EndChar

StartChar: section
Encoding: 167 167 313
GlifName: section
Width: 916
Flags: HMW
LayerCount: 2
Fore
SplineSet
486 872 m 0
 486 862 479 854 469 854 c 0
 321 854 176 771 176 673 c 0
 176 548 308 496 445 482 c 0
 582 468 784 387 784 209 c 0
 784 47 597 -2 457 -2 c 0
 323 -2 218 46 139 109 c 0
 132 115 130 127 136 134 c 0
 142 141 154 143 161 137 c 0
 236 78 331 32 457 32 c 0
 597 32 748 83 748 209 c 0
 748 355 576 434 441 448 c 0
 304 462 140 516 140 673 c 0
 140 805 317 890 469 890 c 0
 479 890 486 882 486 872 c 0
764 1142 m 0
 755 1140 745 1146 743 1155 c 0
 718 1271 600 1328 472 1328 c 0
 327 1328 176 1225 176 1104 c 0
 176 938 314 905 471 889 c 0
 613 874 784 819 784 662 c 0
 784 506 583 448 443 448 c 0
 433 448 426 455 426 465 c 0
 426 475 433 482 443 482 c 0
 583 482 748 542 748 662 c 0
 748 785 611 840 467 855 c 0
 313 871 142 906 142 1104 c 0
 142 1255 317 1364 472 1364 c 0
 608 1364 746 1303 777 1163 c 0
 779 1154 773 1144 764 1142 c 0
EndSplineSet
EndChar

StartChar: uni00B2
Encoding: 178 178 314
GlifName: uni00B_2
Width: 718
Flags: HMW
LayerCount: 2
Fore
SplineSet
180 1280 m 0
 170 1280 162 1288 162 1298 c 0
 162 1400 232 1494 343 1494 c 0
 440 1494 506 1419 506 1327 c 0
 506 1205 436 1137 350 1054 c 2
 233 941 l 1
 537 957 l 2
 547 958 554 951 555 941 c 0
 556 931 549 924 539 923 c 2
 188 904 l 2
 184 904 178 905 175 908 c 0
 167 915 168 927 175 934 c 2
 326 1080 l 2
 414 1165 470 1221 470 1327 c 0
 470 1403 420 1460 343 1460 c 0
 256 1460 198 1386 198 1298 c 0
 198 1288 190 1280 180 1280 c 0
EndSplineSet
EndChar

StartChar: uni00B3
Encoding: 179 179 315
GlifName: uni00B_3
Width: 664
Flags: HMW
LayerCount: 2
Fore
SplineSet
205 1331 m 0
 196 1333 190 1343 192 1352 c 0
 206 1418 263 1476 343 1476 c 0
 424 1476 486 1406 486 1326 c 0
 486 1216 350 1178 262 1160 c 0
 253 1158 243 1164 241 1173 c 0
 239 1182 246 1192 255 1194 c 0
 349 1214 450 1250 450 1326 c 0
 450 1388 402 1442 343 1442 c 0
 281 1442 238 1396 226 1344 c 0
 224 1335 214 1329 205 1331 c 0
241 1173 m 0
 239 1182 245 1192 254 1194 c 0
 280 1200 311 1206 343 1206 c 0
 424 1206 498 1163 502 1076 c 0
 502 967 411 902 310 902 c 0
 260 902 208 918 169 950 c 0
 162 956 160 968 166 975 c 0
 172 982 184 984 191 978 c 0
 223 952 268 938 310 938 c 0
 397 938 467 990 467 1076 c 0
 464 1137 414 1172 343 1172 c 0
 315 1172 286 1166 262 1160 c 0
 253 1158 243 1164 241 1173 c 0
EndSplineSet
EndChar

StartChar: eth
Encoding: 240 240 316
GlifName: eth
Width: 1089
Flags: HMW
LayerCount: 2
Fore
SplineSet
216 987 m 0
 209 993 209 1005 215 1012 c 0
 321 1129 689 1375 837 1423 c 0
 846 1426 856 1420 859 1411 c 0
 862 1402 856 1392 847 1389 c 0
 711 1345 339 1097 241 988 c 0
 235 981 223 981 216 987 c 0
536 -2 m 0
 249 -2 132 198 132 427 c 0
 132 670 315 872 565 872 c 0
 575 872 582 864 582 854 c 0
 582 844 575 836 565 836 c 0
 335 836 168 652 168 427 c 0
 168 210 271 32 536 32 c 0
 778 32 922 200 922 525 c 0
 922 771 777 1202 251 1404 c 0
 242 1407 238 1417 241 1426 c 0
 244 1435 254 1439 263 1436 c 0
 805 1228 956 783 956 525 c 0
 956 190 802 -2 536 -2 c 0
EndSplineSet
EndChar

StartChar: uniE008
Encoding: 57352 57352 326
GlifName: uniE_008
Width: 250
Flags: HMW
LayerCount: 2
Fore
SplineSet
-18 45 m 0
 -18 55 -10 62 0 62 c 2
 250 62 l 2
 260 62 268 55 268 45 c 0
 268 35 260 28 250 28 c 2
 0 28 l 2
 -10 28 -18 35 -18 45 c 0
EndSplineSet
EndChar

StartChar: uniE009
Encoding: 57353 57353 327
GlifName: uniE_009
Width: 150
Flags: HMW
LayerCount: 2
Fore
SplineSet
-18 45 m 0
 -18 55 -10 62 0 62 c 2
 150 62 l 2
 160 62 168 55 168 45 c 0
 168 35 160 28 150 28 c 2
 0 28 l 2
 -10 28 -18 35 -18 45 c 0
EndSplineSet
EndChar

StartChar: underscore
Encoding: 95 95 328
GlifName: underscore
Width: 600
Flags: HMW
LayerCount: 2
Fore
SplineSet
618 45 m 0
 618 35 610 28 600 28 c 2
 0 28 l 2
 -10 28 -18 35 -18 45 c 0
 -18 55 -10 62 0 62 c 2
 600 62 l 2
 610 62 618 55 618 45 c 0
EndSplineSet
EndChar

StartChar: seven
Encoding: 55 55 329
GlifName: seven
Width: 1080
Flags: HMW
LayerCount: 2
Fore
SplineSet
143 1264 m 0
 142 1274 149 1281 159 1282 c 2
 913 1331 l 2
 923 1332 931 1324 931 1314 c 0
 931 1311 931 1308 930 1306 c 0
 748 943 633 450 559 -3 c 0
 557 -12 548 -19 539 -17 c 0
 530 -15 523 -6 525 3 c 0
 597 447 708 929 885 1295 c 1
 161 1248 l 2
 151 1247 144 1254 143 1264 c 0
EndSplineSet
EndChar

StartChar: nine
Encoding: 57 57 330
GlifName: nine
Width: 1208
Flags: HMW
LayerCount: 2
Fore
SplineSet
556 1330 m 0
 772 1330 976 1168 976 795 c 0
 976 484 813 116 496 -21 c 0
 487 -25 477 -21 473 -12 c 0
 469 -3 473 7 482 11 c 0
 781 140 942 494 942 795 c 0
 942 1154 750 1296 556 1296 c 0
 317 1296 178 1100 178 886 c 0
 178 606 368 500 575 500 c 0
 765 500 936 575 1036 672 c 0
 1043 679 1054 678 1061 671 c 0
 1068 664 1067 653 1060 646 c 0
 952 543 775 464 575 464 c 0
 356 464 142 584 142 886 c 0
 142 1114 294 1330 556 1330 c 0
EndSplineSet
EndChar

StartChar: uniFD3E
Encoding: 64830 64830 331
GlifName: uniF_D_3E_
Width: 866
Flags: HMW
LayerCount: 2
Fore
SplineSet
576 1384 m 0
 585 1380 588 1369 584 1360 c 0
 471 1130 416 930 416 681 c 0
 416 451 471 181 584 -48 c 0
 588 -57 585 -68 576 -72 c 0
 567 -76 556 -73 552 -64 c 0
 437 171 380 445 380 681 c 0
 380 936 437 1142 552 1376 c 0
 556 1385 567 1388 576 1384 c 0
734 774 m 0
 734 699 589 672 487 665 c 1
 564 645 652 603 652 524 c 0
 652 453 578 450 554 450 c 0
 476 450 436 496 412 555 c 1
 390 472 331 412 237 412 c 0
 200 412 172 439 172 476 c 0
 172 573 236 627 315 658 c 1
 226 678 132 720 132 819 c 0
 132 880 194 896 234 896 c 0
 338 896 387 822 408 746 c 1
 451 826 531 880 629 880 c 0
 690 880 734 836 734 774 c 0
EndSplineSet
EndChar

StartChar: uniFD3F
Encoding: 64831 64831 332
GlifName: uniF_D_3F_
Width: 861
Flags: HMW
LayerCount: 2
Fore
SplineSet
282 1384 m 0
 291 1388 302 1385 306 1376 c 0
 421 1142 478 936 478 681 c 0
 478 426 421 170 306 -64 c 0
 302 -73 291 -76 282 -72 c 0
 273 -68 270 -57 274 -48 c 0
 387 182 442 432 442 681 c 0
 442 930 387 1130 274 1360 c 0
 270 1369 273 1380 282 1384 c 0
212 526 m 0
 212 607 295 645 374 664 c 1
 266 677 132 698 132 781 c 0
 132 845 187 892 247 892 c 0
 348 892 414 830 452 748 c 1
 481 822 540 880 630 880 c 0
 675 880 729 851 729 792 c 0
 729 697 641 667 558 655 c 1
 631 625 685 576 685 493 c 0
 685 435 625 414 593 414 c 0
 520 414 473 462 449 524 c 1
 423 466 377 424 305 424 c 0
 269 424 212 462 212 526 c 0
EndSplineSet
EndChar

StartChar: dollar
Encoding: 36 36 333
GlifName: dollar
Width: 1182
Flags: HMW
LayerCount: 2
Fore
SplineSet
575 1636 m 0
 585 1636 592 1629 592 1619 c 2
 592 -142 l 2
 592 -152 585 -160 575 -160 c 0
 565 -160 558 -152 558 -142 c 2
 558 1619 l 2
 558 1629 565 1636 575 1636 c 0
EndSplineSet
Refer: 31 83 N 1 0 0 1 0 0 2
EndChar

StartChar: ampersand
Encoding: 38 38 334
GlifName: ampersand
Width: 1374
Flags: HMW
LayerCount: 2
Fore
SplineSet
659 1378 m 0
 814 1378 970 1278 970 1095 c 0
 970 864 780 782 605 709 c 0
 425 634 268 562 268 364 c 0
 268 151 442 32 639 32 c 0
 828 32 1031 117 1100 248 c 0
 1104 256 1115 259 1123 255 c 0
 1131 251 1135 240 1131 232 c 0
 1052 83 836 -2 639 -2 c 0
 430 -2 232 127 232 364 c 0
 232 588 415 667 591 741 c 0
 769 817 936 890 936 1095 c 0
 936 1254 800 1344 659 1344 c 0
 512 1344 364 1246 364 1063 c 0
 364 716 859 278 1135 59 c 0
 1142 53 1144 41 1138 34 c 0
 1132 27 1120 25 1113 31 c 0
 839 248 330 690 330 1063 c 0
 330 1270 498 1378 659 1378 c 0
EndSplineSet
EndChar

StartChar: question
Encoding: 63 63 335
GlifName: question
Width: 1155
Flags: HMW
LayerCount: 2
Fore
SplineSet
305 907 m 0
 297 903 285 907 281 915 c 0
 248 979 232 1041 232 1097 c 0
 232 1266 373 1378 581 1378 c 0
 784 1378 922 1244 922 1058 c 0
 922 915 804 816 694 725 c 0
 589 637 546 595 546 469 c 0
 546 453 548 439 554 422 c 0
 557 413 551 403 542 400 c 0
 533 397 523 403 520 412 c 0
 513 433 512 451 512 469 c 0
 512 607 567 663 672 751 c 0
 784 844 888 935 888 1058 c 0
 888 1224 768 1344 581 1344 c 0
 385 1344 268 1242 268 1097 c 0
 268 1047 282 991 313 931 c 0
 317 923 313 911 305 907 c 0
592 89 m 0
 592 55 565 28 530 28 c 0
 496 28 468 54 468 89 c 0
 468 124 495 152 530 152 c 0
 565 152 592 123 592 89 c 0
EndSplineSet
EndChar

StartChar: at
Encoding: 64 64 336
GlifName: at
Width: 2213
Flags: HMW
LayerCount: 2
Fore
SplineSet
1635 -315 m 0
 1640 -323 1637 -334 1629 -339 c 0
 1483 -430 1312 -482 1129 -482 c 0
 608 -482 182 -124 182 400 c 0
 182 922 638 1412 1162 1412 c 0
 1632 1412 2030 1045 2030 564 c 0
 2030 340 1914 8 1674 8 c 0
 1518 8 1414 199 1414 362 c 0
 1414 392 1416 425 1420 456 c 0
 1421 465 1430 472 1439 471 c 0
 1448 470 1455 461 1454 452 c 0
 1450 423 1448 390 1448 362 c 0
 1448 207 1550 44 1674 44 c 0
 1878 44 1996 342 1996 564 c 0
 1996 1025 1614 1378 1162 1378 c 0
 660 1378 218 904 218 400 c 0
 218 -102 624 -448 1129 -448 c 0
 1306 -448 1471 -396 1611 -309 c 0
 1619 -304 1630 -307 1635 -315 c 0
1470 803 m 1
 1368 873 1258 906 1152 906 c 0
 907 906 686 697 686 372 c 0
 686 176 820 32 1021 32 c 0
 1280 32 1392 269 1420 457 c 2
 1470 803 l 1
1506 808 m 2
 1454 451 l 2
 1426 257 1308 -2 1021 -2 c 0
 800 -2 650 158 650 372 c 0
 650 713 885 942 1152 942 c 0
 1269 942 1389 904 1499 825 c 0
 1504 821 1507 814 1506 808 c 2
EndSplineSet
EndChar

StartChar: b
Encoding: 98 98 337
GlifName: b
Width: 1163
Flags: HMW
LayerCount: 2
Fore
SplineSet
243 1378 m 0
 253 1378 259 1370 259 1360 c 2
 217 44 l 2
 217 34 209 28 199 28 c 0
 189 28 183 36 183 46 c 2
 225 1362 l 2
 225 1372 233 1378 243 1378 c 0
225 709 m 0
 216 713 212 723 216 732 c 0
 301 922 443 1018 618 1018 c 0
 906 1018 1020 752 1020 495 c 0
 1020 223 805 -2 515 -2 c 0
 467 -2 417 4 370 16 c 0
 361 18 355 28 357 37 c 0
 359 46 370 52 379 50 c 0
 423 38 469 32 515 32 c 0
 785 32 986 243 986 495 c 0
 986 746 876 984 618 984 c 0
 458 984 329 898 248 718 c 0
 244 709 234 705 225 709 c 0
EndSplineSet
EndChar

StartChar: d
Encoding: 100 100 338
GlifName: d
Width: 1197
Flags: HMW
LayerCount: 2
Fore
SplineSet
970 1378 m 0
 980 1378 987 1371 987 1361 c 2
 968 511 l 1
 968 213 976 123 1031 56 c 0
 1037 49 1035 37 1028 31 c 0
 1021 25 1009 27 1003 34 c 0
 936 115 934 215 934 511 c 1
 953 1361 l 2
 953 1371 960 1378 970 1378 c 0
847 858 m 0
 840 851 829 852 822 859 c 0
 741 946 652 982 567 982 c 0
 326 982 178 716 178 465 c 0
 178 210 309 32 537 32 c 0
 745 32 876 192 933 363 c 0
 936 372 947 377 956 374 c 0
 965 371 970 360 967 351 c 0
 908 173 765 -2 537 -2 c 0
 285 -2 142 198 142 465 c 0
 142 724 296 1016 567 1016 c 0
 662 1016 761 976 848 883 c 0
 855 876 854 865 847 858 c 0
EndSplineSet
EndChar

StartChar: h
Encoding: 104 104 339
GlifName: h
Width: 1126
Flags: HMW
LayerCount: 2
Fore
SplineSet
298 1403 m 0
 308 1402 315 1395 314 1385 c 2
 217 -1 l 2
 216 -11 209 -18 199 -17 c 0
 189 -16 182 -9 183 1 c 2
 280 1387 l 2
 281 1397 288 1404 298 1403 c 0
225 395 m 0
 216 398 210 408 213 417 c 0
 303 740 434 1018 654 1018 c 0
 880 1018 932 822 932 626 c 0
 932 558 926 487 918 423 c 0
 910 358 904 291 904 227 c 0
 904 146 914 70 942 7 c 0
 946 -2 942 -12 933 -16 c 0
 924 -20 914 -16 910 -7 c 0
 879 62 870 144 870 227 c 0
 870 293 876 362 884 427 c 0
 892 491 898 560 898 626 c 0
 898 820 848 982 654 982 c 0
 468 982 339 734 247 407 c 0
 244 398 234 392 225 395 c 0
EndSplineSet
EndChar

StartChar: k
Encoding: 107 107 342
GlifName: k
Width: 1019
Flags: HMW
LayerCount: 2
Fore
SplineSet
874 -9 m 0
 869 -17 858 -20 850 -15 c 0
 627 116 385 333 217 525 c 0
 209 534 214 549 222 553 c 0
 427 657 626 817 761 982 c 0
 767 989 778 991 785 985 c 0
 792 979 794 967 788 960 c 0
 654 796 461 639 258 532 c 1
 423 347 656 140 868 15 c 0
 876 10 879 -1 874 -9 c 0
261 1378 m 0
 271 1378 277 1370 277 1360 c 2
 217 3 l 2
 217 -7 209 -13 199 -13 c 0
 189 -13 183 -5 183 5 c 2
 243 1362 l 2
 243 1372 251 1378 261 1378 c 0
EndSplineSet
EndChar

StartChar: l
Encoding: 108 108 343
GlifName: l
Width: 419
Flags: HMW
LayerCount: 2
Fore
SplineSet
220 1367 m 0
 230 1367 236 1359 236 1349 c 0
 220 1007 218 394 218 0 c 0
 218 -10 210 -17 200 -17 c 0
 190 -17 183 -10 183 -0 c 0
 183 394 186 1007 202 1351 c 0
 202 1361 210 1367 220 1367 c 0
EndSplineSet
EndChar

StartChar: m
Encoding: 109 109 344
GlifName: m
Width: 1582
Flags: HMW
LayerCount: 2
Fore
SplineSet
215 1005 m 0
 224 1007 234 1001 236 992 c 0
 253 911 266 802 266 678 c 0
 266 628 263 578 259 524 c 2
 217 7 l 2
 216 -3 209 -10 199 -9 c 0
 189 -8 182 -1 183 9 c 2
 225 526 l 2
 229 578 230 630 230 678 c 0
 230 800 219 907 202 984 c 0
 200 993 206 1003 215 1005 c 0
245 588 m 0
 236 589 229 598 230 607 c 0
 265 874 413 1018 550 1018 c 0
 805 1018 824 764 824 549 c 0
 824 380 813 167 799 -1 c 0
 798 -10 789 -18 780 -17 c 0
 771 -16 763 -8 764 1 c 0
 778 169 790 382 790 549 c 0
 790 772 767 984 550 984 c 0
 439 984 297 862 264 603 c 0
 263 594 254 587 245 588 c 0
806 505 m 0
 796 506 789 513 790 523 c 0
 803 773 955 1018 1142 1018 c 0
 1334 1018 1394 828 1394 651 c 0
 1394 583 1391 496 1387 409 c 0
 1383 322 1381 235 1381 169 c 0
 1381 109 1386 55 1400 5 c 0
 1402 -4 1397 -15 1388 -17 c 0
 1379 -19 1368 -14 1366 -5 c 0
 1351 49 1345 107 1345 169 c 0
 1345 237 1349 324 1353 411 c 0
 1357 498 1360 583 1360 651 c 0
 1360 826 1302 984 1142 984 c 0
 987 984 837 765 824 521 c 0
 823 511 816 504 806 505 c 0
EndSplineSet
EndChar

StartChar: n
Encoding: 110 110 345
GlifName: n
Width: 1126
Flags: HMW
LayerCount: 2
Fore
SplineSet
202 1017 m 0
 209 1023 220 1022 226 1015 c 0
 262 972 270 872 270 746 c 0
 270 528 241 224 218 -2 c 0
 217 -11 207 -18 198 -17 c 0
 189 -16 182 -7 183 2 c 0
 206 228 236 530 236 746 c 0
 236 872 222 966 200 993 c 0
 194 1000 195 1011 202 1017 c 0
232 395 m 0
 223 397 218 408 220 417 c 0
 304 728 435 1018 681 1018 c 0
 895 1018 930 800 930 609 c 0
 930 551 926 487 918 423 c 0
 910 357 906 287 906 221 c 0
 906 143 914 70 942 7 c 0
 946 -2 942 -12 933 -16 c 0
 924 -20 914 -16 910 -7 c 0
 879 62 870 141 870 221 c 0
 870 289 876 359 884 427 c 0
 892 490 896 553 896 609 c 0
 896 804 859 982 681 982 c 0
 467 982 340 722 254 407 c 0
 252 398 241 393 232 395 c 0
EndSplineSet
EndChar

StartChar: p
Encoding: 112 112 346
GlifName: p
Width: 1187
Flags: HMW
LayerCount: 2
Fore
SplineSet
418 15 m 0
 418 25 426 32 436 32 c 0
 870 32 1010 338 1010 568 c 0
 1010 844 861 984 698 984 c 0
 491 984 264 742 246 290 c 0
 246 280 237 274 227 274 c 0
 217 274 211 282 211 292 c 0
 229 752 463 1018 698 1018 c 0
 885 1018 1044 856 1044 568 c 0
 1044 324 892 -2 436 -2 c 0
 426 -2 418 5 418 15 c 0
192 -450 m 0
 182 -450 176 -442 176 -432 c 2
 208 254 l 2
 216 382 222 499 222 603 c 0
 222 745 206 879 164 963 c 0
 160 972 163 983 172 987 c 0
 181 991 192 988 196 979 c 0
 242 885 258 747 258 603 c 0
 258 497 250 380 242 252 c 2
 210 -434 l 2
 210 -444 202 -450 192 -450 c 0
EndSplineSet
EndChar

StartChar: q
Encoding: 113 113 347
GlifName: q
Width: 1163
Flags: HMW
LayerCount: 2
Fore
SplineSet
791 871 m 0
 784 865 772 867 766 874 c 0
 715 938 637 984 532 984 c 0
 296 984 178 729 178 484 c 0
 178 231 268 32 506 32 c 0
 729 32 850 204 913 408 c 0
 916 417 926 423 935 420 c 0
 944 417 950 407 947 398 c 0
 882 190 751 -4 506 -4 c 0
 238 -4 142 227 142 484 c 0
 142 735 264 1018 532 1018 c 0
 647 1018 737 968 794 896 c 0
 800 889 798 877 791 871 c 0
964 994 m 0
 974 993 981 986 980 976 c 0
 958 679 946 384 946 87 c 0
 946 -83 951 -253 958 -424 c 0
 958 -434 951 -442 941 -442 c 0
 931 -442 923 -436 923 -426 c 0
 916 -255 912 -83 912 87 c 0
 912 384 924 681 946 978 c 0
 947 988 954 995 964 994 c 0
EndSplineSet
EndChar

StartChar: r
Encoding: 114 114 348
GlifName: r
Width: 905
Flags: HMW
LayerCount: 2
Fore
SplineSet
762 994 m 0
 764 985 757 976 748 974 c 0
 312 890 270 485 231 -1 c 0
 230 -11 223 -18 213 -17 c 0
 203 -16 196 -9 197 1 c 0
 236 481 276 918 742 1008 c 0
 751 1010 760 1003 762 994 c 0
212 -17 m 0
 203 -16 196 -7 197 2 c 0
 212 144 224 344 224 532 c 0
 224 706 211 871 183 966 c 0
 180 975 186 985 195 988 c 0
 204 991 214 985 217 976 c 0
 247 875 258 708 258 532 c 0
 258 342 246 142 231 -2 c 0
 230 -11 221 -18 212 -17 c 0
EndSplineSet
EndChar

StartChar: u
Encoding: 117 117 349
GlifName: u
Width: 1103
Flags: HMW
LayerCount: 2
Fore
SplineSet
252 988 m 0
 261 986 267 976 265 967 c 0
 240 855 218 626 218 392 c 0
 218 194 270 32 454 32 c 0
 691 32 786 222 837 592 c 0
 838 601 848 608 857 607 c 0
 866 606 872 597 871 588 c 0
 820 220 721 -2 454 -2 c 0
 238 -2 182 194 182 392 c 0
 182 628 206 859 231 975 c 0
 233 984 243 990 252 988 c 0
864 988 m 0
 874 987 881 980 880 970 c 0
 874 861 872 751 872 639 c 0
 872 438 874 274 920 48 c 0
 922 39 916 30 907 28 c 0
 898 26 888 33 886 42 c 0
 840 272 836 438 836 639 c 0
 836 751 840 863 846 972 c 0
 847 982 854 989 864 988 c 0
EndSplineSet
EndChar

StartChar: asciitilde
Encoding: 126 126 350
GlifName: asciitilde
Width: 870
Flags: HMW
LayerCount: 2
Fore
SplineSet
110 1135 m 0
 101 1138 95 1148 98 1157 c 0
 126 1243 187 1308 279 1308 c 0
 354 1308 410 1276 460 1239 c 0
 505 1206 550 1190 591 1190 c 0
 654 1190 715 1229 756 1325 c 0
 760 1334 770 1338 779 1334 c 0
 788 1330 792 1320 788 1311 c 0
 743 1207 672 1154 591 1154 c 0
 540 1154 489 1174 440 1211 c 0
 392 1246 344 1274 279 1274 c 0
 207 1274 158 1225 132 1147 c 0
 129 1138 119 1132 110 1135 c 0
EndSplineSet
EndChar

StartChar: cent
Encoding: 162 162 353
GlifName: cent
Width: 1031
Flags: HMW
LayerCount: 2
Fore
SplineSet
547 -382 m 0
 537 -382 530 -375 530 -365 c 2
 530 15 l 2
 530 25 537 32 547 32 c 0
 557 32 564 25 564 15 c 2
 564 -365 l 2
 564 -375 557 -382 547 -382 c 0
547 984 m 0
 537 984 530 991 530 1001 c 2
 530 1316 l 2
 530 1326 537 1334 547 1334 c 0
 557 1334 564 1326 564 1316 c 2
 564 1001 l 2
 564 991 557 984 547 984 c 0
EndSplineSet
Refer: 1 99 N 1 0 0 1 0 0 2
EndChar

StartChar: sterling
Encoding: 163 163 354
GlifName: sterling
Width: 1454
Flags: HMW
LayerCount: 2
Fore
SplineSet
332 682 m 0
 334 691 344 697 353 695 c 0
 422 677 500 670 578 670 c 0
 691 670 804 684 896 702 c 0
 905 704 914 697 916 688 c 0
 918 679 911 670 902 668 c 0
 808 650 693 636 578 636 c 0
 498 636 418 643 345 661 c 0
 336 663 330 673 332 682 c 0
1308 271 m 0
 1316 269 1323 262 1321 252 c 0
 1283 51 1049 -2 828 -2 c 0
 637 -2 499 52 377 101 c 1
 338 68 288 50 225 50 c 0
 179 50 132 70 132 110 c 0
 132 145 171 162 219 162 c 0
 261 162 312 156 367 141 c 1
 464 239 482 452 482 687 c 2
 482 939 l 2
 482 1144 492 1364 621 1364 c 0
 700 1364 744 1294 744 1196 c 0
 744 1186 736 1178 726 1178 c 0
 716 1178 708 1186 708 1196 c 0
 708 1286 672 1328 621 1328 c 0
 540 1328 516 1162 516 939 c 2
 516 687 l 2
 516 471 504 245 405 129 c 1
 517 82 652 32 828 32 c 0
 1049 32 1255 87 1287 258 c 0
 1290 269 1299 273 1308 271 c 0
EndSplineSet
EndChar

StartChar: currency
Encoding: 164 164 355
GlifName: currency
Width: 1109
Flags: HMW
LayerCount: 2
Fore
SplineSet
970 32 m 0
 963 26 952 27 946 34 c 2
 826 172 l 2
 820 179 820 191 827 197 c 0
 834 203 846 202 852 195 c 2
 972 56 l 2
 978 49 977 38 970 32 c 0
275 835 m 0
 268 829 256 829 250 836 c 2
 137 958 l 2
 131 965 131 977 138 983 c 0
 145 989 157 989 163 982 c 2
 276 860 l 2
 282 853 282 841 275 835 c 0
971 983 m 0
 978 977 978 965 972 958 c 2
 871 845 l 2
 865 838 854 837 847 843 c 0
 840 849 839 861 845 868 c 2
 946 982 l 2
 952 989 964 989 971 983 c 0
262 168 m 0
 269 162 270 151 264 144 c 2
 164 33 l 2
 158 26 146 26 139 32 c 0
 132 38 132 50 138 57 c 2
 238 167 l 2
 244 174 255 174 262 168 c 0
EndSplineSet
Refer: 5 111 N 1 0 0 1 0 0 2
EndChar

StartChar: brokenbar
Encoding: 166 166 357
GlifName: brokenbar
Width: 419
Flags: HMW
LayerCount: 2
Fore
SplineSet
204 1378 m 0
 214 1378 222 1371 222 1361 c 0
 222 1216 221 1058 218 895 c 0
 218 885 210 878 200 878 c 0
 190 878 183 885 183 895 c 0
 186 1058 186 1216 186 1361 c 0
 186 1371 194 1378 204 1378 c 0
219 514 m 0
 229 514 236 507 236 497 c 0
 232 317 227 145 219 -1 c 0
 218 -11 210 -18 200 -17 c 0
 190 -16 183 -9 184 1 c 0
 192 147 198 317 202 497 c 0
 202 507 209 514 219 514 c 0
EndSplineSet
EndChar

StartChar: dieresis
Encoding: 168 168 358
GlifName: dieresis
Width: 688
Flags: HMW
LayerCount: 2
Fore
SplineSet
556 1211 m 0
 556 1175 526 1152 493 1152 c 0
 457 1152 432 1183 432 1210 c 0
 432 1250 457 1276 486 1276 c 0
 527 1276 556 1246 556 1211 c 0
256 1223 m 0
 256 1180 228 1152 185 1152 c 0
 156 1152 132 1182 132 1214 c 0
 132 1248 159 1276 194 1276 c 0
 226 1276 256 1252 256 1223 c 0
EndSplineSet
EndChar

StartChar: ordfeminine
Encoding: 170 170 360
GlifName: ordfeminine
Width: 936
Flags: HMW
LayerCount: 2
Fore
SplineSet
394 914 m 0
 557 914 620 1098 620 1247 c 0
 620 1388 545 1442 437 1442 c 0
 299 1442 198 1315 198 1156 c 0
 198 1012 280 914 394 914 c 0
394 878 m 0
 256 878 162 1000 162 1156 c 0
 162 1329 275 1476 437 1476 c 0
 561 1476 656 1406 656 1247 c 0
 656 1096 591 878 394 878 c 0
705 1475 m 0
 714 1471 717 1460 713 1451 c 0
 687 1397 650 1254 650 1134 c 0
 650 1021 682 914 756 914 c 0
 766 914 774 906 774 896 c 0
 774 886 766 878 756 878 c 0
 642 878 614 1027 614 1134 c 0
 614 1260 651 1405 681 1467 c 0
 685 1476 696 1479 705 1475 c 0
EndSplineSet
EndChar

StartChar: logicalnot
Encoding: 172 172 361
GlifName: logicalnot
Width: 975
Flags: HMW
LayerCount: 2
Fore
SplineSet
132 661 m 0
 132 671 140 678 150 678 c 2
 795 678 l 2
 806 678 812 669 812 661 c 2
 812 388 l 2
 812 378 805 370 795 370 c 0
 785 370 778 378 778 388 c 2
 778 644 l 1
 150 644 l 2
 140 644 132 651 132 661 c 0
EndSplineSet
EndChar

StartChar: degree
Encoding: 176 176 365
GlifName: degree
Width: 830
Flags: HMW
LayerCount: 2
Fore
SplineSet
632 1398 m 0
 632 1512 533 1622 414 1622 c 0
 307 1622 198 1511 198 1391 c 0
 198 1283 294 1186 400 1186 c 0
 526 1186 632 1286 632 1398 c 0
668 1398 m 0
 668 1264 544 1152 400 1152 c 0
 274 1152 162 1263 162 1391 c 0
 162 1529 285 1656 414 1656 c 0
 555 1656 668 1530 668 1398 c 0
EndSplineSet
EndChar

StartChar: acute
Encoding: 180 180 366
GlifName: acute
Width: 522
Flags: HMW
LayerCount: 2
Fore
SplineSet
373 1495 m 0
 380 1489 382 1477 376 1470 c 0
 301 1376 233 1288 176 1162 c 0
 172 1153 162 1149 153 1153 c 0
 144 1157 140 1167 144 1176 c 0
 203 1306 273 1398 348 1492 c 0
 354 1499 366 1501 373 1495 c 0
EndSplineSet
EndChar

StartChar: mu
Encoding: 181 181 367
GlifName: mu
Width: 1099
Flags: HMW
LayerCount: 2
Fore
SplineSet
250 -464 m 0
 241 -465 232 -458 231 -449 c 0
 207 -209 182 90 182 367 c 0
 182 600 215 866 259 1020 c 0
 262 1029 272 1035 281 1032 c 0
 290 1029 296 1019 293 1010 c 0
 251 862 218 596 218 367 c 0
 218 92 241 -205 265 -445 c 0
 266 -454 259 -463 250 -464 c 0
280 1032 m 0
 289 1030 295 1020 293 1011 c 0
 262 891 222 689 222 535 c 0
 222 280 249 32 511 32 c 0
 858 32 867 655 868 1015 c 0
 868 1025 875 1032 885 1032 c 0
 895 1032 903 1025 903 1015 c 0
 902 673 906 -2 511 -2 c 0
 213 -2 188 286 188 535 c 0
 188 695 228 897 259 1019 c 0
 261 1028 271 1034 280 1032 c 0
886 1032 m 0
 896 1031 903 1024 902 1014 c 0
 894 885 894 710 894 587 c 0
 894 405 899 225 917 50 c 0
 918 41 910 32 901 31 c 0
 892 30 883 37 882 46 c 0
 864 223 860 405 860 587 c 0
 860 710 860 885 868 1016 c 0
 869 1026 876 1033 886 1032 c 0
EndSplineSet
EndChar

StartChar: paragraph
Encoding: 182 182 368
GlifName: paragraph
Width: 1319
Flags: HMW
LayerCount: 2
Fore
SplineSet
620 1038 m 0
 630 1038 638 1030 638 1020 c 2
 638 -382 l 2
 638 -392 630 -400 620 -400 c 0
 610 -400 602 -392 602 -382 c 2
 602 1020 l 2
 602 1030 610 1038 620 1038 c 0
923 978 m 0
 933 978 940 970 940 960 c 2
 940 -442 l 2
 940 -452 933 -460 923 -460 c 0
 913 -460 906 -452 906 -442 c 2
 906 960 l 2
 906 970 913 978 923 978 c 0
1171 1134 m 0
 1164 1128 1152 1128 1146 1135 c 0
 1046 1250 903 1328 715 1328 c 0
 426 1328 178 1099 178 811 c 0
 178 523 461 326 750 326 c 0
 826 326 902 339 974 366 c 0
 983 369 993 365 996 356 c 0
 999 347 995 337 986 334 c 0
 910 305 830 290 750 290 c 0
 449 290 142 497 142 811 c 0
 142 1119 408 1364 715 1364 c 0
 913 1364 1066 1280 1172 1159 c 0
 1178 1152 1178 1140 1171 1134 c 0
EndSplineSet
EndChar

StartChar: uni00B9
Encoding: 185 185 370
GlifName: uni00B_9
Width: 526
Flags: HMW
LayerCount: 2
Fore
SplineSet
325 816 m 0
 315 817 308 824 309 834 c 2
 346 1419 l 1
 292 1375 234 1340 167 1313 c 0
 158 1309 148 1314 144 1323 c 0
 140 1332 145 1341 154 1345 c 0
 230 1375 296 1420 354 1472 c 0
 357 1474 362 1476 366 1476 c 0
 376 1476 384 1468 383 1458 c 2
 343 832 l 2
 342 822 335 815 325 816 c 0
EndSplineSet
EndChar

StartChar: onequarter
Encoding: 188 188 372
GlifName: onequarter
Width: 2006
Flags: HMW
LayerCount: 2
Fore
SplineSet
385 503 m 0
 375 504 368 511 369 521 c 2
 437 1575 l 1
 355 1504 263 1433 169 1374 c 0
 161 1369 150 1372 145 1380 c 0
 140 1388 143 1399 151 1404 c 0
 242 1457 333 1529 409 1600 c 0
 412 1602 416 1604 421 1604 c 2
 456 1604 l 2
 466 1604 474 1596 473 1586 c 2
 403 519 l 2
 402 509 395 502 385 503 c 0
1528 701 m 0
 1537 697 1541 687 1537 678 c 0
 1448 457 1226 87 1102 -88 c 1
 1325 -114 1641 -95 1842 -46 c 0
 1851 -44 1861 -50 1863 -59 c 0
 1865 -68 1859 -78 1850 -80 c 0
 1634 -133 1298 -151 1069 -119 c 0
 1067 -119 1064 -118 1062 -117 c 0
 1053 -112 1051 -100 1057 -92 c 0
 1176 68 1414 466 1505 692 c 0
 1509 701 1519 705 1528 701 c 0
1605 274 m 0
 1614 273 1621 264 1620 255 c 2
 1559 -370 l 2
 1558 -379 1549 -386 1540 -385 c 0
 1531 -384 1524 -375 1525 -366 c 2
 1586 259 l 2
 1587 268 1596 275 1605 274 c 0
473 32 m 0
 466 39 465 50 472 57 c 0
 831 438 1276 1024 1497 1422 c 0
 1502 1430 1513 1434 1521 1429 c 0
 1529 1424 1532 1414 1527 1406 c 0
 1304 1004 859 416 498 33 c 0
 491 26 480 25 473 32 c 0
EndSplineSet
EndChar

StartChar: onehalf
Encoding: 189 189 373
GlifName: onehalf
Width: 2060
Flags: HMW
LayerCount: 2
Fore
SplineSet
473 32 m 0
 466 39 465 50 472 57 c 0
 832 438 1276 1023 1497 1422 c 0
 1502 1430 1513 1434 1521 1429 c 0
 1529 1424 1532 1414 1527 1406 c 0
 1304 1003 860 416 498 33 c 0
 491 26 480 25 473 32 c 0
385 503 m 0
 375 504 368 511 369 521 c 2
 437 1575 l 1
 355 1504 263 1433 169 1374 c 0
 161 1369 150 1372 145 1380 c 0
 140 1388 143 1399 151 1404 c 0
 242 1457 333 1529 409 1600 c 0
 412 1602 416 1604 421 1604 c 2
 456 1604 l 2
 466 1604 474 1596 473 1586 c 2
 403 519 l 2
 402 509 395 502 385 503 c 0
1293 352 m 0
 1283 352 1276 360 1276 370 c 0
 1276 555 1401 722 1597 722 c 0
 1772 722 1878 590 1878 424 c 0
 1878 240 1723 74 1547 -87 c 2
 1300 -313 l 1
 1403 -304 1501 -300 1604 -300 c 0
 1700 -300 1802 -305 1901 -310 c 0
 1911 -310 1918 -318 1918 -328 c 0
 1918 -338 1909 -344 1899 -344 c 0
 1800 -339 1700 -336 1604 -336 c 0
 1484 -336 1368 -340 1251 -352 c 0
 1231 -354 1224 -333 1237 -322 c 2
 1524 -61 l 2
 1708 107 1842 250 1842 424 c 0
 1842 574 1750 688 1597 688 c 0
 1425 688 1310 541 1310 370 c 0
 1310 360 1303 352 1293 352 c 0
EndSplineSet
EndChar

StartChar: threequarters
Encoding: 190 190 374
GlifName: threequarters
Width: 2156
Flags: HMW
LayerCount: 2
Fore
SplineSet
210 1334 m 0
 201 1336 195 1346 197 1355 c 0
 228 1493 359 1576 479 1576 c 0
 599 1576 712 1493 712 1307 c 0
 712 1102 477 1034 311 997 c 0
 302 995 292 1001 290 1010 c 0
 288 1019 294 1029 303 1031 c 0
 475 1070 678 1136 678 1307 c 0
 678 1475 581 1542 479 1542 c 0
 373 1542 258 1467 231 1347 c 0
 229 1338 219 1332 210 1334 c 0
742 827 m 1
 742 634 585 520 402 520 c 0
 312 520 219 550 149 608 c 0
 142 614 141 626 147 633 c 0
 153 640 164 642 171 636 c 0
 234 584 320 556 402 556 c 0
 571 556 708 657 708 827 c 1
 703 951 600 1022 464 1022 c 0
 411 1022 357 1009 311 997 c 0
 302 995 292 1001 290 1010 c 0
 288 1019 294 1029 303 1031 c 0
 349 1043 405 1058 464 1058 c 0
 611 1058 737 977 742 827 c 1
623 32 m 0
 616 39 615 50 622 57 c 0
 981 438 1426 1024 1647 1422 c 0
 1652 1430 1663 1434 1671 1429 c 0
 1679 1424 1682 1414 1677 1406 c 0
 1454 1004 1009 416 648 33 c 0
 641 26 630 25 623 32 c 0
1678 701 m 0
 1687 697 1691 687 1687 678 c 0
 1598 457 1376 87 1252 -88 c 1
 1475 -114 1791 -95 1992 -46 c 0
 2001 -44 2011 -50 2013 -59 c 0
 2015 -68 2009 -78 2000 -80 c 0
 1784 -133 1448 -151 1219 -119 c 0
 1217 -119 1214 -118 1212 -117 c 0
 1203 -112 1201 -100 1207 -92 c 0
 1326 68 1564 466 1655 692 c 0
 1659 701 1669 705 1678 701 c 0
1755 274 m 0
 1764 273 1771 264 1770 255 c 2
 1709 -370 l 2
 1708 -379 1699 -386 1690 -385 c 0
 1681 -384 1674 -375 1675 -366 c 2
 1736 259 l 2
 1737 268 1746 275 1755 274 c 0
EndSplineSet
EndChar

StartChar: Eth
Encoding: 208 208 391
GlifName: E_th
Width: 1341
Flags: HMW
LayerCount: 2
Fore
SplineSet
72 728 m 0
 71 738 78 745 88 746 c 0
 307 763 490 759 645 746 c 0
 654 745 662 737 661 728 c 0
 660 719 651 711 642 712 c 0
 489 725 307 729 90 712 c 0
 80 711 73 718 72 728 c 0
EndSplineSet
Refer: 16 68 N 1 0 0 1 150 0 2
EndChar

StartChar: multiply
Encoding: 215 215 398
GlifName: multiply
Width: 872
Flags: HMW
LayerCount: 2
Fore
SplineSet
145 923 m 0
 150 931 161 934 169 929 c 0
 295 850 441 727 552 616 c 0
 635 533 699 455 728 398 c 0
 732 389 729 378 720 374 c 0
 711 370 700 373 696 382 c 0
 671 433 609 511 528 592 c 0
 419 701 273 822 151 899 c 0
 143 904 140 915 145 923 c 0
181 386 m 0
 174 392 172 404 178 411 c 0
 276 536 378 647 486 755 c 0
 545 814 607 873 671 931 c 0
 678 937 690 937 696 930 c 0
 702 923 702 911 695 905 c 0
 631 847 569 790 510 731 c 0
 402 623 304 512 206 389 c 0
 200 382 188 380 181 386 c 0
EndSplineSet
EndChar

StartChar: germandbls
Encoding: 223 223 405
GlifName: germandbls
Width: 1124
Flags: HMW
LayerCount: 2
Fore
SplineSet
561 1364 m 0
 748 1364 850 1198 850 1060 c 0
 850 922 822 878 735 808 c 0
 676 761 628 692 628 619 c 0
 628 548 675 508 746 472 c 0
 851 419 982 337 982 182 c 0
 982 57 816 -4 672 -4 c 0
 605 -4 539 8 485 38 c 0
 477 43 473 54 478 62 c 0
 483 70 494 73 502 68 c 0
 548 42 609 32 672 32 c 0
 816 32 946 93 946 182 c 0
 946 313 835 387 730 440 c 0
 657 478 594 528 594 619 c 0
 594 708 650 785 713 836 c 0
 796 902 814 928 814 1060 c 0
 814 1184 724 1328 561 1328 c 0
 435 1328 334 1252 303 1009 c 0
 265 715 242 375 217 3 c 0
 216 -7 209 -14 199 -13 c 0
 189 -12 182 -5 183 5 c 0
 208 377 231 717 269 1013 c 0
 302 1264 413 1364 561 1364 c 0
EndSplineSet
EndChar

StartChar: ae
Encoding: 230 230 412
GlifName: ae
Width: 1885
Flags: HMW
LayerCount: 2
Fore
SplineSet
529 -2 m 0
 297 -2 142 196 142 419 c 0
 142 682 327 1018 604 1018 c 0
 692 1018 781 984 845 927 c 0
 852 921 852 909 846 902 c 0
 840 895 829 895 822 901 c 0
 764 952 682 984 604 984 c 0
 357 984 178 672 178 419 c 0
 178 212 319 32 529 32 c 0
 801 32 911 280 949 477 c 0
 974 606 1004 825 1021 957 c 0
 1022 966 1031 973 1040 972 c 0
 1049 971 1056 962 1055 953 c 0
 1038 821 1008 602 983 471 c 0
 945 272 829 -2 529 -2 c 0
1711 784 m 0
 1711 541 1343 442 1153 442 c 0
 1092 442 1040 447 975 455 c 0
 966 456 959 465 960 474 c 0
 961 483 970 490 979 489 c 0
 1043 481 1093 478 1153 478 c 0
 1345 478 1676 581 1676 784 c 0
 1676 894 1570 984 1457 984 c 0
 1184 984 984 696 984 419 c 0
 984 158 1150 32 1372 32 c 0
 1497 32 1635 77 1727 160 c 0
 1734 166 1746 166 1752 159 c 0
 1758 152 1758 140 1751 134 c 0
 1651 43 1505 -2 1372 -2 c 0
 1134 -2 950 138 950 419 c 0
 950 708 1158 1018 1457 1018 c 0
 1586 1018 1711 918 1711 784 c 0
EndSplineSet
EndChar

StartChar: oslash
Encoding: 248 248 429
GlifName: oslash
Width: 1144
Flags: HMW
LayerCount: 2
Fore
SplineSet
151 -15 m 0
 143 -10 140 1 145 9 c 0
 383 377 688 761 972 1030 c 0
 979 1037 990 1036 997 1029 c 0
 1004 1022 1003 1011 996 1004 c 0
 715 737 411 357 175 -9 c 0
 170 -17 159 -20 151 -15 c 0
EndSplineSet
Refer: 5 111 N 1 0 0 1 26 0 2
EndChar

StartChar: thorn
Encoding: 254 254 435
GlifName: thorn
Width: 1166
Flags: HMW
LayerCount: 2
Fore
SplineSet
234 1378 m 0
 244 1378 251 1371 251 1361 c 2
 217 -365 l 2
 217 -375 210 -382 200 -382 c 0
 190 -382 183 -375 183 -365 c 2
 217 1361 l 2
 217 1371 224 1378 234 1378 c 0
EndSplineSet
Refer: 5 111 N 1 0 0 1 57 0 2
EndChar

StartChar: OE
Encoding: 338 338 437
GlifName: O_E_
Width: 2327
Flags: HMW
LayerCount: 2
Fore
SplineSet
1251 735 m 0
 1252 744 1262 750 1271 749 c 0
 1380 733 1541 722 1701 722 c 0
 1805 722 1909 726 2000 738 c 0
 2009 739 2018 732 2019 723 c 0
 2020 714 2013 705 2004 704 c 0
 1911 692 1807 686 1701 686 c 0
 1539 686 1376 699 1265 715 c 0
 1256 716 1250 726 1251 735 c 0
1302 110 m 0
 1304 119 1314 125 1323 123 c 0
 1496 84 1675 66 1849 66 c 0
 1958 66 2065 73 2165 88 c 0
 2174 89 2183 83 2184 74 c 0
 2185 65 2179 55 2170 54 c 0
 2068 39 1960 30 1849 30 c 0
 1673 30 1490 50 1315 89 c 0
 1306 91 1300 101 1302 110 c 0
696 32 m 0
 1162 32 1272 490 1272 1065 c 0
 1272 1152 1270 1241 1266 1328 c 0
 1265 1340 1276 1347 1285 1346 c 0
 1517 1315 1714 1290 1889 1290 c 0
 1979 1290 2063 1296 2144 1315 c 0
 2153 1317 2163 1311 2165 1302 c 0
 2167 1293 2161 1283 2152 1281 c 0
 2067 1262 1981 1254 1889 1254 c 0
 1715 1254 1526 1279 1301 1309 c 1
 1305 1229 1308 1145 1308 1065 c 0
 1308 494 1198 -2 696 -2 c 0
 384 -2 142 279 142 643 c 0
 142 996 366 1364 699 1364 c 0
 844 1364 955 1288 1027 1191 c 0
 1033 1183 1031 1173 1023 1167 c 0
 1015 1161 1005 1163 999 1171 c 0
 933 1262 832 1328 699 1328 c 0
 396 1328 178 986 178 643 c 0
 178 293 408 32 696 32 c 0
EndSplineSet
EndChar

StartChar: dotlessi
Encoding: 305 305 439
GlifName: dotlessi
Width: 415
Flags: HMW
LayerCount: 2
Fore
SplineSet
216 988 m 0
 226 988 232 980 232 970 c 0
 221 736 218 210 218 0 c 0
 218 -10 210 -17 200 -17 c 0
 190 -17 183 -10 183 -0 c 0
 183 210 187 736 198 972 c 0
 198 982 206 988 216 988 c 0
EndSplineSet
EndChar

StartChar: uniE00C
Encoding: 57356 57356 442
GlifName: uniE_00C_
Width: 1069
Flags: HMW
LayerCount: 2
Fore
SplineSet
541 954 m 0
 285 954 164 751 164 508 c 0
 164 265 285 62 541 62 c 0
 797 62 918 265 918 508 c 0
 918 751 797 954 541 954 c 0
541 988 m 0
 823 988 954 761 954 508 c 0
 954 255 823 28 541 28 c 0
 259 28 130 255 130 508 c 0
 130 761 259 988 541 988 c 0
EndSplineSet
EndChar

StartChar: uniE00D
Encoding: 57357 57357 443
GlifName: uniE_00D_
Width: 950
Flags: HMW
LayerCount: 2
Fore
SplineSet
147 -18 m 0
 137 -18 130 -10 130 0 c 2
 130 584 l 2
 130 801 240 988 482 988 c 0
 724 988 834 801 834 584 c 2
 834 0 l 2
 834 -10 827 -18 817 -18 c 0
 807 -18 800 -10 800 0 c 2
 800 584 l 2
 800 791 700 954 482 954 c 0
 264 954 164 791 164 584 c 2
 164 0 l 2
 164 -10 157 -18 147 -18 c 0
EndSplineSet
EndChar

StartChar: uniE00E
Encoding: 57358 57358 444
GlifName: uniE_00E_
Width: 850
Flags: HMW
LayerCount: 2
Fore
SplineSet
147 -18 m 0
 137 -18 130 -10 130 0 c 2
 130 598 l 2
 130 814 224 988 432 988 c 0
 640 988 734 814 734 598 c 2
 734 0 l 2
 734 -10 727 -18 717 -18 c 0
 707 -18 700 -10 700 0 c 2
 700 598 l 2
 700 806 612 954 432 954 c 0
 252 954 164 806 164 598 c 2
 164 0 l 2
 164 -10 157 -18 147 -18 c 0
EndSplineSet
EndChar

StartChar: uniE012
Encoding: 57362 57362 449
GlifName: uniE_012
Width: 0
Flags: HW
LayerCount: 2
Fore
SplineSet
398 1721 m 0
 398 1711 390 1703 380 1703 c 0
 246 1703 98 1613 98 1542 c 0
 98 1495 149 1466 226 1446 c 0
 303 1426 374 1393 374 1315 c 0
 374 1226 223 1149 14 1149 c 0
 4 1149 -3 1156 -3 1166 c 0
 -3 1176 4 1184 14 1184 c 0
 225 1184 338 1266 338 1315 c 0
 338 1365 295 1392 218 1412 c 0
 143 1431 62 1464 62 1542 c 0
 62 1650 242 1738 380 1738 c 0
 390 1738 398 1731 398 1721 c 0
EndSplineSet
EndChar

StartChar: uni0237
Encoding: 567 567 450
GlifName: uni0237
Width: 404
Flags: HW
LayerCount: 2
Fore
SplineSet
201 988 m 0
 211 988 218 981 218 971 c 0
 218 664 217 418 210 224 c 0
 193 -244 140 -432 -50 -432 c 0
 -60 -432 -67 -424 -67 -414 c 0
 -67 -404 -60 -396 -50 -396 c 0
 102 -396 159 -252 176 226 c 0
 183 420 184 664 184 971 c 0
 184 981 191 988 201 988 c 0
EndSplineSet
EndChar

StartChar: uniE014
Encoding: 57364 57364 452
GlifName: uniE_014
Width: 1693
Flags: HMW
LayerCount: 2
Fore
SplineSet
178 616 m 0
 178 326 477 62 752 62 c 0
 1218 62 1516 325 1516 760 c 0
 1516 1061 1242 1344 831 1344 c 0
 504 1344 178 1063 178 616 c 0
142 616 m 0
 142 1081 484 1378 831 1378 c 0
 1258 1378 1550 1083 1550 760 c 0
 1550 305 1232 28 752 28 c 0
 459 28 142 304 142 616 c 0
EndSplineSet
EndChar

StartChar: uniE015
Encoding: 57365 57365 453
GlifName: uniE_015
Width: 1693
Flags: HW
LayerCount: 2
Fore
SplineSet
1057 973 m 0
 1051 966 1039 966 1032 972 c 0
 987 1012 934 1034 868 1034 c 0
 678 1034 534 853 534 667 c 0
 534 506 622 388 809 388 c 0
 906 388 980 415 1047 456 c 0
 1055 461 1066 458 1071 450 c 0
 1076 442 1073 431 1065 426 c 0
 994 383 914 352 809 352 c 0
 602 352 500 492 500 667 c 0
 500 869 654 1070 868 1070 c 0
 942 1070 1005 1042 1056 998 c 0
 1063 992 1063 980 1057 973 c 0
EndSplineSet
EndChar

StartChar: uniE016
Encoding: 57366 57366 454
GlifName: uniE_016
Width: 1667
Flags: HW
LayerCount: 2
Fore
SplineSet
553 908 m 0
 545 914 543 924 549 932 c 0
 605 1008 698 1052 791 1052 c 0
 930 1052 1076 956 1076 809 c 0
 1076 685 980 597 840 584 c 1
 916 501 1015 433 1113 378 c 0
 1121 373 1124 363 1119 355 c 0
 1114 347 1104 343 1096 348 c 0
 985 410 870 489 789 589 c 0
 787 591 786 595 786 599 c 0
 785 609 793 618 803 618 c 0
 951 618 1040 698 1040 809 c 0
 1040 930 918 1018 791 1018 c 0
 708 1018 627 978 577 912 c 0
 571 904 561 902 553 908 c 0
686 914 m 0
 696 914 702 906 702 896 c 0
 694 717 680 526 662 354 c 0
 661 345 651 338 642 339 c 0
 633 340 626 349 627 358 c 0
 645 530 660 719 668 898 c 0
 668 908 676 914 686 914 c 0
EndSplineSet
EndChar

StartChar: uniE01D
Encoding: 57373 57373 461
GlifName: uniE_01D_
Width: 1478
Flags: HMW
LayerCount: 2
Fore
SplineSet
1097 74 m 0
 1200 74 1300 153 1300 253 c 0
 1300 354 1213 426 1109 426 c 0
 1005 426 940 366 940 263 c 0
 940 158 1011 74 1097 74 c 0
1097 38 m 0
 987 38 906 144 906 263 c 0
 906 384 989 462 1109 462 c 0
 1229 462 1336 376 1336 253 c 0
 1336 129 1214 38 1097 38 c 0
178 1188 m 0
 178 1086 257 986 357 986 c 0
 458 986 530 1071 530 1175 c 0
 530 1279 469 1344 367 1344 c 0
 262 1344 178 1273 178 1188 c 0
142 1188 m 0
 142 1299 248 1378 367 1378 c 0
 489 1378 564 1295 564 1175 c 0
 564 1055 480 950 357 950 c 0
 233 950 142 1070 142 1188 c 0
EndSplineSet
EndChar

StartChar: uniFB00
Encoding: 64256 64256 466
GlifName: uniF_B_00
Width: 1386
Flags: HW
LayerCount: 2
Fore
SplineSet
143 829 m 0
 142 839 149 846 159 847 c 0
 321 859 483 866 643 866 c 0
 839 866 1034 855 1228 833 c 0
 1237 832 1244 823 1243 814 c 0
 1242 805 1233 798 1224 799 c 0
 1032 821 837 830 643 830 c 0
 483 830 323 825 161 813 c 0
 151 812 144 819 143 829 c 0
1237 1541 m 0
 1230 1535 1218 1535 1212 1542 c 0
 1179 1578 1153 1592 1132 1592 c 0
 1068 1592 1006 1466 993 1307 c 0
 962 962 954 348 954 -4 c 0
 954 -14 946 -21 936 -21 c 0
 926 -21 919 -14 919 -4 c 0
 919 348 928 964 959 1311 c 0
 972 1464 1028 1626 1132 1626 c 0
 1167 1626 1203 1606 1238 1566 c 0
 1244 1559 1244 1547 1237 1541 c 0
624 1541 m 0
 617 1535 605 1535 599 1542 c 0
 566 1578 540 1592 519 1592 c 0
 455 1592 393 1466 380 1307 c 0
 349 962 341 348 341 -4 c 0
 341 -14 333 -21 323 -21 c 0
 313 -21 306 -14 306 -4 c 0
 306 348 315 964 346 1311 c 0
 359 1464 415 1626 519 1626 c 0
 554 1626 590 1606 625 1566 c 0
 631 1559 631 1547 624 1541 c 0
EndSplineSet
Ligature2: "'rlig' Required Ligatures in Latin lookup 8 subtable" f f
LCarets2: 1 0
EndChar

StartChar: uniFB05
Encoding: 64261 64261 467
GlifName: uniF_B_05
Width: 1325
Flags: HW
LayerCount: 2
Fore
SplineSet
1182 818 m 0
 1181 809 1172 802 1163 803 c 0
 1004 823 827 830 651 830 c 0
 483 830 316 824 161 813 c 0
 151 812 144 819 143 829 c 0
 142 839 149 846 159 847 c 0
 314 858 483 866 651 866 c 0
 829 866 1006 857 1167 837 c 0
 1176 836 1183 827 1182 818 c 0
954 1233 m 0
 963 1232 970 1223 969 1214 c 0
 936 929 910 646 910 355 c 0
 910 203 919 32 1088 32 c 0
 1109 32 1133 34 1159 39 c 0
 1168 41 1177 34 1179 25 c 0
 1181 16 1174 7 1165 5 c 0
 1137 0 1111 -2 1088 -2 c 0
 881 -2 876 211 876 355 c 0
 876 648 902 933 935 1218 c 0
 936 1227 945 1234 954 1233 c 0
624 1541 m 0
 617 1535 605 1535 599 1542 c 0
 566 1578 540 1592 519 1592 c 0
 455 1592 393 1466 380 1307 c 0
 349 962 341 348 341 -4 c 0
 341 -14 333 -21 323 -21 c 0
 313 -21 306 -14 306 -4 c 0
 306 348 315 964 346 1311 c 0
 359 1464 415 1626 519 1626 c 0
 554 1626 590 1606 625 1566 c 0
 631 1559 631 1547 624 1541 c 0
EndSplineSet
Ligature2: "'rlig' Required Ligatures in Latin lookup 8 subtable" f t
LCarets2: 1 0
EndChar

StartChar: uniE01E
Encoding: 57374 57374 472
GlifName: uniE_01E_
Width: 2857
Flags: HW
LayerCount: 2
Fore
SplineSet
2423 1064 m 0
 2655 1064 2714 709 2714 399 c 0
 2714 111 2446 28 2005 28 c 2
 775 28 l 2
 765 28 758 35 758 45 c 0
 758 55 765 62 775 62 c 2
 2005 62 l 2
 2450 62 2680 145 2680 399 c 0
 2680 719 2611 1028 2423 1028 c 0
 2253 1028 2172 828 2172 665 c 0
 2172 499 2269 432 2440 432 c 0
 2508 432 2571 448 2625 470 c 0
 2634 474 2644 470 2648 461 c 0
 2652 452 2648 442 2639 438 c 0
 2581 414 2514 398 2440 398 c 0
 2257 398 2138 477 2138 665 c 0
 2138 832 2219 1064 2423 1064 c 0
758 47 m 0
 759 56 768 63 777 62 c 0
 1071 27 1218 -89 1218 -234 c 0
 1218 -394 1026 -528 703 -528 c 0
 307 -528 162 -332 162 -62 c 0
 162 85 204 254 267 425 c 0
 270 434 280 438 289 435 c 0
 298 432 303 422 300 413 c 0
 238 244 198 79 198 -62 c 0
 198 -314 323 -492 703 -492 c 0
 1022 -492 1184 -362 1184 -234 c 0
 1184 -119 1063 -7 773 28 c 0
 764 29 757 38 758 47 c 0
EndSplineSet
EndChar

StartChar: uniE021
Encoding: 57377 57377 497
GlifName: uniE_021
Width: 3243
Flags: HW
LayerCount: 2
Fore
SplineSet
690 -609 m 0
 908 -609 1190 -539 1190 -325 c 0
 1190 -160 1052 -132 922 -107 c 0
 786 -80 660 -49 660 85 c 0
 660 300 909 440 1191 490 c 1
 1266 211 1382 28 1712 28 c 2
 3243 28 l 2
 3253 28 3260 35 3260 45 c 0
 3260 55 3253 62 3243 62 c 2
 1712 62 l 2
 1396 62 1294 230 1221 514 c 0
 1219 522 1210 528 1201 527 c 0
 911 479 626 335 626 85 c 0
 626 -81 786 -116 916 -141 c 0
 1052 -168 1154 -190 1154 -325 c 0
 1154 -501 912 -573 690 -573 c 0
 368 -573 198 -454 198 -151 c 0
 198 -30 224 108 263 247 c 0
 266 256 260 266 251 269 c 0
 242 272 232 266 229 257 c 0
 190 116 162 -24 162 -151 c 0
 162 -476 358 -609 690 -609 c 0
EndSplineSet
EndChar

StartChar: uniE022
Encoding: 57378 57378 498
GlifName: uniE_022
Width: 2712
Flags: HW
LayerCount: 2
Fore
SplineSet
690 -609 m 0
 908 -609 1190 -539 1190 -325 c 0
 1190 -160 1052 -132 922 -107 c 0
 786 -80 660 -49 660 85 c 0
 660 300 909 440 1191 490 c 1
 1265.92419275 211.282002974 1381.76554479 28.3700374636 1711 28.0005607919 c 1
 2712 28 l 1
 2722 28 2729 35 2729 45 c 0
 2729 55 2722 62 2712 62 c 1
 1711 62.0005615413 l 1
 1395.78047204 62.3548107437 1291.92505242 230.299790304 1221 514 c 0
 1219 522 1210 528 1201 527 c 0
 911 479 626 335 626 85 c 0
 626 -81 786 -116 916 -141 c 0
 1052 -168 1154 -190 1154 -325 c 0
 1154 -501 912 -573 690 -573 c 0
 368 -573 198 -454 198 -151 c 0
 198 -30 224 108 263 247 c 0
 266 256 260 266 251 269 c 0
 242 272 232 266 229 257 c 0
 190 116 162 -24 162 -151 c 0
 162 -476 358 -609 690 -609 c 0
EndSplineSet
EndChar

StartChar: uniE030
Encoding: 57392 57392 514
GlifName: uniE_030
Width: 0
Flags: HW
LayerCount: 2
Fore
SplineSet
148 1736 m 0
 157 1738 166 1731 168 1722 c 0
 183 1631 192 1537 192 1441 c 0
 192 1392 189 1342 185 1292 c 1
 229 1372 297 1440 393 1440 c 0
 468 1440 532 1386 532 1309 c 0
 532 1172 371 1140 258 1140 c 0
 222 1140 187 1141 152 1145 c 0
 102 1151 53 1161 4 1174 c 0
 -5 1176 -11 1187 -9 1196 c 0
 -7 1205 4 1210 13 1208 c 0
 54 1197 95 1189 137 1183 c 1
 150 1272 156 1358 156 1441 c 0
 156 1535 149 1627 134 1716 c 0
 132 1725 139 1734 148 1736 c 0
175 1178 m 1
 202 1175 230 1174 258 1174 c 0
 375 1174 498 1210 498 1309 c 0
 498 1364 452 1404 393 1404 c 0
 284 1404 211 1292 175 1178 c 1
EndSplineSet
Colour: ff00ff
EndChar

StartChar: uniE031
Encoding: 57393 57393 515
GlifName: uniE_031
Width: 883
Flags: HW
LayerCount: 2
Fore
SplineSet
654 612 m 0
 647 605 636 606 629 613 c 0
 579 665 522 686 457 686 c 0
 334 686 204 563 204 414 c 0
 204 308 264 218 445 218 c 0
 514 218 634 227 721 238 c 0
 730 239 739 232 740 223 c 0
 741 214 734 205 725 204 c 0
 636 193 516 184 445 184 c 0
 248 184 168 290 168 414 c 0
 168 581 312 722 457 722 c 0
 530 722 599 697 655 637 c 0
 662 630 661 619 654 612 c 0
740 224 m 0
 742 215 735 206 726 204 c 0
 534 167 349 95 169 -15 c 0
 161 -20 150 -17 145 -9 c 0
 140 -1 143 10 151 15 c 0
 335 127 524 201 720 238 c 0
 729 240 738 233 740 224 c 0
EndSplineSet
Colour: ff00ff
EndChar

StartChar: uniE032
Encoding: 57394 57394 516
GlifName: uniE_032
Width: 522
Flags: HW
LayerCount: 2
Fore
SplineSet
-96 1420 m 0
 -105 1424 -111 1434 -107 1443 c 0
 -46 1602 48 1699 179 1699 c 0
 253 1699 318 1665 384 1629 c 0
 454 1591 525 1556 602 1556 c 0
 677 1556 747 1603 747 1736 c 0
 747 1746 755 1754 765 1754 c 0
 775 1754 783 1746 783 1736 c 0
 783 1587 697 1520 602 1520 c 0
 513 1520 438 1559 368 1597 c 0
 302 1633 241 1663 179 1663 c 0
 70 1663 -14 1584 -73 1431 c 0
 -77 1422 -87 1416 -96 1420 c 0
278 1163 m 0
 287 1164 296 1157 297 1148 c 0
 326 931 342 703 342 468 c 0
 342 313 335 157 322 0 c 0
 321 -9 312 -17 303 -16 c 0
 294 -15 286 -7 287 2 c 0
 300 159 306 315 306 468 c 0
 306 701 292 929 263 1144 c 0
 262 1153 269 1162 278 1163 c 0
EndSplineSet
Colour: ff00ff
EndChar

StartChar: uniE033
Encoding: 57395 57395 517
GlifName: uniE_033
Width: 445
Flags: HW
LayerCount: 2
Fore
SplineSet
198 1183 m 0
 207 1184 216 1177 217 1168 c 0
 249 928 262 795 262 531 c 0
 262 366 256 166 242 0 c 0
 241 -9 232 -17 223 -16 c 0
 214 -15 206 -7 207 2 c 0
 221 166 228 366 228 531 c 0
 228 793 215 924 183 1164 c 0
 182 1173 189 1182 198 1183 c 0
EndSplineSet
Colour: ff00ff
EndChar

StartChar: uniE034
Encoding: 57396 57396 518
GlifName: uniE_034
Width: 1252
Flags: HW
LayerCount: 2
Fore
SplineSet
693 -611 m 0
 425 -611 142 -486 142 -201 c 0
 142 269 816 469 1033 514 c 1
 851 602 533 747 433 747 c 0
 337 747 254 697 198 537 c 0
 195 528 184 523 175 526 c 0
 166 529 161 540 164 549 c 0
 224 719 319 783 433 783 c 0
 564 783 934 603 1093 525 c 0
 1106 519 1110 514 1110 506 c 0
 1110 497 1103 489 1092 488 c 0
 968 474 178 279 178 -201 c 0
 178 -454 431 -575 693 -575 c 0
 827 -575 962 -543 1080 -480 c 0
 1089 -475 1099 -479 1104 -488 c 0
 1109 -497 1105 -507 1096 -512 c 0
 972 -577 833 -611 693 -611 c 0
EndSplineSet
Colour: ff00ff
EndChar

StartChar: uniE035
Encoding: 57397 57397 519
GlifName: uniE_035
Width: 900
Flags: HW
LayerCount: 2
Fore
SplineSet
403 783 m 0
 409 790 421 790 428 784 c 0
 564 663 758 467 758 245 c 0
 758 92 597 -2 397 -2 c 0
 322 -2 240 9 155 38 c 0
 146 41 141 52 144 61 c 0
 147 70 157 75 166 72 c 0
 247 45 326 32 397 32 c 0
 591 32 722 122 722 245 c 0
 722 447 540 637 404 758 c 0
 397 764 397 776 403 783 c 0
EndSplineSet
Colour: ff00ff
EndChar

StartChar: uniE036
Encoding: 57398 57398 520
GlifName: uniE_036
Width: 807
Flags: HW
LayerCount: 2
Fore
SplineSet
538 501 m 0
 547 503 557 497 559 488 c 0
 601 329 624 191 624 71 c 0
 624 -227 490 -407 164 -474 c 0
 155 -476 145 -470 143 -461 c 0
 141 -452 148 -442 157 -440 c 0
 469 -375 590 -213 590 71 c 0
 590 187 567 323 525 480 c 0
 523 489 529 499 538 501 c 0
EndSplineSet
Colour: ff00ff
EndChar

StartChar: uniE037
Encoding: 57399 57399 521
GlifName: uniE_037
Width: 2260
Flags: HW
LayerCount: 2
Fore
SplineSet
263 375 m 0
 272 371 276 361 272 352 c 0
 216 215 178 71 178 -58 c 0
 178 -280 317 -456 644 -456 c 0
 958 -456 1102 -270 1102 -23 c 0
 1102 100 1073 239 1022 376 c 0
 1019 385 1023 395 1032 398 c 0
 1041 401 1051 397 1054 388 c 0
 1106 247 1138 106 1138 -23 c 0
 1138 -286 976 -490 644 -490 c 0
 301 -490 142 -300 142 -58 c 0
 142 77 182 227 240 366 c 0
 244 375 254 379 263 375 c 0
1032 398 m 0
 1041 401 1051 397 1054 388 c 0
 1160 119 1241 38 1362 38 c 0
 1514 38 1589 143 1626 422 c 0
 1627 431 1636 438 1645 437 c 0
 1654 436 1661 427 1660 418 c 0
 1623 137 1542 2 1362 2 c 0
 1217 2 1128 107 1022 376 c 0
 1019 385 1023 395 1032 398 c 0
1645 437 m 0
 1654 436 1661 427 1660 418 c 0
 1652 360 1648 328 1648 275 c 0
 1648 125 1723 34 1867 34 c 0
 2011 34 2082 141 2082 298 c 0
 2082 398 2064 485 2043 562 c 0
 2041 571 2047 582 2056 584 c 0
 2065 586 2075 581 2077 572 c 0
 2098 493 2118 402 2118 298 c 0
 2118 131 2035 -2 1867 -2 c 0
 1702 -2 1614 111 1614 275 c 0
 1614 330 1618 364 1626 422 c 0
 1627 431 1636 438 1645 437 c 0
EndSplineSet
Colour: ff00ff
EndChar

StartChar: uniE038
Encoding: 57400 57400 522
GlifName: uniE_038
Width: 2305
Flags: HW
LayerCount: 2
Fore
SplineSet
2163 378 m 0
 2163 120 1880 -2 1650 -2 c 0
 1276 -2 1123 147 1035 359 c 0
 1031 368 1035 378 1044 382 c 0
 1053 386 1063 382 1067 373 c 0
 1151 171 1288 32 1650 32 c 0
 1874 32 2128 152 2128 378 c 0
 2128 510 2015 592 1873 592 c 0
 1638 592 1471 413 1344 144 c 0
 1340 135 1330 131 1321 135 c 0
 1312 139 1308 149 1312 158 c 0
 1441 431 1616 628 1873 628 c 0
 2027 628 2163 534 2163 378 c 0
1046 383 m 0
 1055 386 1065 380 1068 371 c 0
 1113 232 1136 104 1136 -7 c 0
 1136 -307 960 -490 589 -490 c 0
 363 -490 142 -377 142 -117 c 0
 142 48 221 236 319 390 c 0
 324 398 336 401 344 396 c 0
 352 391 354 380 349 372 c 0
 253 222 178 38 178 -117 c 0
 178 -351 373 -456 589 -456 c 0
 946 -456 1102 -289 1102 -7 c 0
 1102 100 1079 224 1034 361 c 0
 1031 370 1037 380 1046 383 c 0
EndSplineSet
Colour: ff00ff
EndChar

StartChar: uniE039
Encoding: 57401 57401 523
GlifName: uniE_039
Width: 1511
Flags: HW
LayerCount: 2
Fore
SplineSet
1369 449 m 0
 1369 141 1049 -2 574 -2 c 0
 446 -2 307 8 158 28 c 0
 149 29 142 38 143 47 c 0
 144 56 153 63 162 62 c 0
 309 42 448 32 574 32 c 0
 1049 32 1334 175 1334 449 c 0
 1334 588 1229 686 1087 686 c 0
 804 686 507 329 405 -76 c 0
 403 -85 393 -91 384 -89 c 0
 375 -87 369 -77 371 -68 c 0
 475 343 776 720 1087 720 c 0
 1247 720 1369 608 1369 449 c 0
383 -89 m 0
 374 -86 368 -76 371 -67 c 0
 463 220 512 545 512 892 c 0
 512 996 508 1103 499 1210 c 0
 498 1219 506 1227 515 1228 c 0
 524 1229 533 1221 534 1212 c 0
 543 1103 546 996 546 892 c 0
 546 541 499 214 405 -77 c 0
 402 -86 392 -92 383 -89 c 0
EndSplineSet
Colour: ff00ff
EndChar

StartChar: uniE03A
Encoding: 57402 57402 524
GlifName: uniE_03A_
Width: 1275
Flags: HW
LayerCount: 2
Fore
SplineSet
865 988 m 0
 858 982 846 982 840 989 c 0
 788 1044 716 1076 632 1076 c 0
 467 1076 300 933 300 745 c 0
 300 554 464 474 687 474 c 0
 730 474 774 477 817 480 c 0
 840 482 863 483 885 484 c 0
 895 484 904 478 904 468 c 0
 904 458 897 450 887 450 c 0
 865 449 842 448 819 446 c 0
 776 443 732 440 687 440 c 0
 460 440 266 524 266 745 c 0
 266 955 449 1112 632 1112 c 0
 726 1112 808 1076 866 1013 c 0
 872 1006 872 994 865 988 c 0
904 467 m 0
 904 457 896 450 886 450 c 0
 573 450 178 189 178 -172 c 0
 178 -455 427 -582 717 -582 c 0
 857 -582 999 -548 1107 -493 c 0
 1115 -489 1127 -493 1131 -501 c 0
 1135 -509 1131 -521 1123 -525 c 0
 1009 -584 863 -616 717 -616 c 0
 421 -616 142 -483 142 -172 c 0
 142 215 559 484 886 484 c 0
 896 484 904 477 904 467 c 0
EndSplineSet
Colour: ff00ff
EndChar

StartChar: uniE03B
Encoding: 57403 57403 525
GlifName: uniE_03B_
Width: 1668
Flags: HW
LayerCount: 2
Fore
SplineSet
-18 45 m 0
 -18 55 -10 62 0 62 c 2
 1668 62 l 2
 1678 62 1686 55 1686 45 c 0
 1686 35 1678 28 1668 28 c 2
 0 28 l 2
 -10 28 -18 35 -18 45 c 0
EndSplineSet
Colour: ff00ff
EndChar

StartChar: uniE03C
Encoding: 57404 57404 526
GlifName: uniE_03C_
Width: 1276
Flags: HW
LayerCount: 2
Fore
SplineSet
1046 1228 m 0
 1056 1229 1063 1222 1064 1212 c 0
 1092 822 1114 495 1114 148 c 0
 1114 -192 1007 -442 619 -442 c 0
 321 -442 142 -267 142 -15 c 0
 142 117 188 264 239 366 c 0
 243 375 254 378 263 374 c 0
 272 370 275 359 271 350 c 0
 222 252 178 109 178 -15 c 0
 178 -247 337 -406 619 -406 c 0
 983 -406 1078 -186 1078 148 c 0
 1078 493 1058 820 1030 1210 c 0
 1029 1220 1036 1227 1046 1228 c 0
EndSplineSet
Colour: ff00ff
EndChar

StartChar: uniE03D
Encoding: 57405 57405 527
GlifName: uniE_03D_
Width: 1177
Flags: HW
LayerCount: 2
Fore
SplineSet
724 590 m 0
 900 590 1035 459 1035 221 c 0
 1035 70 938 -2 796 -2 c 0
 699 -2 602 17 516 35 c 0
 446 50 382 62 332 62 c 0
 244 62 178 22 178 -166 c 0
 178 -183 178 -200 179 -218 c 2
 208 -803 l 2
 208 -813 202 -821 192 -821 c 0
 182 -821 174 -815 174 -805 c 2
 144 -220 l 2
 143 -199 142 -183 142 -166 c 0
 142 32 223 98 332 98 c 0
 388 98 454 84 524 69 c 0
 610 51 703 32 796 32 c 0
 924 32 1000 90 1000 221 c 0
 1000 445 878 556 724 556 c 0
 530 556 457 310 438 193 c 0
 436 184 427 177 418 179 c 0
 409 181 402 190 404 199 c 0
 423 314 496 590 724 590 c 0
EndSplineSet
Colour: ff00ff
EndChar

StartChar: uniE03E
Encoding: 57406 57406 528
GlifName: uniE_03E_
Width: 865
Flags: HW
LayerCount: 2
Fore
SplineSet
429 -2 m 0
 256 -2 142 105 142 242 c 0
 142 392 251 600 418 743 c 0
 425 749 436 748 442 741 c 0
 448 734 447 723 440 717 c 0
 279 580 178 378 178 242 c 0
 178 127 270 32 429 32 c 0
 589 32 688 127 688 257 c 0
 688 403 545 628 324 820 c 0
 317 826 316 837 322 844 c 0
 328 851 339 852 346 846 c 0
 571 652 722 421 722 257 c 0
 722 105 604 -2 429 -2 c 0
EndSplineSet
Colour: ff00ff
EndChar

StartChar: uniE03F
Encoding: 57407 57407 529
GlifName: uniE_03F_
Width: 878
Flags: HW
LayerCount: 2
Fore
SplineSet
444 664 m 0
 680 664 736 320 736 108 c 0
 736 -256 502 -414 163 -478 c 0
 154 -480 145 -473 143 -464 c 0
 141 -455 148 -446 157 -444 c 0
 488 -382 700 -234 700 108 c 0
 700 328 638 628 444 628 c 0
 319 628 222 471 222 260 c 0
 222 110 297 32 452 32 c 0
 495 32 545 39 601 53 c 0
 610 55 620 49 622 40 c 0
 624 31 618 21 609 19 c 0
 551 5 499 -2 452 -2 c 0
 281 -2 186 94 186 260 c 0
 186 475 286 664 444 664 c 0
EndSplineSet
Colour: ff00ff
EndChar

StartChar: uniE040
Encoding: 57408 57408 530
GlifName: uniE_040
Width: 0
Flags: HW
LayerCount: 2
Fore
SplineSet
149 1889 m 0
 150 1879 143 1872 133 1871 c 0
 9 1862 -138 1718 -138 1561 c 0
 -138 1530 -132 1499 -120 1468 c 0
 -116 1459 -120 1450 -129 1446 c 0
 -138 1442 -148 1447 -152 1456 c 0
 -166 1491 -172 1526 -172 1561 c 0
 -172 1738 -13 1894 131 1905 c 0
 141 1906 148 1899 149 1889 c 0
191 1696 m 0
 295 1696 298 1565 298 1488 c 0
 298 1289 171 1222 -34 1211 c 0
 -44 1210 -51 1217 -52 1227 c 0
 -53 1237 -46 1244 -36 1245 c 0
 163 1256 262 1313 262 1488 c 0
 262 1577 253 1660 191 1660 c 0
 121 1660 74 1578 74 1508 c 0
 74 1422 240 1400 355 1400 c 0
 365 1400 372 1393 372 1383 c 0
 372 1373 365 1366 355 1366 c 0
 254 1366 40 1376 40 1508 c 0
 40 1586 91 1696 191 1696 c 0
EndSplineSet
Colour: ff00ff
EndChar

StartChar: uniE041
Encoding: 57409 57409 531
GlifName: uniE_041
Width: 0
Flags: HW
LayerCount: 2
Fore
SplineSet
-1 1335 m 0
 -4 1344 0 1354 9 1357 c 2
 414 1501 l 2
 423 1504 433 1500 436 1491 c 0
 439 1482 435 1472 426 1469 c 2
 21 1325 l 2
 12 1322 2 1326 -1 1335 c 0
EndSplineSet
Colour: ff00ff
EndChar

StartChar: uniE042
Encoding: 57410 57410 532
GlifName: uniE_042
Width: 0
Flags: HW
LayerCount: 2
Fore
SplineSet
191 1696 m 0
 295 1696 298 1565 298 1488 c 0
 298 1289 171 1222 -34 1211 c 0
 -44 1210 -51 1217 -52 1227 c 0
 -53 1237 -46 1244 -36 1245 c 0
 163 1256 262 1313 262 1488 c 0
 262 1577 253 1660 191 1660 c 0
 121 1660 74 1578 74 1508 c 0
 74 1422 240 1400 355 1400 c 0
 365 1400 372 1393 372 1383 c 0
 372 1373 365 1366 355 1366 c 0
 254 1366 40 1376 40 1508 c 0
 40 1586 91 1696 191 1696 c 0
EndSplineSet
Colour: ff00ff
EndChar

StartChar: uniE043
Encoding: 57411 57411 533
GlifName: uniE_043
Width: 0
Flags: HW
LayerCount: 2
Fore
SplineSet
411 1576 m 0
 420 1580 430 1576 434 1567 c 0
 455 1520 480 1443 480 1374 c 0
 480 1289 431 1246 364 1246 c 0
 306 1246 262 1287 239 1350 c 1
 215 1287 168 1246 110 1246 c 0
 49 1246 -2 1284 -2 1360 c 0
 -2 1419 27 1483 62 1529 c 0
 68 1537 79 1538 87 1532 c 0
 95 1526 96 1515 90 1507 c 0
 59 1467 34 1407 34 1360 c 0
 34 1304 65 1282 110 1282 c 0
 165 1282 217 1337 222 1443 c 0
 222 1451 228 1458 237 1459 c 0
 247 1460 255 1453 256 1443 c 0
 262 1336 309 1280 364 1280 c 0
 413 1280 446 1305 446 1374 c 0
 446 1435 421 1510 402 1553 c 0
 398 1562 402 1572 411 1576 c 0
EndSplineSet
Colour: ff00ff
EndChar

StartChar: uniE044
Encoding: 57412 57412 534
GlifName: uniE_044
Width: 0
Flags: HW
LayerCount: 2
Fore
SplineSet
176 1572 m 0
 115 1572 54 1514 54 1434 c 0
 54 1374 105 1314 175 1314 c 0
 238 1314 296 1368 296 1452 c 0
 296 1512 248 1572 176 1572 c 0
176 1606 m 0
 270 1606 330 1530 330 1452 c 0
 330 1352 260 1280 175 1280 c 0
 85 1280 20 1356 20 1434 c 0
 20 1532 93 1606 176 1606 c 0
EndSplineSet
Colour: ff00ff
EndChar

StartChar: uniE045
Encoding: 57413 57413 535
GlifName: uniE_045
Width: 0
Flags: HW
LayerCount: 2
Fore
SplineSet
579 1432 m 0
 588 1428 591 1417 587 1408 c 0
 553 1338 501 1270 419 1270 c 0
 383 1270 341 1284 296 1315 c 0
 259 1341 226 1352 194 1352 c 0
 134 1352 80 1312 44 1249 c 0
 39 1241 28 1238 20 1243 c 0
 12 1248 9 1259 14 1267 c 0
 54 1336 118 1386 194 1386 c 0
 234 1386 275 1371 316 1343 c 0
 357 1316 391 1306 419 1306 c 0
 479 1306 523 1356 555 1424 c 0
 559 1433 570 1436 579 1432 c 0
EndSplineSet
Colour: ff00ff
EndChar

StartChar: uniE046
Encoding: 57414 57414 536
GlifName: uniE_046
Width: 0
Flags: HW
LayerCount: 2
Fore
SplineSet
362 1573 m 0
 354 1567 344 1569 338 1577 c 0
 306 1620 267 1636 228 1636 c 0
 148 1636 68 1562 68 1463 c 0
 68 1374 127 1340 221 1340 c 0
 279 1340 345 1354 413 1378 c 0
 423 1381 433 1375 436 1365 c 0
 438 1356 434 1347 425 1344 c 2
 20 1203 l 2
 11 1200 0 1205 -3 1214 c 0
 -6 1223 -1 1234 8 1237 c 2
 207 1306 l 1
 112 1310 32 1353 32 1463 c 0
 32 1580 128 1672 228 1672 c 0
 279 1672 328 1648 366 1597 c 0
 372 1589 370 1579 362 1573 c 0
EndSplineSet
Colour: ff00ff
EndChar

StartChar: uniE047
Encoding: 57415 57415 537
GlifName: uniE_047
Width: 0
Flags: HW
LayerCount: 2
Fore
SplineSet
226 1005 m 1
 226 1127 140 1390 14 1511 c 0
 7 1518 6 1529 13 1536 c 0
 20 1543 31 1544 38 1537 c 0
 139 1440 211 1269 243 1133 c 1
 274 1268 347 1440 448 1537 c 0
 455 1544 466 1543 473 1536 c 0
 480 1529 479 1518 472 1511 c 0
 346 1390 260 1129 260 1004 c 0
 260 993 252 988 244 988 c 0
 235 988 226 994 226 1005 c 1
EndSplineSet
Colour: ff00ff
EndChar

StartChar: uniE048
Encoding: 57416 57416 538
GlifName: uniE_048
Width: 1726
Flags: HW
LayerCount: 2
Fore
SplineSet
1499 642 m 0
 1507 647 1518 644 1523 636 c 0
 1557 576 1584 474 1584 383 c 0
 1584 46 1127 -2 843 -2 c 0
 536 -2 142 41 142 373 c 0
 142 447 159 543 184 594 c 0
 188 603 199 606 208 602 c 0
 217 598 220 587 216 578 c 0
 195 537 178 441 178 373 c 0
 178 81 528 32 843 32 c 0
 1137 32 1548 88 1548 383 c 0
 1548 468 1523 566 1493 618 c 0
 1488 626 1491 637 1499 642 c 0
EndSplineSet
Colour: ff00ff
EndChar

StartChar: uniE049
Encoding: 57417 57417 539
GlifName: uniE_049
Width: 1439
Flags: HW
LayerCount: 2
Fore
SplineSet
998 660 m 0
 1250 660 1296 310 1296 91 c 0
 1296 -263 1112 -484 717 -484 c 0
 327 -484 142 -306 142 -40 c 0
 142 108 195 280 289 463 c 0
 293 471 304 475 312 471 c 0
 320 467 324 455 320 447 c 0
 228 268 178 100 178 -40 c 0
 178 -284 339 -448 717 -448 c 0
 1094 -448 1262 -247 1262 91 c 0
 1262 318 1208 626 998 626 c 0
 849 626 740 452 740 260 c 0
 740 96 827 32 996 32 c 0
 1095 32 1170 49 1236 85 c 0
 1244 90 1254 86 1259 78 c 0
 1264 70 1260 60 1252 55 c 0
 1180 17 1099 -4 996 -4 c 0
 815 -4 706 76 706 260 c 0
 706 460 819 660 998 660 c 0
EndSplineSet
Colour: ff00ff
EndChar

StartChar: uniE04A
Encoding: 57418 57418 540
GlifName: uniE_04A_
Width: 0
Flags: HW
LayerCount: 2
Fore
SplineSet
12 1640 m 0
 21 1641 30 1634 31 1625 c 0
 39 1548 44 1478 44 1409 c 0
 44 1337 37 1264 13 1193 c 0
 10 1184 0 1179 -9 1182 c 0
 -18 1185 -24 1196 -21 1205 c 0
 1 1272 8 1339 8 1409 c 0
 8 1476 5 1544 -3 1621 c 0
 -4 1630 3 1639 12 1640 c 0
EndSplineSet
Colour: ff00ff
EndChar

StartChar: uniE04B
Encoding: 57419 57419 541
GlifName: uniE_04B_
Width: 1719
Flags: HW
LayerCount: 2
Fore
SplineSet
1280 1050 m 0
 1502 1050 1576 751 1576 406 c 0
 1576 55 1185 -6 829 -6 c 0
 509 -6 142 49 142 367 c 0
 142 441 158 511 176 575 c 0
 179 584 189 590 198 587 c 0
 207 584 213 574 210 565 c 0
 192 503 178 437 178 367 c 0
 178 87 503 28 829 28 c 0
 1191 28 1542 93 1542 406 c 0
 1542 759 1462 1014 1280 1014 c 0
 1111 1014 1012 836 1012 658 c 0
 1012 504 1068 410 1259 410 c 0
 1359 410 1466 436 1541 469 c 0
 1550 473 1560 469 1564 460 c 0
 1568 451 1564 441 1555 437 c 0
 1476 402 1365 376 1259 376 c 0
 1048 376 976 492 976 658 c 0
 976 844 1081 1050 1280 1050 c 0
EndSplineSet
Colour: ff00ff
EndChar

StartChar: uniE04C
Encoding: 57420 57420 542
GlifName: uniE_04C_
Width: 1870
Flags: HW
LayerCount: 2
Fore
SplineSet
1726 1319 m 0
 1730 1310 1727 1299 1718 1295 c 2
 1005 946 l 1
 1189 758 1406 526 1406 303 c 0
 1406 79 1188 -2 768 -2 c 0
 402 -2 142 59 142 340 c 0
 142 395 151 459 173 531 c 0
 176 540 186 546 195 543 c 0
 204 540 210 530 207 521 c 0
 186 451 178 391 178 340 c 0
 178 93 398 32 768 32 c 0
 1192 32 1370 115 1370 303 c 0
 1370 511 1151 747 963 939 c 0
 963 939 962 941 961 942 c 0
 956 951 959 963 968 967 c 2
 1702 1327 l 2
 1711 1331 1722 1328 1726 1319 c 0
EndSplineSet
Colour: ff00ff
EndChar

StartChar: uniE04D
Encoding: 57421 57421 543
GlifName: uniE_04D_
Width: 1384
Flags: HW
LayerCount: 2
Fore
SplineSet
240 420 m 0
 249 417 253 407 250 398 c 0
 203 275 178 126 178 16 c 0
 178 -248 335 -408 697 -408 c 0
 1066 -408 1206 -231 1206 23 c 0
 1206 155 1171 314 1112 452 c 0
 1108 461 1112 471 1121 475 c 0
 1130 479 1140 475 1144 466 c 0
 1205 324 1242 161 1242 23 c 0
 1242 -249 1080 -442 697 -442 c 0
 323 -442 142 -268 142 16 c 0
 142 132 169 283 218 410 c 0
 221 419 231 423 240 420 c 0
EndSplineSet
Colour: ff00ff
EndChar

StartChar: uniE04E
Encoding: 57422 57422 544
GlifName: uniE_04E_
Width: 1347
Flags: HW
LayerCount: 2
Fore
SplineSet
1149 628 m 0
 1144 620 1133 619 1125 624 c 0
 1067 664 1005 680 944 680 c 0
 761 680 590 519 590 324 c 0
 590 130 742 100 928 97 c 0
 1137 94 1214 39 1214 -116 c 0
 1214 -310 997 -442 671 -442 c 0
 320 -442 152 -317 152 -13 c 0
 152 72 164 169 186 281 c 0
 188 290 198 297 207 295 c 0
 216 293 222 284 220 275 c 0
 198 165 188 68 188 -13 c 0
 188 -295 330 -408 671 -408 c 0
 993 -408 1180 -278 1180 -116 c 0
 1180 17 1131 60 928 63 c 0
 744 66 556 98 556 324 c 0
 556 539 741 716 944 716 c 0
 1011 716 1081 696 1145 652 c 0
 1153 647 1154 636 1149 628 c 0
EndSplineSet
Colour: ff00ff
EndChar

StartChar: uniE04F
Encoding: 57423 57423 545
GlifName: uniE_04F_
Width: 2959
Flags: HW
LayerCount: 2
Fore
SplineSet
2976 45 m 0
 2976 35 2969 28 2959 28 c 0
 1957.99994995 28.00055257 l 1
 1691.66288968 28.2950829342 1556.98625799 146.35104585 1546 427 c 1
 1430 136 1138 -2 711 -2 c 0
 353 -2 142 148 142 414 c 0
 142 478 154 550 179 628 c 0
 182 637 192 643 201 640 c 0
 210 637 216 627 213 618 c 0
 189 542 178 474 178 414 c 0
 178 174 361 32 711 32 c 0
 1188 32 1477 205 1549 559 c 0
 1551 567 1558 573 1566 573 c 0
 1576 573 1584 565 1583 555 c 0
 1581 523 1580 494 1580 465 c 0
 1580 171.372887895 1695.70593493 62.2767927066 1958 62.000526184 c 1
 2959 62 l 0
 2969 62 2976 55 2976 45 c 0
EndSplineSet
Colour: ff00ff
EndChar

StartChar: uniE050
Encoding: 57424 57424 546
GlifName: uniE_050
Width: 852
Flags: HW
LayerCount: 2
Fore
SplineSet
418 1064 m 0
 650 1064 710 709 710 399 c 0
 710 111 441 28 0 28 c 0
 -10 28 -17 35 -17 45 c 0
 -17 55 -10 62 0 62 c 0
 445 62 674 145 674 399 c 0
 674 719 606 1028 418 1028 c 0
 248 1028 168 828 168 665 c 0
 168 499 264 432 435 432 c 0
 503 432 566 448 620 470 c 0
 629 474 639 470 643 461 c 0
 647 452 643 442 634 438 c 0
 576 414 509 398 435 398 c 0
 252 398 132 477 132 665 c 0
 132 832 214 1064 418 1064 c 0
EndSplineSet
Colour: ff00ff
EndChar

StartChar: uniE051
Encoding: 57425 57425 547
GlifName: uniE_051
Width: 1945
Flags: HW
LayerCount: 2
Fore
SplineSet
483 826 m 0
 662 826 770 677 770 499 c 0
 770 172 347 28 0 28 c 0
 -10 28 -17 35 -17 45 c 0
 -17 55 -10 62 0 62 c 0
 347 62 734 208 734 499 c 0
 734 663 638 790 483 790 c 0
 326 790 210 663 210 504 c 0
 210 210.266307898 576.335437185 62.2682393078 943.999989403 62.0003642962 c 1
 1945 62 l 0
 1955 62 1962 55 1962 45 c 0
 1962 35 1955 28 1945 28 c 0
 944.000009758 28.0003593282 l 1
 576.273945524 28.2646197168 176 174.298885948 176 504 c 0
 176 681 305 826 483 826 c 0
EndSplineSet
Colour: ff00ff
EndChar

StartChar: uniE052
Encoding: 57426 57426 548
GlifName: uniE_052
Width: 645
Flags: HW
LayerCount: 2
Fore
SplineSet
889 1714 m 0
 897 1709 900 1698 895 1690 c 0
 845 1602 787 1550 705 1550 c 0
 654 1550 597 1569 533 1606 c 0
 465 1645 408 1662 362 1662 c 0
 275 1662 166 1572 144 1473 c 0
 142 1464 132 1458 123 1460 c 0
 114 1462 108 1472 110 1481 c 0
 136 1596 255 1696 362 1696 c 0
 416 1696 479 1677 551 1636 c 0
 613 1601 664 1584 705 1584 c 0
 769 1584 817 1624 865 1708 c 0
 870 1716 881 1719 889 1714 c 0
398 1183 m 0
 407 1184 416 1177 417 1168 c 0
 449 928 462 795 462 531 c 0
 462 366 456 166 442 0 c 0
 441 -9 432 -17 423 -16 c 0
 414 -15 406 -7 407 2 c 0
 421 166 428 366 428 531 c 0
 428 793 415 924 383 1164 c 0
 382 1173 389 1182 398 1183 c 0
EndSplineSet
Colour: ff00ff
EndChar

StartChar: uniE053
Encoding: 57427 57427 549
GlifName: uniE_053
Width: 2383
Flags: HW
LayerCount: 2
Fore
SplineSet
1949 1028 m 0
 1779 1028 1698 828 1698 665 c 0
 1698 499 1795 432 1966 432 c 0
 2034 432 2097 448 2151 470 c 0
 2160 474 2170 470 2174 461 c 0
 2178 452 2174 442 2165 438 c 0
 2107 414 2040 398 1966 398 c 0
 1783 398 1664 477 1664 665 c 0
 1664 832 1745 1064 1949 1064 c 0
 2181 1064 2240 709 2240 398 c 0
 2240 274 2189 185 2107 127 c 0
 2003 54 1854 28 1698 28 c 0
 697 28.0001333501 l 1
 457.630442438 28.0640327866 324.898548265 51.1070107345 252 128 c 0
 196 189 182 277 182 398 c 0
 182 658 185 934 195 1212 c 0
 195 1222 203 1228 213 1228 c 0
 223 1228 229 1220 229 1210 c 0
 219 932 218 658 218 398 c 0
 218 279 232 201 278 152 c 0
 336.917999059 89.0875603273 457.663776919 62.0751212493 697 62.0001564897 c 1
 1698 62 l 0
 1850 62 1993 88 2087 155 c 0
 2161 207 2206 284 2206 398 c 0
 2206 719 2137 1028 1949 1028 c 0
EndSplineSet
Colour: ff00ff
EndChar

StartChar: uniE054
Encoding: 57428 57428 550
GlifName: uniE_054
Width: 2921
Flags: HW
LayerCount: 2
Fore
SplineSet
1726 1319 m 0
 1730 1310 1727 1299 1718 1295 c 2
 984 935 l 2
 975 931 964 934 960 943 c 0
 956 952 959 963 968 967 c 2
 1702 1327 l 2
 1711 1331 1722 1328 1726 1319 c 0
768 -2 m 0
 402 -2 142 59 142 340 c 0
 142 395 152 459 173 531 c 0
 177 542 187 545 196 542 c 0
 204 539 210 531 207 521 c 0
 186 451 178 391 178 340 c 0
 178 93 398 32 768 32 c 0
 1192 32 1370 115 1370 303 c 0
 1370 443 1293 554 1223 647 c 0
 1148 752 1053 849 963 939 c 0
 955 947 958 957 965 963 c 0
 971 968 981 970 988 963 c 0
 1084 867 1169 775 1251 668 c 0
 1309 590 1352 523 1386 433 c 0
 1514.86919937 83.3548854381 1591.84379695 62.0429245013 1920 62.0000650921 c 1
 2921 62 l 0
 2931 62 2939 55 2939 45 c 0
 2939 35 2931 28 2921 28 c 0
 1920 28.0000928636 l 1
 1632.72898841 28.0535711394 1515.8714394 51.2802852683 1405 293 c 1
 1398 76 1181 -2 768 -2 c 0
EndSplineSet
Colour: ff00ff
EndChar

StartChar: uniE055
Encoding: 57429 57429 551
GlifName: uniE_055
Width: 532
Flags: HW
LayerCount: 2
Fore
SplineSet
287 683 m 0
 296 686 306 680 309 671 c 0
 347 549 370 441 370 349 c 0
 370 254 350 176 296 119 c 0
 237 58 142 28 0 28 c 0
 -10 28 -17 35 -17 45 c 0
 -17 55 -10 62 0 62 c 0
 138 62 221 92 270 143 c 0
 316 190 334 258 334 349 c 0
 334 435 313 541 275 661 c 0
 272 670 278 680 287 683 c 0
EndSplineSet
Colour: ff00ff
EndChar

StartChar: uniE056
Encoding: 57430 57430 552
GlifName: uniE_056
Width: 1811
Flags: HW
LayerCount: 2
Fore
SplineSet
-18 45 m 0
 -18 55 -10 62 0 62 c 0
 32 62 62 63 89 66 c 0
 345 89 407 218 378 530 c 0
 377 540 385 549 395 549 c 0
 404 549 411 543 412 534 c 0
 446.965553663 187.341510823 471.950781262 62.2462602935 810 62.0003633221 c 1
 1811 62 l 0
 1821 62 1829 55 1829 45 c 0
 1829 35 1821 28 1811 28 c 0
 810 28.0003940244 l 1
 548.758157735 28.2064460911 453.945248197 109.238106678 411 296 c 1
 381 108 257 28 0 28 c 0
 -10 28 -18 35 -18 45 c 0
EndSplineSet
Colour: ff00ff
EndChar

StartChar: uniE057
Encoding: 57431 57431 553
GlifName: uniE_057
Width: 2382
Flags: HW
LayerCount: 2
Fore
SplineSet
2400 45 m 0
 2400 35 2392 28 2382 28 c 2
 951 28 l 1
 1128 -25 1218 -122 1218 -234 c 0
 1218 -394 1026 -528 703 -528 c 0
 307 -528 162 -332 162 -62 c 0
 162 85 204 254 267 425 c 0
 270 434 280 438 289 435 c 0
 298 432 303 422 300 413 c 0
 238 244 198 79 198 -62 c 0
 198 -314 323 -492 703 -492 c 0
 1022 -492 1184 -362 1184 -234 c 0
 1184 -119 1063 -7 773 28 c 0
 765 29 759 36 758 44 c 0
 757 54 765 62 775 62 c 2
 2382 62 l 2
 2392 62 2400 55 2400 45 c 0
EndSplineSet
Colour: ff00ff
EndChar

StartChar: uniE058
Encoding: 57432 57432 554
GlifName: uniE_058
Width: 2586
Flags: HW
LayerCount: 2
Fore
SplineSet
213 1228 m 0
 223 1228 229 1220 229 1210 c 0
 219 932 218 658 218 398 c 0
 218 279 232 201 278 152 c 0
 337.899933254 89.1050700837 457.599899904 62.0901602053 657 62.0002253422 c 1
 1658 62 l 0
 1804 62 1920 86 1993 135 c 0
 2054 175 2086 231 2086 312 c 0
 2086 511 1867 747 1679 939 c 0
 1672 946 1673 958 1681 964 c 0
 1682 965 1684 967 1684 967 c 1
 2418 1327 l 2
 2427 1331 2438 1328 2442 1319 c 0
 2446 1310 2443 1299 2434 1295 c 2
 1721 946 l 1
 1902 760 2122 526 2122 312 c 0
 2122 221 2082 151 2013 105 c 0
 1930 50 1808 28 1658 28 c 0
 656.999964377 28.0001920352 l 1
 457.5532439 28.0768617884 323.87992965 51.1284085686 252 128 c 0
 195 188 182 277 182 398 c 0
 182 658 185 934 195 1212 c 0
 195 1222 203 1228 213 1228 c 0
EndSplineSet
Colour: ff00ff
EndChar

StartChar: uniE059
Encoding: 57433 57433 555
GlifName: uniE_059
Width: 3206
Flags: HW
LayerCount: 2
Fore
SplineSet
289 435 m 0
 298 432 302 422 299 413 c 0
 237 244 198 79 198 -62 c 0
 198 -314 323 -492 703 -492 c 0
 1022 -492 1184 -362 1184 -234 c 0
 1184 -119 1063 -7 773 28 c 0
 764 29 757 38 758 47 c 0
 759 56 768 63 777 62 c 0
 1070 27 1218 -89 1218 -234 c 0
 1218 -394 1026 -528 703 -528 c 0
 307 -528 162 -332 162 -62 c 0
 162 85 205 254 267 425 c 0
 270 434 280 438 289 435 c 0
758 45 m 0
 758 55 765 62 775 62 c 2
 2152 62 l 2
 2550 62 2706 141 2706 312 c 0
 2706 511 2487 747 2299 939 c 0
 2292 946 2293 958 2301 964 c 0
 2302 965 2304 967 2304 967 c 1
 3038 1327 l 2
 3047 1331 3058 1328 3062 1319 c 0
 3066 1310 3063 1299 3054 1295 c 2
 2341 946 l 1
 2522 760 2742 526 2742 312 c 0
 2742 105 2546 28 2152 28 c 2
 775 28 l 2
 765 28 758 35 758 45 c 0
EndSplineSet
Colour: ff00ff
EndChar

StartChar: uniE05A
Encoding: 57434 57434 556
GlifName: uniE_05A_
Width: 3645
Flags: HW
LayerCount: 2
Fore
SplineSet
213 1228 m 0
 223 1228 229 1220 229 1210 c 0
 219 932 218 658 218 398 c 0
 218 279 232 201 278 152 c 0
 337.899933254 89.1050700837 457.599899904 62.0901602053 657 62.0002253422 c 1
 1658 62 l 0
 1804 62 1920 86 1993 135 c 0
 2054 175 2086 231 2086 312 c 0
 2086 511 1867 747 1679 939 c 0
 1672 946 1673 958 1681 964 c 0
 1682 965 1684 967 1684 967 c 1
 2418 1327 l 2
 2427 1331 2438 1328 2442 1319 c 0
 2446 1310 2443 1299 2434 1295 c 2
 1721 946 l 1
 1902 760 2122 526 2122 312 c 0
 2122 221 2082.2890625 150.563476562 2013 105 c 0
 1932.16503906 51.8447265625 1808.16503906 28.140625 1658 28 c 0
 656.999964377 28.0001920352 l 1
 457.5532439 28.0768617884 323.87992965 51.1284085686 252 128 c 0
 195 188 182 277 182 398 c 0
 182 658 185 934 195 1212 c 0
 195 1222 203 1228 213 1228 c 0
1680 963 m 0
 1687 970 1697 970 1704 963 c 0
 1873 791 2032 619 2102 433 c 0
 2232.8671875 84.353515625 2315.83203125 62.044921875 2644 62 c 1
 3645 62 l 0
 3655 62 3663 55 3663 45 c 0
 3663 35 3655 28 3645 28 c 0
 2644 28 l 1
 2309.79101562 28.068359375 2204.86523438 62.357421875 2070 421 c 0
 2004 597 1849 767 1680 939 c 0
 1673 946 1673 956 1680 963 c 0
EndSplineSet
Colour: ff00ff
EndChar

StartChar: uniE05B
Encoding: 57435 57435 557
GlifName: uniE_05B_
Width: 4265
Flags: HW
LayerCount: 2
Fore
SplineSet
2300 963 m 0
 2307 970 2317 970 2324 963 c 0
 2493 791 2652 619 2722 433 c 0
 2852.8671875 84.353515625 2935.83203125 62.044921875 3264 62 c 1
 4265 62 l 0
 4275 62 4283 55 4283 45 c 0
 4283 35 4275 28 4265 28 c 0
 3264 28 l 1
 2929.79101562 28.068359375 2824.86523438 62.357421875 2690 421 c 0
 2624 597 2469 767 2300 939 c 0
 2293 946 2293 956 2300 963 c 0
289 435 m 0
 298 432 302 422 299 413 c 0
 237 244 198 79 198 -62 c 0
 198 -314 323 -492 703 -492 c 0
 1022 -492 1184 -362 1184 -234 c 0
 1184 -119 1063 -7 773 28 c 0
 764 29 757 38 758 47 c 0
 759 56 768 63 777 62 c 0
 1070 27 1218 -89 1218 -234 c 0
 1218 -394 1026 -528 703 -528 c 0
 307 -528 162 -332 162 -62 c 0
 162 85 205 254 267 425 c 0
 270 434 280 438 289 435 c 0
758 45 m 0
 758 55 765 62 775 62 c 2
 2102 62 l 2
 2501 62 2706 142 2706 312 c 0
 2706 511 2487 747 2299 939 c 0
 2292 946 2293 958 2301 964 c 0
 2302 965 2304 967 2304 967 c 1
 3038 1327 l 2
 3047 1331 3058 1328 3062 1319 c 0
 3066 1310 3063 1299 3054 1295 c 2
 2341 946 l 1
 2522 760 2742 526 2742 312 c 0
 2742 104 2495 28 2102 28 c 2
 775 28 l 2
 765 28 758 35 758 45 c 0
EndSplineSet
Colour: ff00ff
EndChar

StartChar: uniE05C
Encoding: 57436 57436 558
GlifName: uniE_05C_
Width: 2443
Flags: HW
LayerCount: 2
Fore
SplineSet
690 -584 m 0
 358 -584 162 -451 162 -126 c 0
 162 1 190 141 229 282 c 0
 232 291 242 297 251 294 c 0
 260 291 266 281 263 272 c 0
 224 133 198 -5 198 -126 c 0
 198 -429 368 -548 690 -548 c 0
 912 -548 1154 -476 1154 -300 c 0
 1154 -165 1052 -143 916 -116 c 0
 786 -91 626 -56 626 110 c 0
 626 360 911 504 1201 552 c 0
 1210 553 1219 547 1221 539 c 0
 1297 250 1372 42 1542 42 c 0
 1716 42 1765 267 1796 490 c 0
 1797 499 1807 506 1816 505 c 0
 1825 504 1831 495 1830 486 c 0
 1799 269 1750 8 1542 8 c 0
 1342 8 1264 240 1191 515 c 1
 909 465 660 325 660 110 c 0
 660 -24 786 -55 922 -82 c 0
 1052 -107 1190 -135 1190 -300 c 0
 1190 -514 908 -584 690 -584 c 0
1816 505 m 0
 1825 504 1831 494 1830 485 c 0
 1824 446 1821 406 1821 368 c 0
 1821 187 1890 44 2046 44 c 0
 2206 44 2266 132 2266 286 c 0
 2266 400 2237 505 2205 614 c 0
 2202 623 2208 633 2217 636 c 0
 2226 639 2236 633 2239 624 c 0
 2271 515 2300 406 2300 286 c 0
 2300 120 2226 10 2046 10 c 0
 1860 10 1786 182 1786 368 c 0
 1786 408 1790 450 1796 491 c 0
 1797 500 1807 506 1816 505 c 0
EndSplineSet
Colour: ff00ff
EndChar

StartChar: uniE05D
Encoding: 57437 57437 559
GlifName: uniE_05D_
Width: 2538
Flags: HW
LayerCount: 2
Fore
SplineSet
690 -584 m 0
 358 -584 162 -451 162 -126 c 0
 162 1 190 141 229 282 c 0
 232 291 242 297 251 294 c 0
 260 291 266 281 263 272 c 0
 224 133 198 -5 198 -126 c 0
 198 -430 368 -549 690 -549 c 0
 912 -549 1154 -475 1154 -300 c 0
 1154 -165 1052 -143 916 -116 c 0
 786 -91 626 -56 626 110 c 0
 626 360 911 504 1201 552 c 0
 1210 553 1219 547 1221 539 c 0
 1294 260 1504 42 1832 42 c 0
 2120 42 2360 167 2360 414 c 0
 2360 566 2251 672 2098 672 c 0
 1814 672 1559 244 1467 -4 c 0
 1464 -13 1453 -17 1444 -14 c 0
 1435 -11 1431 -1 1434 8 c 0
 1526 256 1782 708 2098 708 c 0
 2269 708 2396 586 2396 414 c 0
 2396 137 2126 8 1832 8 c 0
 1492 8 1272 231 1191 515 c 1
 909 465 660 325 660 110 c 0
 660 -24 786 -55 922 -82 c 0
 1052 -107 1190 -135 1190 -300 c 0
 1190 -514 908 -584 690 -584 c 0
EndSplineSet
Colour: ff00ff
EndChar

StartChar: uniE05E
Encoding: 57438 57438 560
GlifName: uniE_05E_
Width: 3690
Flags: HW
LayerCount: 2
Fore
SplineSet
2360 414 m 0
 2360 566 2251 672 2098 672 c 0
 1813 672 1560 245 1511 113 c 0
 1508 104 1498 100 1489 103 c 0
 1480 106 1475 116 1478 125 c 0
 1528 259 1783 708 2098 708 c 0
 2269 708 2396 586 2396 414 c 0
 2396 137 2126 8 1832 8 c 0
 1492 8 1272 231 1191 515 c 1
 909 465 660 325 660 110 c 0
 660 -24 786 -55 922 -82 c 0
 1052 -107 1190 -135 1190 -300 c 0
 1190 -514 908 -584 690 -584 c 0
 358 -584 162 -451 162 -126 c 0
 162 1 190 141 229 282 c 0
 232 291 242 297 251 294 c 0
 260 291 266 281 263 272 c 0
 224 133 198 -5 198 -126 c 0
 198 -430 368 -549 690 -549 c 0
 912 -549 1154 -475 1154 -300 c 0
 1154 -165 1052 -143 916 -116 c 0
 786 -91 626 -56 626 110 c 0
 626 360 911 504 1201 552 c 0
 1210 553 1219 547 1221 539 c 0
 1294 260 1504 42 1832 42 c 0
 2120 42 2360 167 2360 414 c 0
2335 272 m 0
 2344 275 2354 271 2357 262 c 0
 2407.91491629 125.228558211 2489.72648375 62.2104127828 2689 62.0005260857 c 1
 3690 62 l 0
 3700 62 3708 55 3708 45 c 0
 3708 35 3700 28 3690 28 c 0
 2689 28.0005527075 l 1
 2479.68238894 28.2321307791 2379.91262573 101.236704845 2325 250 c 0
 2322 259 2326 269 2335 272 c 0
EndSplineSet
Colour: ff00ff
EndChar

StartChar: uniE05F
Encoding: 57439 57439 561
GlifName: uniE_05F_
Width: 1531
Flags: HW
LayerCount: 2
Fore
SplineSet
214 1228 m 0
 224 1228 230 1220 230 1210 c 0
 222 999 218 790 218 587 c 0
 218 142.534133353 252.916029448 62.1925738097 530 62.0003462655 c 1
 1531 62 l 0
 1541 62 1548 55 1548 45 c 0
 1548 35 1541 28 1531 28 c 0
 530 28.0004177192 l 1
 228.89620776 28.2522945344 182 142.491628454 182 587 c 0
 182 790 188 1001 196 1212 c 0
 196 1222 204 1228 214 1228 c 0
EndSplineSet
Colour: ff00ff
EndChar

StartChar: uniE060
Encoding: 57440 57440 562
GlifName: uniE_060
Width: 2332
Flags: HW
LayerCount: 2
Fore
SplineSet
693 -611 m 0
 425 -611 142 -486 142 -201 c 0
 142 269 816 469 1033 514 c 1
 851 602 533 747 433 747 c 0
 337 747 254 697 198 537 c 0
 195 528 184 523 175 526 c 0
 166 529 161 540 164 549 c 0
 224 719 319 783 433 783 c 0
 564 783 934 603 1093 525 c 0
 1106 519 1110 514 1110 506 c 0
 1110 497 1103 489 1092 488 c 0
 968 474 178 279 178 -201 c 0
 178 -454 431 -575 693 -575 c 0
 827 -575 962 -543 1080 -480 c 0
 1089 -475 1099 -479 1104 -488 c 0
 1109 -497 1105 -507 1096 -512 c 0
 972 -577 833 -611 693 -611 c 0
2350 45 m 0
 2350 35 2342 28 2332 28 c 0
 1331.00001128 28.0007191072 l 1
 1069.50397656 28.376925818 875 176.358891474 875 458 c 0
 875 468 882 475 892 475 c 0
 902 475 910 468 910 458 c 0
 910 196.352296233 1083.53237915 62.360595518 1330.9999879 62.0007268265 c 1
 2332 62 l 0
 2342 62 2350 55 2350 45 c 0
EndSplineSet
Colour: ff00ff
EndChar

StartChar: uniE061
Encoding: 57441 57441 563
GlifName: uniE_061
Width: 1332
Flags: HW
LayerCount: 2
Fore
SplineSet
146 515 m 0
 137 517 131 527 133 536 c 0
 176 701 298 784 415 784 c 0
 529 784 674 701 824 616 c 0
 935 553 1046 491 1147 458 c 0
 1157 455 1162 443 1158 434 c 0
 1156 428 1150 425 1145 424 c 0
 1023 402 909 338 783 266 c 0
 584 153 335 28 0 28 c 0
 -10 28 -17 35 -17 45 c 0
 -17 55 -10 62 0 62 c 0
 326 62 568 183 765 296 c 0
 872 357 972 414 1081 445 c 1
 992 481 898 534 806 586 c 0
 656 671 513 750 415 750 c 0
 316 750 206 679 167 528 c 0
 165 519 155 513 146 515 c 0
EndSplineSet
Colour: ff00ff
EndChar

StartChar: uniE062
Encoding: 57442 57442 564
GlifName: uniE_062
Width: 2351
Flags: HW
LayerCount: 2
Fore
SplineSet
953 394 m 0
 963 394 970 387 970 377 c 0
 970 181.290505775 1125.53790494 62.3529261685 1349.99998871 62.0007841333 c 1
 2351 62 l 0
 2361 62 2369 55 2369 45 c 0
 2369 35 2361 28 2351 28 c 0
 1350.00001003 28.0007659627 l 1
 1113.49947854 28.3631729526 936 157.309528759 936 377 c 0
 936 387 943 394 953 394 c 0
146 515 m 0
 137 517 131 527 133 536 c 0
 176 701 298 784 415 784 c 0
 529 784 674 701 824 616 c 0
 935 553 1046 491 1147 458 c 0
 1157 455 1162 443 1158 434 c 0
 1156 428 1150 425 1145 424 c 0
 1023 402 909 338 783 266 c 0
 584 153 335 28 0 28 c 0
 -10 28 -17 35 -17 45 c 0
 -17 55 -10 62 0 62 c 0
 326 62 568 183 765 296 c 0
 872 357 972 414 1081 445 c 1
 992 481 898 534 806 586 c 0
 656 671 513 750 415 750 c 0
 316 750 206 679 167 528 c 0
 165 519 155 513 146 515 c 0
EndSplineSet
Colour: ff00ff
EndChar

StartChar: uniE063
Encoding: 57443 57443 565
GlifName: uniE_063
Width: 2120
Flags: HW
LayerCount: 2
Fore
SplineSet
2138 45 m 0
 2138 35 2130 28 2120 28 c 0
 1119 28.0010533518 l 1
 866.794301436 28.5327337825 788.914282845 230.242645484 724 414 c 0
 675 557 637 637 569 773 c 0
 565 782 568 793 577 797 c 0
 586 801 597 798 601 789 c 0
 669 653 709 571 758 426 c 0
 822.90445504 240.273405577 892.794221659 62.5233096804 1119 62.0011532589 c 1
 2120 62 l 0
 2130 62 2138 55 2138 45 c 0
741 416 m 0
 750 419 760 415 763 406 c 0
 776 371 786 335 786 297 c 0
 786 79 597 -2 389 -2 c 0
 309 -2 230 10 154 39 c 0
 145 42 141 52 144 61 c 0
 147 70 157 74 166 71 c 0
 238 44 313 32 389 32 c 0
 591 32 750 107 750 297 c 0
 750 331 742 363 731 394 c 0
 728 403 732 413 741 416 c 0
EndSplineSet
Colour: ff00ff
EndChar

StartChar: uniE064
Encoding: 57444 57444 566
GlifName: uniE_064
Width: 1917
Flags: HW
LayerCount: 2
Fore
SplineSet
1934 45 m 0
 1934 35 1927 28 1917 28 c 0
 916 28.0006132296 l 1
 784.565439896 28.1619502287 698.848351327 60.1567036286 639 122 c 0
 562 202 532 325 495 480 c 0
 493 489 499 499 508 501 c 0
 517 503 527 497 529 488 c 0
 566 333 598 216 665 146 c 0
 716.862283416 92.1430133753 790.608191724 62.1590720863 916 62.0006311486 c 1
 1917 62 l 0
 1927 62 1934 55 1934 45 c 0
508 501 m 0
 517 503 527 497 529 488 c 0
 571 329 594 191 594 71 c 0
 594 -177 447 -364 166 -473 c 0
 157 -476 147 -472 144 -463 c 0
 141 -454 145 -444 154 -441 c 0
 426 -336 560 -161 560 71 c 0
 560 187 537 323 495 480 c 0
 493 489 499 499 508 501 c 0
EndSplineSet
Colour: ff00ff
EndChar

StartChar: uniE065
Encoding: 57445 57445 567
GlifName: uniE_065
Width: 3402
Flags: HW
LayerCount: 2
Fore
SplineSet
263 375 m 0
 272 371 276 361 272 352 c 0
 216 215 178 71 178 -58 c 0
 178 -280 317 -456 644 -456 c 0
 958 -456 1102 -270 1102 -23 c 0
 1102 100 1073 239 1022 376 c 0
 1019 385 1023 395 1032 398 c 0
 1041 401 1051 397 1054 388 c 0
 1106 247 1138 106 1138 -23 c 0
 1138 -286 976 -490 644 -490 c 0
 301 -490 142 -300 142 -58 c 0
 142 77 182 227 240 366 c 0
 244 375 254 379 263 375 c 0
1032 398 m 0
 1041 401 1051 397 1054 388 c 0
 1144 149 1247 38 1382 38 c 0
 1518 38 1610 116 1645 422 c 0
 1646 431 1655 438 1664 437 c 0
 1673 436 1680 427 1679 418 c 0
 1644 108 1542 2 1382 2 c 0
 1223 2 1112 135 1022 376 c 0
 1019 385 1023 395 1032 398 c 0
1664 437 m 0
 1673 436 1680 427 1679 418 c 0
 1671 360 1668 318 1668 265 c 0
 1668 115 1748 34 1866 34 c 0
 1993 34 2056 152 2056 309 c 0
 2056 374 2049 443 2036 510 c 0
 2034 519 2041 528 2050 530 c 0
 2059 532 2068 525 2070 516 c 0
 2083 447 2092 376 2092 309 c 0
 2092 147 2023 -2 1866 -2 c 0
 1726 -2 1632 101 1632 265 c 0
 1632 320 1637 364 1645 422 c 0
 1646 431 1655 438 1664 437 c 0
2050 530 m 0
 2059 532 2068 525 2070 516 c 0
 2121.92739164 209.428668574 2162.88548076 62.4108284358 2401 62.0008598506 c 1
 3402 62 l 0
 3412 62 3420 55 3420 45 c 0
 3420 35 3412 28 3402 28 c 0
 2401 28.0008385871 l 1
 2134.88251797 28.4475954981 2087.93501426 207.378666915 2036 510 c 0
 2034 519 2041 528 2050 530 c 0
EndSplineSet
Colour: ff00ff
EndChar

StartChar: uniE066
Encoding: 57446 57446 568
GlifName: uniE_066
Width: 1545
Flags: HW
LayerCount: 2
Fore
SplineSet
1315 635 m 0
 1324 638 1334 634 1337 625 c 0
 1369 542 1402 413 1402 295 c 0
 1402 160 1340 10 1171 10 c 0
 984 10 890 189 890 387 c 0
 890 421 893 456 898 491 c 0
 899 500 909 506 918 505 c 0
 927 504 933 494 932 485 c 0
 927 452 924 419 924 387 c 0
 924 197 1014 44 1171 44 c 0
 1312 44 1368 166 1368 295 c 0
 1368 407 1335 534 1305 613 c 0
 1302 622 1306 632 1315 635 c 0
917 505 m 0
 926 504 933 495 932 486 c 0
 912 281 835 8 583 8 c 0
 436 8 356 132 356 275 c 0
 356 359 361 397 374 485 c 0
 375 494 385 500 394 499 c 0
 403 498 409 488 408 479 c 0
 395 391 392 357 392 275 c 0
 392 144 462 42 583 42 c 0
 801 42 878 283 898 490 c 0
 899 499 908 506 917 505 c 0
393 499 m 0
 402 498 409 489 408 480 c 0
 386 224 283 28 0 28 c 0
 -10 28 -17 35 -17 45 c 0
 -17 55 -10 62 0 62 c 0
 259 62 352 234 374 484 c 0
 375 493 384 500 393 499 c 0
EndSplineSet
Colour: ff00ff
EndChar

StartChar: uniE067
Encoding: 57447 57447 569
GlifName: uniE_067
Width: 2767
Flags: HW
LayerCount: 2
Fore
SplineSet
2784 45 m 0
 2784 35 2777 28 2767 28 c 0
 1766 28.0006905443 l 1
 1526.81929995 28.3314726726 1461.9374366 147.583925049 1417 567 c 0
 1416 576 1423 585 1432 586 c 0
 1441 587 1451 580 1452 571 c 0
 1496.92982579 149.658078186 1552.82537093 62.2721549518 1766 62.0006356435 c 1
 2767 62 l 0
 2777 62 2784 55 2784 45 c 0
1433 586 m 0
 1443 587 1450 580 1451 570 c 0
 1454 521 1456 471 1456 419 c 0
 1456 224 1395 12 1189 12 c 0
 983 12 922 208 922 399 c 0
 922 430 924 461 926 491 c 0
 927 501 934 508 944 507 c 0
 954 506 962 499 961 489 c 0
 959 459 958 430 958 399 c 0
 958 210 1015 48 1189 48 c 0
 1362 48 1422 224 1422 419 c 0
 1422 470 1420 519 1417 568 c 0
 1416 578 1423 585 1433 586 c 0
945 507 m 0
 954 506 961 497 960 488 c 0
 929 270 865 8 612 8 c 0
 423 8 382 160 382 344 c 0
 382 384 385 453 388 494 c 0
 389 504 396 511 406 510 c 0
 416 509 424 502 423 492 c 0
 420 453 416 382 416 344 c 0
 416 161 453 44 612 44 c 0
 831 44 895 270 926 492 c 0
 927 501 936 508 945 507 c 0
407 510 m 0
 416 509 423 500 422 491 c 0
 395 182 296 28 0 28 c 0
 -10 28 -17 35 -17 45 c 0
 -17 55 -10 62 0 62 c 0
 276 62 361 194 388 495 c 0
 389 504 398 511 407 510 c 0
EndSplineSet
Colour: ff00ff
EndChar

StartChar: uniE068
Encoding: 57448 57448 570
GlifName: uniE_068
Width: 3424
Flags: HW
LayerCount: 2
Fore
SplineSet
2163 408 m 0
 2163 150 1880 28 1650 28 c 0
 1278 28 1124 145 1035 359 c 0
 1031 368 1035 378 1044 382 c 0
 1053 386 1063 382 1067 373 c 0
 1150 173 1286 62 1650 62 c 0
 1874 62 2128 182 2128 408 c 0
 2128 540 2015 622 1873 622 c 0
 1638 622 1471 443 1344 174 c 0
 1340 165 1330 161 1321 165 c 0
 1312 169 1308 179 1312 188 c 0
 1441 461 1616 658 1873 658 c 0
 2027 658 2163 564 2163 408 c 0
1046 383 m 0
 1055 386 1065 380 1068 371 c 0
 1113 232 1136 104 1136 -7 c 0
 1136 -307 960 -490 589 -490 c 0
 363 -490 142 -377 142 -117 c 0
 142 48 221 236 319 390 c 0
 324 398 336 401 344 396 c 0
 352 391 354 380 349 372 c 0
 253 222 178 38 178 -117 c 0
 178 -351 373 -456 589 -456 c 0
 946 -456 1102 -289 1102 -7 c 0
 1102 100 1079 224 1034 361 c 0
 1031 370 1037 380 1046 383 c 0
2075 241 m 0
 2083 246 2094 242 2099 234 c 0
 2156.89248967 127.198338017 2243.67756866 62.2411157317 2423 62.00066986 c 1
 3424 62 l 0
 3434 62 3442 55 3442 45 c 0
 3442 35 3434 28 3424 28 c 0
 2423 28.0006657437 l 1
 2233.6384291 28.2529735134 2130.88938478 100.205428264 2068 217 c 0
 2063 225 2067 236 2075 241 c 0
EndSplineSet
Colour: ff00ff
EndChar

StartChar: uniE069
Encoding: 57449 57449 571
GlifName: uniE_069
Width: 1546
Flags: HW
LayerCount: 2
Fore
SplineSet
1369 434 m 0
 1369 586 1259 692 1106 692 c 0
 822 692 566 265 450 -49 c 0
 447 -58 437 -62 428 -59 c 0
 419 -56 415 -46 418 -37 c 0
 534 275 790 728 1106 728 c 0
 1277 728 1404 606 1404 434 c 0
 1404 155 1074 28 809 28 c 0
 436 28 336 132 336 485 c 0
 336 495 343 502 353 502 c 0
 363 502 371 495 371 485 c 0
 371 146 448 62 809 62 c 0
 1070 62 1369 189 1369 434 c 0
353 502 m 0
 363 502 370 495 370 485 c 0
 370 133 271 28 0 28 c 0
 -10 28 -17 35 -17 45 c 0
 -17 55 -10 62 0 62 c 0
 253 62 336 143 336 485 c 0
 336 495 343 502 353 502 c 0
EndSplineSet
Colour: ff00ff
EndChar

StartChar: uniE06A
Encoding: 57450 57450 572
GlifName: uniE_06A_
Width: 2671
Flags: HW
LayerCount: 2
Fore
SplineSet
1397 434 m 0
 1397 154 1044 28 780 28 c 0
 431 28 335 167 335 485 c 0
 335 495 342 502 352 502 c 0
 362 502 370 495 370 485 c 0
 370 179 448 62 780 62 c 0
 1042 62 1362 190 1362 434 c 0
 1362 586 1236 692 1103 692 c 0
 888 692 681 445 517 113 c 0
 513 104 502 101 493 105 c 0
 484 109 481 120 485 129 c 0
 649 461 862 728 1103 728 c 0
 1254 728 1397 606 1397 434 c 0
353 502 m 0
 363 501 370 494 369 484 c 0
 345 175 272 28 0 28 c 0
 -10 28 -17 35 -17 45 c 0
 -17 55 -10 62 0 62 c 0
 248 62 311 181 335 486 c 0
 336 496 343 503 353 502 c 0
1315 273 m 0
 1324 276 1334 272 1337 263 c 0
 1387.914917 126.228556303 1470.72315223 62.2137448296 1670 62.0005344172 c 1
 2671 62 l 0
 2681 62 2689 55 2689 45 c 0
 2689 35 2681 28 2671 28 c 0
 1670 28.0005602621 l 1
 1460.67921665 28.2353037191 1359.91262639 102.236703054 1305 251 c 0
 1302 260 1306 270 1315 273 c 0
EndSplineSet
Colour: ff00ff
EndChar

StartChar: uniE06B
Encoding: 57451 57451 573
GlifName: uniE_06B_
Width: 2656
Flags: HW
LayerCount: 2
Fore
SplineSet
1336 449 m 0
 1336 589 1231 696 1090 696 c 0
 807 696 572 338 464 52 c 0
 461 43 451 39 442 42 c 0
 433 45 429 55 432 64 c 0
 540 350 779 730 1090 730 c 0
 1251 730 1372 607 1372 449 c 0
 1372 21 636 28 160 28 c 0
 150 28 142 35 142 45 c 0
 142 55 150 62 160 62 c 0
 656 62 1336 69 1336 449 c 0
442 42 m 0
 433 45 429 55 432 64 c 0
 500 236 524 465 524 716 c 0
 524 874 515 1041 499 1209 c 0
 498 1218 505 1227 514 1228 c 0
 523 1229 533 1222 534 1213 c 0
 550 1045 560 876 560 716 c 0
 560 463 534 230 464 52 c 0
 461 43 451 39 442 42 c 0
1283 282 m 0
 1292 286 1302 282 1306 273 c 0
 1367.86996817 128.304106707 1496.4591945 62.2771894585 1654.99999001 62.0008710458 c 1
 2656 62 l 0
 2666 62 2674 55 2674 45 c 0
 2674 35 2666 28 2656 28 c 0
 1655.00000887 28.0008175703 l 1
 1486.42815214 28.2765633844 1341.86584126 98.3176405499 1274 259 c 0
 1270 268 1274 278 1283 282 c 0
EndSplineSet
Colour: ff00ff
EndChar

StartChar: uniE06C
Encoding: 57452 57452 574
GlifName: uniE_06C_
Width: 1250
Flags: HW
LayerCount: 2
Fore
SplineSet
246 1228 m 0
 255 1229 264 1222 265 1213 c 0
 280 1081 288 945 288 747 c 0
 288 467 242 159 116 -65 c 0
 111 -73 101 -76 93 -71 c 0
 85 -66 81 -55 86 -47 c 0
 208 169 254 471 254 747 c 0
 254 945 246 1079 231 1209 c 0
 230 1218 237 1227 246 1228 c 0
1072 466 m 0
 1072 604 959 702 816 702 c 0
 482 702 230 197 117 -63 c 0
 113 -72 103 -76 94 -72 c 0
 85 -68 81 -58 85 -49 c 0
 196 205 450 736 816 736 c 0
 975 736 1108 626 1108 466 c 0
 1108 63 434 28 0 28 c 0
 -10 28 -17 35 -17 45 c 0
 -17 55 -10 62 0 62 c 0
 450 62 1072 109 1072 466 c 0
EndSplineSet
Colour: ff00ff
EndChar

StartChar: uniE06D
Encoding: 57453 57453 575
GlifName: uniE_06D_
Width: 2338
Flags: HW
LayerCount: 2
Fore
SplineSet
324 1228 m 0
 333 1229 342 1222 343 1213 c 0
 359 1045 370 876 370 716 c 0
 370 463 344 230 274 52 c 0
 271 43 261 39 252 42 c 0
 243 45 239 55 242 64 c 0
 310 236 334 465 334 716 c 0
 334 874 325 1041 309 1209 c 0
 308 1218 315 1227 324 1228 c 0
1175 444 m 0
 1175 47 564 28 0 28 c 0
 -10 28 -17 35 -17 45 c 0
 -17 55 -10 62 0 62 c 0
 581 62 1140 93 1140 444 c 0
 1140 561 1062 694 872 694 c 0
 594 694 370 297 274 52 c 0
 271 43 261 39 252 42 c 0
 243 45 239 55 242 64 c 0
 338 307 564 728 872 728 c 0
 1082 728 1175 577 1175 444 c 0
1032 222 m 0
 1041 226 1051 222 1055 213 c 0
 1108.87825418 99.2570189634 1189.63489977 62.1672282624 1337 62.0005646721 c 1
 2338 62 l 0
 2348 62 2356 55 2356 45 c 0
 2356 35 2348 28 2338 28 c 0
 1336.99999704 28.0006057064 l 1
 1183.5626355 28.1866854164 1082.87003261 71.2772637601 1023 199 c 0
 1019 208 1023 218 1032 222 c 0
EndSplineSet
Colour: ff00ff
EndChar

StartChar: uniE06E
Encoding: 57454 57454 576
GlifName: uniE_06E_
Width: 2092
Flags: HW
LayerCount: 2
Fore
SplineSet
2110 45 m 0
 2110 35 2102 28 2092 28 c 0
 1091.00001363 28.0008505123 l 1
 732.305679119 28.6108709897 358.830092444 357.247897909 176 624 c 0
 171 632 172 643 180 648 c 0
 188 653 200 652 205 644 c 0
 383.824005273 381.258584431 752.274574129 62.6272343325 1090.99998786 62.0009247787 c 1
 2092 62 l 0
 2102 62 2110 55 2110 45 c 0
178 622 m 0
 171 629 171 639 178 646 c 0
 254 722 424 794 575 794 c 0
 715 794 868 728 868 586 c 0
 868 454 767 377 599 283 c 0
 402 173 178 -11 178 -285 c 0
 178 -529 402 -628 674 -628 c 0
 749 -628 826 -620 902 -606 c 0
 911 -604 920 -611 922 -620 c 0
 924 -629 917 -638 908 -640 c 0
 830 -654 751 -662 674 -662 c 0
 398 -662 142 -559 142 -285 c 0
 142 11 383 203 582 314 c 0
 752 409 834 476 834 586 c 0
 834 696 711 758 575 758 c 0
 434 758 270 690 202 622 c 0
 195 615 185 615 178 622 c 0
EndSplineSet
Colour: ff00ff
EndChar

StartChar: uniE06F
Encoding: 57455 57455 577
GlifName: uniE_06F_
Width: 1020
Flags: HW
LayerCount: 2
Fore
SplineSet
746 702 m 0
 740 695 728 695 721 701 c 0
 669 749 597 774 525 774 c 0
 353 774 194 621 194 437 c 0
 194 266 332 166 510 166 c 0
 573 166 635 173 696 183 c 0
 749 191 804 198 859 200 c 0
 869 200 878 194 878 184 c 0
 878 174 871 166 861 166 c 0
 808 164 755 157 702 149 c 0
 641 139 575 132 510 132 c 0
 320 132 160 242 160 437 c 0
 160 641 333 810 525 810 c 0
 605 810 685 781 745 727 c 0
 752 721 752 709 746 702 c 0
878 183 m 0
 878 173 870 166 860 166 c 0
 741 166 656 140 556 110 c 0
 426 71 274 28 0 28 c 0
 -10 28 -17 35 -17 45 c 0
 -17 55 -10 62 0 62 c 0
 270 62 416 105 546 144 c 0
 646 174 735 200 860 200 c 0
 870 200 878 193 878 183 c 0
EndSplineSet
Colour: ff00ff
EndChar

StartChar: uniE070
Encoding: 57456 57456 578
GlifName: uniE_070
Width: 2040
Flags: HW
LayerCount: 2
Fore
SplineSet
521 740 m 0
 674 740 860 649 860 483 c 0
 860 193 301 28 0 28 c 0
 -10 28 -17 35 -17 45 c 0
 -17 55 -10 62 0 62 c 0
 305 62 824 235 824 483 c 0
 824 619 666 704 521 704 c 0
 409 704 246 635 157 557 c 1
 306.878024351 354.165073712 629.474805934 62.4748330095 1038.99997231 62.0005790476 c 1
 2040 62 l 0
 2050 62 2058 55 2058 45 c 0
 2058 35 2050 28 2040 28 c 0
 1039.00003114 28.000548819 l 1
 603.487801518 28.4786017837 268.886068989 341.159044633 120 549 c 0
 115 556 116 566 122 572 c 0
 215 660 392 740 521 740 c 0
EndSplineSet
Colour: ff00ff
EndChar

StartChar: uniE071
Encoding: 57457 57457 579
GlifName: uniE_071
Width: 2829
Flags: HW
LayerCount: 2
Fore
SplineSet
1399 800 m 0
 1585 800 1682 668 1682 484 c 0
 1682 94 1255 -2 840 -2 c 0
 474 -2 142 30 142 336 c 0
 142 405 159 487 195 583 c 0
 198 592 208 596 217 593 c 0
 226 590 231 580 228 571 c 0
 193 477 178 399 178 336 c 0
 178 70 464 32 840 32 c 0
 1259 32 1646 130 1646 484 c 0
 1646 656 1563 764 1399 764 c 0
 1259 764 1152 650 1152 472 c 0
 1152 176.266711179 1458.44700377 62.2055874564 1827.99998671 62.0002777173 c 1
 2829 62 l 0
 2839 62 2846 55 2846 45 c 0
 2846 35 2839 28 2829 28 c 0
 1828.0000116 28.0002776824 l 1
 1458.38582598 28.2055929062 1118 142.297314911 1118 472 c 0
 1118 664 1237 800 1399 800 c 0
EndSplineSet
Colour: ff00ff
EndChar

StartChar: uniE072
Encoding: 57458 57458 580
GlifName: uniE_072
Width: 2461
Flags: HW
LayerCount: 2
Fore
SplineSet
977 652 m 0
 826 652 726 477 726 316 c 0
 726 121 819 62 1018 62 c 2
 2461 62 l 2
 2471 62 2478 55 2478 45 c 0
 2478 35 2471 28 2461 28 c 2
 1018 27 l 2
 809 27 690 101 690 316 c 0
 690 485 796 688 977 688 c 0
 1228 688 1278 370 1278 121 c 0
 1278 -268 1053 -480 704 -480 c 0
 320 -480 142 -289 142 -17 c 0
 142 109 179 252 245 401 c 0
 249 410 259 414 268 410 c 0
 277 406 281 396 277 387 c 0
 213 242 178 103 178 -17 c 0
 178 -269 334 -444 704 -444 c 0
 1035 -444 1244 -252 1244 121 c 0
 1244 376 1188 652 977 652 c 0
EndSplineSet
Colour: ff00ff
EndChar

StartChar: uniE073
Encoding: 57459 57459 581
GlifName: uniE_073
Width: 2772
Flags: HW
LayerCount: 2
Fore
SplineSet
2790 45 m 0
 2790 35 2782 28 2772 28 c 0
 1771.00000865 28.0008384828 l 1
 1548.4740735 28.3741488686 1373 153.415673168 1373 431 c 0
 1373 441 1380 448 1390 448 c 0
 1400 448 1408 441 1408 431 c 0
 1408 173.415624424 1564.49456996 62.3580118059 1770.9999914 62.0008643359 c 1
 2772 62 l 0
 2782 62 2790 55 2790 45 c 0
1344 1228 m 0
 1353 1229 1362 1222 1363 1213 c 0
 1391 997 1408 669 1408 431 c 0
 1408 117 1083 -2 786 -2 c 0
 484 -2 142 39 142 363 c 0
 142 433 163 510 195 581 c 0
 199 590 209 594 218 590 c 0
 227 586 231 576 227 567 c 0
 197 500 178 427 178 363 c 0
 178 77 478 34 786 34 c 0
 1081 34 1372 149 1372 431 c 0
 1372 667 1357 995 1329 1209 c 0
 1328 1218 1335 1227 1344 1228 c 0
EndSplineSet
Colour: ff00ff
EndChar

StartChar: uniE074
Encoding: 57460 57460 582
GlifName: uniE_074
Width: 1054
Flags: HW
LayerCount: 2
Fore
SplineSet
-18 45 m 0
 -18 55 -10 62 0 62 c 0
 398 62 554 141 554 312 c 0
 554 511 335 747 147 939 c 0
 140 946 141 958 149 964 c 0
 150 965 152 967 152 967 c 1
 886 1327 l 2
 895 1331 906 1328 910 1319 c 0
 914 1310 911 1299 902 1295 c 2
 189 946 l 1
 370 760 590 526 590 312 c 0
 590 105 394 28 0 28 c 0
 -10 28 -18 35 -18 45 c 0
EndSplineSet
Colour: ff00ff
EndChar

StartChar: uniE075
Encoding: 57461 57461 583
GlifName: uniE_075
Width: 2113
Flags: HW
LayerCount: 2
Fore
SplineSet
144 943 m 0
 140 952 143 963 152 967 c 2
 886 1327 l 2
 895 1331 906 1328 910 1319 c 0
 914 1310 911 1299 902 1295 c 2
 168 935 l 2
 159 931 148 934 144 943 c 0
-18 45 m 0
 -18 55 -10 62 0 62 c 0
 398 62 554 141 554 312 c 0
 554 511 335 747 147 939 c 0
 140 946 141 958 149 964 c 0
 156 970 166 969 172 963 c 0
 341 791 504 615 570 433 c 0
 696.871231256 82.3558884197 783.823535559 62.0408973688 1112 62.0000620071 c 1
 2113 62 l 0
 2123 62 2131 55 2131 45 c 0
 2131 35 2123 28 2113 28 c 0
 1112 28.0000848195 l 1
 824.712789697 28.0489423038 700.870284852 49.2825937152 589 293 c 1
 577 100 382 28 0 28 c 0
 -10 28 -18 35 -18 45 c 0
EndSplineSet
Colour: ff00ff
EndChar

StartChar: uniE076
Encoding: 57462 57462 584
GlifName: uniE_076
Width: 2450
Flags: HW
LayerCount: 2
Fore
SplineSet
1091 389 m 0
 1101 390 1108 383 1109 373 c 0
 1124.97617099 110.391689319 1225.69934731 62.1434509295 1449 62.0003199513 c 1
 2450 62 l 0
 2460 62 2468 55 2468 45 c 0
 2468 35 2460 28 2450 28 c 0
 1448.99995049 28.0003784352 l 1
 1215.64953155 28.1772114925 1092.97434035 90.4005755867 1075 371 c 0
 1074 381 1081 388 1091 389 c 0
1046 1228 m 0
 1056 1229 1063 1222 1064 1212 c 0
 1092 822 1114 495 1114 148 c 0
 1114 -193 997 -442 609 -442 c 0
 311 -442 142 -267 142 -15 c 0
 142 117 188 264 239 366 c 0
 243 375 254 378 263 374 c 0
 272 370 275 359 271 350 c 0
 222 252 178 109 178 -15 c 0
 178 -247 327 -406 609 -406 c 0
 973 -406 1078 -185 1078 148 c 0
 1078 493 1058 820 1030 1210 c 0
 1029 1220 1036 1227 1046 1228 c 0
EndSplineSet
Colour: ff00ff
EndChar

StartChar: uniE077
Encoding: 57463 57463 585
GlifName: uniE_077
Width: 494
Flags: HW
LayerCount: 2
Fore
SplineSet
243 1228 m 0
 252 1229 261 1222 262 1213 c 0
 300 924 312 760 312 444 c 0
 312 320 296 220 251 147 c 0
 202 69 121 28 0 28 c 0
 -10 28 -17 35 -17 45 c 0
 -17 55 -10 62 0 62 c 0
 113 62 180 99 221 165 c 0
 260 228 276 322 276 444 c 0
 276 760 266 920 228 1209 c 0
 227 1218 234 1227 243 1228 c 0
EndSplineSet
Colour: ff00ff
EndChar

StartChar: uniE078
Encoding: 57464 57464 586
GlifName: uniE_078
Width: 1674
Flags: HW
LayerCount: 2
Fore
SplineSet
1692 45 m 0
 1692 35 1684 28 1674 28 c 0
 673.000009255 28.0008257496 l 1
 468.515630318 28.3387106941 320 132.385533762 320 369 c 0
 320 379 327 386 337 386 c 0
 347 386 355 379 355 369 c 0
 355 152.378930899 482.553356623 62.3147078229 672.999989544 62.0008235088 c 1
 1674 62 l 0
 1684 62 1692 55 1692 45 c 0
291 1228 m 0
 300 1229 309 1222 310 1213 c 0
 337 925 354 680 354 369 c 0
 354 133 226 28 0 28 c 0
 -10 28 -17 35 -17 45 c 0
 -17 55 -10 62 0 62 c 0
 212 62 320 151 320 369 c 0
 320 678 303 921 276 1209 c 0
 275 1218 282 1227 291 1228 c 0
EndSplineSet
Colour: ff00ff
EndChar

StartChar: uniE079
Encoding: 57465 57465 587
GlifName: uniE_079
Width: 2365
Flags: HW
LayerCount: 2
Fore
SplineSet
1004 338 m 0
 1013 340 1023 334 1025 325 c 0
 1062.94157364 162.250618344 1147.73873001 62.307656104 1364 62.0007090705 c 1
 2365 62 l 0
 2375 62 2383 55 2383 45 c 0
 2383 35 2375 28 2365 28 c 0
 1364 28.0007009387 l 1
 1131.71090625 28.3265700295 1030.94272895 142.25056084 991 317 c 0
 989 326 995 336 1004 338 c 0
EndSplineSet
Colour: ff00ff
EndChar

StartChar: uniE07A
Encoding: 57466 57466 588
GlifName: uniE_07A_
Width: 996
Flags: HW
LayerCount: 2
Fore
SplineSet
573 600 m 0
 432 600 376 537 310 332 c 0
 259 173 206 28 0 28 c 0
 -10 28 -17 35 -17 45 c 0
 -17 55 -10 62 0 62 c 0
 182 62 224 180 276 342 c 0
 342 549 412 636 573 636 c 0
 721 636 854 485 854 278 c 0
 854 78 720 -2 576 -2 c 0
 482 -2 383 30 310 87 c 0
 302 93 301 104 307 112 c 0
 313 120 324 121 332 115 c 0
 399 64 490 32 576 32 c 0
 706 32 818 98 818 278 c 0
 818 471 695 600 573 600 c 0
EndSplineSet
Colour: ff00ff
EndChar

StartChar: uniE07B
Encoding: 57467 57467 589
GlifName: uniE_07B_
Width: 2199
Flags: HW
LayerCount: 2
Fore
SplineSet
2216 45 m 0
 2216 35 2209 28 2199 28 c 0
 1198 28.0006785043 l 1
 956.853850466 28.3282016681 903.936570841 147.182014107 858 279 c 0
 826 370 760 464 641 586 c 0
 634 593 634 604 641 611 c 0
 648 618 659 617 666 610 c 0
 787 486 857 389 892 291 c 0
 937.931462414 161.193693179 974.889723903 62.2950784292 1198 62.0006590983 c 1
 2199 62 l 0
 2209 62 2216 55 2216 45 c 0
569 -2 m 0
 408 -2 318 84 318 216 c 0
 318 327 380 466 505 610 c 0
 511 617 523 618 530 612 c 0
 537 606 537 595 531 588 c 0
 409 448 353 314 353 216 c 0
 353 105 422 32 569 32 c 0
 761 32 841 115 841 226 c 0
 841 327 773 460 641 585 c 0
 634 592 633 603 640 610 c 0
 647 617 658 618 665 611 c 0
 801 482 876 342 876 226 c 0
 876 91 772 -2 569 -2 c 0
529 612 m 0
 536 606 537 595 531 588 c 0
 487 535 427 453 392 384 c 0
 314 230 199 28 0 28 c 0
 -10 28 -17 35 -17 45 c 0
 -17 55 -10 62 0 62 c 0
 173 62 280 244 360 400 c 0
 398 474 459 555 505 610 c 0
 511 617 522 618 529 612 c 0
EndSplineSet
Colour: ff00ff
EndChar

StartChar: uniE07C
Encoding: 57468 57468 590
GlifName: uniE_07C_
Width: 2504
Flags: HW
LayerCount: 2
Fore
SplineSet
1164 366 m 0
 1173 369 1183 363 1186 354 c 0
 1217 251 1242 176 1288 129 c 0
 1329.87483357 86.1281465783 1391.63063866 62.1432160882 1503 62.0006393221 c 1
 2504 62 l 0
 2514 62 2522 55 2522 45 c 0
 2522 35 2514 28 2504 28 c 0
 1503 28.0005958301 l 1
 1387.56299999 28.1383078728 1311.85617924 52.15245001 1262 105 c 0
 1208 160 1183 241 1152 344 c 0
 1149 353 1155 363 1164 366 c 0
EndSplineSet
Colour: ff00ff
EndChar

StartChar: uniE07D
Encoding: 57469 57469 591
GlifName: uniE_07D_
Width: 2081
Flags: HW
LayerCount: 2
Fore
SplineSet
620 206 m 0
 621 197 614 188 605 187 c 0
 576 183 548 180 518 180 c 0
 327 180 162 265 162 414 c 0
 162 549 266 645 425 720 c 0
 546 776 634 846 659 933 c 0
 662 942 672 948 681 945 c 0
 690 942 696 932 693 923 c 0
 664 820 562 746 439 688 c 0
 284 615 198 527 198 414 c 0
 198 297 331 214 518 214 c 0
 546 214 572 217 601 221 c 0
 610 222 619 215 620 206 c 0
672 970 m 0
 681 971 690 964 691 955 c 2
 741 408 l 2
 766.959277893 122.447943179 867.683804533 62.1885025859 1080 62.0004421943 c 1
 2081 62 l 0
 2091 62 2099 55 2099 45 c 0
 2099 35 2091 28 2081 28 c 0
 1079.99998661 28.0004928035 l 1
 853.650461279 28.2238440064 734.95885468 104.440842717 707 404 c 2
 657 951 l 2
 656 960 663 969 672 970 c 0
EndSplineSet
Colour: ff00ff
EndChar

StartChar: uniE07E
Encoding: 57470 57470 592
GlifName: uniE_07E_
Width: 1283
Flags: HW
LayerCount: 2
Fore
SplineSet
125 430 m 0
 125 612 266 774 436 774 c 0
 605 774 700 607 700 450 c 0
 700 114 361 28 0 28 c 0
 -10 28 -17 35 -17 45 c 0
 -17 55 -10 62 0 62 c 0
 363 62 666 148 666 450 c 0
 666 597 577 738 436 738 c 0
 288 738 160 596 160 430 c 0
 160 202 515 62 800 62 c 0
 974 62 1086 154 1086 286 c 0
 1086 482 895 600 655 688 c 0
 510 741 336 805 191 883 c 0
 183 888 179 898 184 906 c 0
 189 914 199 918 207 913 c 0
 348 837 522 773 667 720 c 0
 906 633 1120 508 1120 286 c 0
 1120 130 986 28 800 28 c 0
 515 28 125 164 125 430 c 0
EndSplineSet
Colour: ff00ff
EndChar

StartChar: uniE07F
Encoding: 57471 57471 593
GlifName: uniE_07F_
Width: 1930
Flags: HW
LayerCount: 2
Fore
SplineSet
534 754 m 0
 664 754 722 654 722 546 c 0
 722 310 474 28 0 28 c 0
 -10 28 -17 35 -17 45 c 0
 -17 55 -10 62 0 62 c 0
 461 62 687 336 687 546 c 0
 687 642 640 720 534 720 c 0
 312 720 198 437 198 136 c 0
 198 -141 367 -454 554 -454 c 0
 665 -454 706 -357 706 -232 c 0
 706 -136 680 -31 647 37 c 0
 646 40 645 43 645 46 c 0
 645 55 651 62 663 62 c 2
 1930 62 l 2
 1940 62 1948 55 1948 45 c 0
 1948 35 1940 28 1930 28 c 2
 690 28 l 1
 720 -46 740 -141 740 -232 c 0
 740 -361 695 -490 554 -490 c 0
 331 -490 162 -145 162 136 c 0
 162 437 276 754 534 754 c 0
EndSplineSet
Colour: ff00ff
EndChar

StartChar: uniE080
Encoding: 57472 57472 594
GlifName: uniE_080
Width: 1931
Flags: HW
LayerCount: 2
Fore
SplineSet
460 674 m 0
 645 674 748 446 748 134 c 0
 748 -213 527 -413 163 -483 c 0
 154 -485 145 -478 143 -469 c 0
 141 -460 148 -451 157 -449 c 0
 511 -381 714 -193 714 134 c 0
 714 446 609 638 460 638 c 0
 329 638 228 500 228 287 c 0
 228 207 245 152 280 117 c 0
 317 81 377 62 470 62 c 2
 1931 62 l 2
 1941 62 1948 55 1948 45 c 0
 1948 35 1941 28 1931 28 c 2
 470 28 l 2
 373 28 303 47 256 93 c 0
 211 138 192 203 192 287 c 0
 192 504 296 674 460 674 c 0
EndSplineSet
Colour: ff00ff
EndChar

StartChar: uniE081
Encoding: 57473 57473 595
GlifName: uniE_081
Width: 1231
Flags: HW
LayerCount: 2
Fore
SplineSet
1021 1220 m 0
 1030 1221 1039 1214 1040 1205 c 0
 1059 994 1068 838 1068 520 c 0
 1068 154 966 28 593 28 c 0
 441 28 315 37 178 57 c 0
 169 58 162 68 163 77 c 0
 164 86 174 92 183 91 c 0
 318 71 443 62 593 62 c 0
 950 62 1034 166 1034 520 c 0
 1034 838 1025 990 1006 1201 c 0
 1005 1210 1012 1219 1021 1220 c 0
378 1164 m 0
 387 1167 397 1163 400 1154 c 0
 479 934 514 708 514 363 c 0
 514 353 506 346 496 346 c 0
 486 346 479 353 479 363 c 0
 479 706 445 926 368 1142 c 0
 365 1151 369 1161 378 1164 c 0
EndSplineSet
Colour: ff00ff
EndChar

StartChar: uniE082
Encoding: 57474 57474 596
GlifName: uniE_082
Width: 2282
Flags: HW
LayerCount: 2
Fore
SplineSet
923 1183 m 0
 932 1184 941 1177 942 1168 c 0
 972 918 986 754 986 514 c 0
 986 113 763 28 446 28 c 0
 363 28 272 35 178 44 c 0
 169 45 162 54 163 63 c 0
 164 72 173 79 182 78 c 0
 276 69 365 62 446 62 c 0
 755 62 950 135 950 514 c 0
 950 752 938 914 908 1164 c 0
 907 1173 914 1182 923 1183 c 0
408 420 m 0
 399 422 392 431 394 440 c 0
 406 500 410 563 410 627 c 0
 410 831 358 990 301 1117 c 0
 297 1126 301 1136 310 1140 c 0
 319 1144 329 1140 333 1131 c 0
 392 1002 446 837 446 627 c 0
 446 561 440 496 428 434 c 0
 426 425 417 418 408 420 c 0
968 532 m 0
 978 532 986 524 986 514 c 0
 986 194.510842788 1072.72245095 62.4219244067 1281 62.0010094104 c 1
 2282 62 l 0
 2292 62 2300 55 2300 45 c 0
 2300 35 2292 28 2282 28 c 0
 1281 28.0009765625 l 1
 1046.72460938 28.4599609375 950 190.459957858 950 514 c 0
 950 524 958 532 968 532 c 0
EndSplineSet
Colour: ff00ff
EndChar

StartChar: uniE083
Encoding: 57475 57475 597
GlifName: uniE_083
Width: 1610
Flags: HW
LayerCount: 2
Fore
SplineSet
1361 1153 m 0
 1370 1154 1379 1147 1380 1138 c 0
 1407 897 1428 705 1428 441 c 0
 1428 96 1186 -2 823 -2 c 0
 479 -2 142 47 142 382 c 0
 142 446 154 520 177 604 c 0
 180 613 190 619 199 616 c 0
 208 613 214 603 211 594 c 0
 188 512 178 442 178 382 c 0
 178 83 473 32 823 32 c 0
 1182 32 1392 124 1392 441 c 0
 1392 703 1373 893 1346 1134 c 0
 1345 1143 1352 1152 1361 1153 c 0
EndSplineSet
Colour: ff00ff
EndChar

StartChar: uniE084
Encoding: 57476 57476 598
GlifName: uniE_084
Width: 3681
Flags: HW
LayerCount: 2
Fore
SplineSet
690 -584 m 0
 358 -584 162 -451 162 -126 c 0
 162 1 190 141 229 282 c 0
 232 291 242 297 251 294 c 0
 260 291 266 281 263 272 c 0
 224 133 198 -5 198 -126 c 0
 198 -429 368 -548 690 -548 c 0
 912 -548 1154 -476 1154 -300 c 0
 1154 -165 1052 -143 916 -116 c 0
 786 -91 626 -56 626 110 c 0
 626 360 911 504 1201 552 c 0
 1210 553 1219 547 1221 539 c 0
 1297 250 1372 42 1542 42 c 0
 1745 42 1809 268 1840 491 c 0
 1841 500 1851 507 1860 506 c 0
 1869 505 1875 496 1874 487 c 0
 1843 270 1779 8 1542 8 c 0
 1342 8 1264 240 1191 515 c 1
 909 465 660 325 660 110 c 0
 660 -24 786 -55 922 -82 c 0
 1052 -107 1190 -135 1190 -300 c 0
 1190 -514 908 -584 690 -584 c 0
1858 506 m 0
 1868 505 1875 498 1874 488 c 0
 1872 458 1872 429 1872 398 c 0
 1872 209 1928 46 2115 46 c 0
 2291 46 2340 217 2340 411 c 0
 2340 463 2336 516 2331 566 c 0
 2330 575 2337 584 2346 585 c 0
 2355 586 2365 579 2366 570 c 0
 2371 520 2374 465 2374 411 c 0
 2374 219 2325 12 2115 12 c 0
 1898 12 1836 207 1836 398 c 0
 1836 429 1838 460 1840 490 c 0
 1841 500 1848 507 1858 506 c 0
2346 585 m 0
 2355 586 2364 579 2365 570 c 0
 2414.92202638 142.667454215 2466.83781973 62.2503619146 2680 62.0005846855 c 1
 3681 62 l 0
 3691 62 3699 54 3699 44 c 0
 3699 34 3691 26 3681 26 c 0
 2680 26.0006616318 l 1
 2440.83317877 26.3176001802 2380.9304831 140.592284003 2331 566 c 0
 2330 575 2337 584 2346 585 c 0
EndSplineSet
Colour: ff00ff
EndChar

StartChar: uniE085
Encoding: 57477 57477 599
GlifName: uniE_085
Width: 435
Flags: HW
LayerCount: 2
Fore
SplineSet
333 726 m 0
 325 731 323 743 328 751 c 0
 344 775 354 804 354 845 c 0
 354 941 278 1004 176 1004 c 0
 86 1004 8 933 8 849 c 0
 8 762 56 716 113 664 c 0
 120 658 120 646 114 639 c 0
 108 632 96 632 89 638 c 0
 32 690 -28 746 -28 849 c 0
 -28 955 70 1038 176 1038 c 0
 292 1038 388 963 388 845 c 0
 388 798 378 761 358 731 c 0
 353 723 341 721 333 726 c 0
-267 -459 m 0
 -268 -450 -261 -441 -252 -440 c 0
 80 -394 268 -206 268 181 c 0
 268 240 262 302 252 361 c 0
 250 370 257 379 266 381 c 0
 275 383 284 376 286 367 c 0
 297 306 302 242 302 181 c 0
 302 -222 98 -426 -248 -474 c 0
 -257 -475 -266 -468 -267 -459 c 0
EndSplineSet
Colour: ff00ff
EndChar

StartChar: uniE086
Encoding: 57478 57478 600
GlifName: uniE_086
Width: 1593
Flags: HW
LayerCount: 2
Fore
SplineSet
172 401 m 0
 181 404 191 398 194 389 c 0
 225 282 234 237 234 137 c 0
 234 -183 89 -391 -246 -474 c 0
 -255 -476 -265 -470 -267 -461 c 0
 -269 -452 -263 -442 -254 -440 c 0
 67 -361 200 -169 200 137 c 0
 200 235 191 272 160 379 c 0
 157 388 163 398 172 401 c 0
291 726 m 0
 283 731 281 743 286 751 c 0
 302 775 312 804 312 845 c 0
 312 941 236 1004 134 1004 c 0
 44 1004 -34 933 -34 849 c 0
 -34 762 14 716 71 664 c 0
 78 658 78 646 72 639 c 0
 66 632 54 632 47 638 c 0
 -10 690 -70 746 -70 849 c 0
 -70 955 28 1038 134 1038 c 0
 250 1038 346 963 346 845 c 0
 346 798 336 761 316 731 c 0
 311 723 299 721 291 726 c 0
1610 45 m 0
 1610 35 1603 28 1593 28 c 0
 592 28.0006399957 l 1
 296.824202566 28.3787116642 218.933503381 196.206252225 160 379 c 0
 157 388 163 398 172 401 c 0
 181 404 191 398 194 389 c 0
 251.929886921 208.218801161 316.842860224 62.3530342344 592 62.0006398573 c 1
 1593 62 l 0
 1603 62 1610 55 1610 45 c 0
EndSplineSet
Colour: ff00ff
EndChar

StartChar: uniE087
Encoding: 57479 57479 601
GlifName: uniE_087
Width: 2465
Flags: HW
LayerCount: 2
Fore
SplineSet
815 32 m 0
 974 32 1072 80 1072 210 c 0
 1072 392 877 616 704 686 c 0
 695 690 690 700 694 709 c 0
 698 718 708 722 717 718 c 0
 900 644 1106 412 1106 210 c 0
 1106 52 978 -2 815 -2 c 0
 601 -2 532 115 532 264 c 0
 532 359 549 464 584 573 c 1
 223 544 178 411 178 156 c 0
 178 -206 185 -381 207 -697 c 0
 208 -707 201 -714 191 -715 c 0
 181 -716 174 -709 173 -699 c 0
 151 -383 142 -206 142 156 c 0
 142 427 207 585 608 609 c 0
 618 610 626 602 626 592 c 0
 626 590 626 586 626 586 c 1
 587 474 566 362 566 264 c 0
 566 129 619 32 815 32 c 0
694 709 m 0
 698 718 708 722 717 718 c 0
 934 623 1026 466 1102 331 c 0
 1185.86652435 182.236760387 1254.78068069 62.3814322357 1464 62.0009086018 c 1
 2465 62 l 0
 2475 62 2483 55 2483 45 c 0
 2483 35 2475 28 2465 28 c 0
 1464 28.0008657237 l 1
 1235.76687397 28.3963274077 1155.87761329 164.217090705 1072 313 c 0
 996 448 910 595 703 686 c 0
 694 690 690 700 694 709 c 0
EndSplineSet
Colour: ff00ff
EndChar
